<svg xmlns="http://www.w3.org/2000/svg" xmlns:xlink="http://www.w3.org/1999/xlink" width="856" zoomAndPan="magnify" viewBox="0 0 642 402.749985" height="537" preserveAspectRatio="xMidYMid meet" version="1.0"><defs><g/><clipPath id="7e3eba3057"><path d="M 295.082031 192.542969 L 381.25 192.542969 L 381.25 267.828125 L 295.082031 267.828125 Z M 295.082031 192.542969 " clip-rule="nonzero"/></clipPath><clipPath id="a6d08c3fb8"><path d="M 338.105469 192.542969 L 381.125 267.828125 L 295.082031 267.828125 Z M 338.105469 192.542969 " clip-rule="nonzero"/></clipPath><clipPath id="2f9c0dea4f"><path d="M 125.285156 147.386719 L 167.722656 147.386719 L 167.722656 232.269531 L 125.285156 232.269531 Z M 125.285156 147.386719 " clip-rule="nonzero"/></clipPath><clipPath id="495ec6f7ad"><path d="M 167.722656 211.046875 C 167.722656 222.765625 158.222656 232.269531 146.503906 232.269531 C 134.785156 232.269531 125.285156 222.765625 125.285156 211.046875 L 125.285156 168.605469 C 125.285156 156.886719 134.785156 147.386719 146.503906 147.386719 C 158.222656 147.386719 167.722656 156.886719 167.722656 168.605469 Z M 167.722656 211.046875 " clip-rule="nonzero"/></clipPath><clipPath id="5ca3391d4b"><path d="M 326.273438 165.15625 L 350.945312 165.15625 L 350.945312 214.496094 L 326.273438 214.496094 Z M 326.273438 165.15625 " clip-rule="nonzero"/></clipPath><clipPath id="2fce36556d"><path d="M 350.945312 202.160156 C 350.945312 208.972656 345.421875 214.496094 338.609375 214.496094 C 331.796875 214.496094 326.273438 208.972656 326.273438 202.160156 L 326.273438 177.492188 C 326.273438 170.675781 331.796875 165.15625 338.609375 165.15625 C 345.421875 165.15625 350.945312 170.675781 350.945312 177.492188 Z M 350.945312 202.160156 " clip-rule="nonzero"/></clipPath><clipPath id="8532ee7684"><path d="M 231.746094 161.972656 L 262.320312 161.972656 L 262.320312 223.117188 L 231.746094 223.117188 Z M 231.746094 161.972656 " clip-rule="nonzero"/></clipPath><clipPath id="b15b3013bb"><path d="M 262.320312 207.832031 C 262.320312 216.273438 255.476562 223.117188 247.03125 223.117188 C 238.589844 223.117188 231.746094 216.273438 231.746094 207.832031 L 231.746094 177.257812 C 231.746094 168.816406 238.589844 161.972656 247.03125 161.972656 C 255.476562 161.972656 262.320312 168.816406 262.320312 177.257812 Z M 262.320312 207.832031 " clip-rule="nonzero"/></clipPath><clipPath id="1cf4722e9b"><path d="M 598.617188 149.027344 L 641.058594 149.027344 L 641.058594 233.910156 L 598.617188 233.910156 Z M 598.617188 149.027344 " clip-rule="nonzero"/></clipPath><clipPath id="edcb7993c9"><path d="M 598.617188 170.246094 C 598.617188 158.527344 608.117188 149.027344 619.839844 149.027344 C 631.558594 149.027344 641.058594 158.527344 641.058594 170.246094 L 641.058594 212.6875 C 641.058594 224.40625 631.558594 233.910156 619.839844 233.910156 C 608.117188 233.910156 598.617188 224.40625 598.617188 212.6875 Z M 598.617188 170.246094 " clip-rule="nonzero"/></clipPath><clipPath id="80b851ba3a"><path d="M 415.953125 165.152344 L 440.625 165.152344 L 440.625 214.496094 L 415.953125 214.496094 Z M 415.953125 165.152344 " clip-rule="nonzero"/></clipPath><clipPath id="851f820ed3"><path d="M 415.953125 177.488281 C 415.953125 170.675781 421.476562 165.152344 428.289062 165.152344 C 435.101562 165.152344 440.625 170.675781 440.625 177.488281 L 440.625 202.160156 C 440.625 208.972656 435.101562 214.496094 428.289062 214.496094 C 421.476562 214.496094 415.953125 208.972656 415.953125 202.160156 Z M 415.953125 177.488281 " clip-rule="nonzero"/></clipPath><clipPath id="d3956c415f"><path d="M 504.332031 160.894531 L 534.902344 160.894531 L 534.902344 222.039062 L 504.332031 222.039062 Z M 504.332031 160.894531 " clip-rule="nonzero"/></clipPath><clipPath id="45ece857bd"><path d="M 504.332031 176.183594 C 504.332031 167.738281 511.175781 160.894531 519.617188 160.894531 C 528.058594 160.894531 534.902344 167.738281 534.902344 176.183594 L 534.902344 206.753906 C 534.902344 215.195312 528.058594 222.039062 519.617188 222.039062 C 511.175781 222.039062 504.332031 215.195312 504.332031 206.753906 Z M 504.332031 176.183594 " clip-rule="nonzero"/></clipPath></defs><g fill="#ffffff" fill-opacity="1"><g transform="translate(74.316639, 258.124431)"><g><path d="M 38.328125 0 C 33.222656 0 29.390625 -0.226562 26.828125 -0.6875 C 24.273438 -1.144531 22.015625 -2.09375 20.046875 -3.53125 C 15.328125 -6.550781 12.316406 -10.484375 11.015625 -15.328125 C 10.742188 -16.117188 10.578125 -16.875 10.515625 -17.59375 C 10.453125 -18.3125 10.382812 -19.160156 10.3125 -20.140625 C 10.25 -21.128906 10.21875 -22.375 10.21875 -23.875 C 10.21875 -25.382812 10.21875 -27.253906 10.21875 -29.484375 L 10.21875 -101.640625 C 10.21875 -104.390625 10.21875 -106.582031 10.21875 -108.21875 C 10.21875 -109.863281 10.25 -111.207031 10.3125 -112.25 C 10.382812 -113.300781 10.484375 -114.117188 10.609375 -114.703125 C 10.742188 -115.296875 10.941406 -115.988281 11.203125 -116.78125 C 14.347656 -126.34375 22.28125 -131.125 35 -131.125 L 61.53125 -131.125 C 71.363281 -131.125 80.144531 -129.78125 87.875 -127.09375 C 95.601562 -124.40625 102.679688 -120.179688 109.109375 -114.421875 C 116.054688 -108.253906 121.394531 -100.941406 125.125 -92.484375 C 128.863281 -84.035156 130.734375 -75.09375 130.734375 -65.65625 C 130.734375 -56.613281 128.894531 -47.898438 125.21875 -39.515625 C 121.550781 -31.128906 116.378906 -23.789062 109.703125 -17.5 C 105.503906 -13.5625 100.75 -10.21875 95.4375 -7.46875 C 90.132812 -4.71875 84.597656 -2.753906 78.828125 -1.578125 C 73.191406 -0.523438 65.789062 0 56.625 0 Z M 53.46875 -40.296875 C 57.144531 -40.296875 60.226562 -40.359375 62.71875 -40.484375 C 65.207031 -40.617188 67.300781 -40.847656 69 -41.171875 C 70.707031 -41.503906 72.148438 -41.929688 73.328125 -42.453125 C 74.503906 -42.984375 75.75 -43.707031 77.0625 -44.625 C 80.34375 -46.988281 82.929688 -50.035156 84.828125 -53.765625 C 86.734375 -57.503906 87.6875 -61.40625 87.6875 -65.46875 C 87.6875 -70.3125 86.40625 -74.765625 83.84375 -78.828125 C 81.289062 -82.890625 77.914062 -85.972656 73.71875 -88.078125 C 71.625 -89.117188 69.332031 -89.835938 66.84375 -90.234375 C 64.351562 -90.628906 61.078125 -90.828125 57.015625 -90.828125 L 53.46875 -90.828125 Z M 53.46875 -40.296875 "/></g></g></g><g clip-path="url(#7e3eba3057)"><g clip-path="url(#a6d08c3fb8)"><path fill="#ffffff" d="M 295.082031 192.542969 L 381.25 192.542969 L 381.25 267.828125 L 295.082031 267.828125 Z M 295.082031 192.542969 " fill-opacity="1" fill-rule="nonzero"/></g></g><g fill="#ffffff" fill-opacity="1"><g transform="translate(271.179558, 266.414284)"><g><path d="M 47.375 -17.109375 C 44.625 -10.679688 41.507812 -6.054688 38.03125 -3.234375 C 34.5625 -0.421875 30.207031 0.984375 24.96875 0.984375 C 21.957031 0.984375 19.140625 0.425781 16.515625 -0.6875 C 13.890625 -1.800781 11.625 -3.335938 9.71875 -5.296875 C 7.820312 -7.265625 6.316406 -9.5625 5.203125 -12.1875 C 4.085938 -14.8125 3.53125 -17.628906 3.53125 -20.640625 C 3.53125 -24.304688 4.453125 -28.109375 6.296875 -32.046875 L 47.375 -119.140625 C 49.207031 -123.203125 51.894531 -126.378906 55.4375 -128.671875 C 58.976562 -130.960938 62.910156 -132.109375 67.234375 -132.109375 C 71.691406 -132.109375 75.6875 -130.960938 79.21875 -128.671875 C 82.757812 -126.378906 85.515625 -123.132812 87.484375 -118.9375 L 128.765625 -30.859375 C 130.472656 -27.585938 131.328125 -24.117188 131.328125 -20.453125 C 131.328125 -17.429688 130.734375 -14.640625 129.546875 -12.078125 C 128.367188 -9.523438 126.796875 -7.265625 124.828125 -5.296875 C 122.867188 -3.335938 120.578125 -1.800781 117.953125 -0.6875 C 115.335938 0.425781 112.519531 0.984375 109.5 0.984375 C 104.519531 0.984375 100.359375 -0.359375 97.015625 -3.046875 C 93.671875 -5.734375 90.492188 -10.421875 87.484375 -17.109375 Z M 73.921875 -48.359375 L 67.234375 -64.09375 L 60.546875 -48.359375 Z M 73.921875 -48.359375 "/></g></g></g><g clip-path="url(#2f9c0dea4f)"><g clip-path="url(#495ec6f7ad)"><path fill="#007a78" d="M 167.722656 147.386719 L 167.722656 232.269531 L 125.285156 232.269531 L 125.285156 147.386719 Z M 167.722656 147.386719 " fill-opacity="1" fill-rule="nonzero"/></g></g><g clip-path="url(#5ca3391d4b)"><g clip-path="url(#2fce36556d)"><path fill="#e3ff00" d="M 350.945312 165.15625 L 350.945312 214.496094 L 326.273438 214.496094 L 326.273438 165.15625 Z M 350.945312 165.15625 " fill-opacity="1" fill-rule="nonzero"/></g></g><g fill="#ffffff" fill-opacity="1"><g transform="translate(190.13186, 276.357813)"><g><path d="M 10.21875 -106.15625 C 10.21875 -110.875 10.644531 -114.546875 11.5 -117.171875 C 12.351562 -119.796875 13.894531 -122.285156 16.125 -124.640625 C 18.351562 -126.867188 20.84375 -128.503906 23.59375 -129.546875 C 26.34375 -130.597656 29.75 -131.125 33.8125 -131.125 L 51.90625 -131.125 C 57.144531 -131.125 61.726562 -130.957031 65.65625 -130.625 C 69.59375 -130.300781 73.066406 -129.742188 76.078125 -128.953125 C 79.097656 -128.171875 81.882812 -127.15625 84.4375 -125.90625 C 86.988281 -124.664062 89.507812 -123.066406 92 -121.109375 C 97.90625 -116.648438 102.460938 -111.144531 105.671875 -104.59375 C 108.878906 -98.039062 110.484375 -91.09375 110.484375 -83.75 C 110.484375 -76.40625 108.8125 -69.457031 105.46875 -62.90625 C 102.125 -56.351562 97.441406 -50.785156 91.421875 -46.203125 C 86.960938 -42.796875 82.375 -40.367188 77.65625 -38.921875 C 72.9375 -37.484375 67.363281 -36.765625 60.9375 -36.765625 L 53.671875 -36.765625 L 53.671875 -23.984375 C 53.671875 -16.515625 51.703125 -10.484375 47.765625 -5.890625 C 43.835938 -1.304688 38.597656 0.984375 32.046875 0.984375 C 28.378906 0.984375 24.9375 0.0976562 21.71875 -1.671875 C 18.507812 -3.441406 15.921875 -5.832031 13.953125 -8.84375 C 13.171875 -10.15625 12.515625 -11.367188 11.984375 -12.484375 C 11.460938 -13.597656 11.070312 -14.84375 10.8125 -16.21875 C 10.550781 -17.59375 10.382812 -19.328125 10.3125 -21.421875 C 10.25 -23.523438 10.21875 -26.210938 10.21875 -29.484375 Z M 53.671875 -76.875 C 58.910156 -76.601562 62.609375 -76.992188 64.765625 -78.046875 C 66.929688 -79.097656 68.015625 -81.128906 68.015625 -84.140625 C 68.015625 -86.367188 67.097656 -88.070312 65.265625 -89.25 C 63.429688 -90.425781 60.878906 -91.015625 57.609375 -91.015625 L 53.671875 -91.015625 Z M 53.671875 -76.875 "/></g></g></g><g clip-path="url(#8532ee7684)"><g clip-path="url(#b15b3013bb)"><path fill="#29afca" d="M 262.320312 161.972656 L 262.320312 223.117188 L 231.746094 223.117188 L 231.746094 161.972656 Z M 262.320312 161.972656 " fill-opacity="1" fill-rule="nonzero"/></g></g><g clip-path="url(#1cf4722e9b)"><g clip-path="url(#edcb7993c9)"><path fill="#ffffff" d="M 598.617188 233.910156 L 598.617188 149.027344 L 641.058594 149.027344 L 641.058594 233.910156 Z M 598.617188 233.910156 " fill-opacity="1" fill-rule="nonzero"/></g></g><g clip-path="url(#80b851ba3a)"><g clip-path="url(#851f820ed3)"><path fill="#ffffff" d="M 415.953125 214.496094 L 415.953125 165.152344 L 440.625 165.152344 L 440.625 214.496094 Z M 415.953125 214.496094 " fill-opacity="1" fill-rule="nonzero"/></g></g><g clip-path="url(#d3956c415f)"><g clip-path="url(#45ece857bd)"><path fill="#ffffff" d="M 504.332031 222.039062 L 504.332031 160.894531 L 534.902344 160.894531 L 534.902344 222.039062 Z M 504.332031 222.039062 " fill-opacity="1" fill-rule="nonzero"/></g></g></svg>