<?xml version="1.0" encoding="UTF-8" standalone="no"?>
<svg
   width="688.8338"
   zoomAndPan="magnify"
   viewBox="0 0 516.62535 212.10635"
   height="282.80847"
   preserveAspectRatio="xMidYMid"
   version="1.0"
   id="svg109"
   xmlns="http://www.w3.org/2000/svg"
   xmlns:svg="http://www.w3.org/2000/svg">
  <defs
     id="defs5">
    <clipPath
       id="92cc82325e">
      <path
         d="m 165.25391,255.59766 h 102.67187 v 90.39453 H 165.25391 Z m 0,0"
         clip-rule="nonzero"
         id="path1" />
    </clipPath>
    <clipPath
       id="5f1ee72bb4">
      <path
         d="M 480.5,292.6875 H 617.38281 V 412.28125 H 480.5 Z m 0,0"
         clip-rule="nonzero"
         id="path2" />
    </clipPath>
    <clipPath
       id="5161998b66">
      <path
         d="m 548.83984,292.6875 68.34375,119.59375 H 480.5 Z m 0,0"
         clip-rule="nonzero"
         id="path3" />
    </clipPath>
    <clipPath
       id="1665b0df81">
      <path
         d="m 379.35937,255.59766 h 54.73829 v 54.73828 h -54.73829 z m 0,0"
         clip-rule="nonzero"
         id="path4" />
    </clipPath>
    <clipPath
       id="ddee231ca7">
      <path
         d="m 406.73047,255.59766 c -15.11719,0 -27.3711,12.2539 -27.3711,27.36718 0,15.11719 12.25391,27.3711 27.3711,27.3711 15.11328,0 27.36719,-12.25391 27.36719,-27.3711 0,-15.11328 -12.25391,-27.36718 -27.36719,-27.36718 z m 0,0"
         clip-rule="nonzero"
         id="path5" />
    </clipPath>
  </defs>
  <g
     fill="#ffffff"
     fill-opacity="1"
     id="g8"
     transform="translate(-134.51518,-200.17487)">
    <g
       transform="translate(118.2808,410.03426)"
       id="g7">
      <g
         id="g6">
        <path
           d="M 60.890625,0 C 52.773438,0 46.6875,-0.363281 42.625,-1.09375 38.5625,-1.820312 34.972656,-3.332031 31.859375,-5.625 c -7.5,-4.78125 -12.292969,-11.023438 -14.375,-18.734375 -0.417969,-1.25 -0.679687,-2.445313 -0.78125,-3.59375 -0.105469,-1.144531 -0.210937,-2.5 -0.3125,-4.0625 -0.105469,-1.5625 -0.15625,-3.535156 -0.15625,-5.921875 0,-2.394531 0,-5.363281 0,-8.90625 v -114.60937 c 0,-4.375 0,-7.86329 0,-10.46875 0,-2.60157 0.05078,-4.73438 0.15625,-6.39063 0.101563,-1.66406 0.257813,-2.96875 0.46875,-3.90625 0.207031,-0.9375 0.519531,-2.03125 0.9375,-3.28125 5,-15.19531 17.597656,-22.79687 37.796875,-22.79687 H 97.75 c 15.61328,0 29.5625,2.13671 41.84375,6.40625 12.28125,4.26171 23.52344,10.97656 33.73437,20.14062 11.03125,9.78125 19.50782,21.38672 25.4375,34.8125 5.9375,13.42969 8.90625,27.63672 8.90625,42.625 0,14.367188 -2.91796,28.214844 -8.75,41.546875 -5.82421,13.324219 -14.04296,24.980469 -24.65625,34.96875 -6.66796,6.25 -14.21875,11.5625 -22.65625,15.9375 C 143.17969,-7.492188 134.39062,-4.375 125.23438,-2.5 116.27344,-0.832031 104.50781,0 89.9375,0 Z M 84.9375,-64.015625 c 5.832031,0 10.726562,-0.101563 14.6875,-0.3125 3.95703,-0.207031 7.28516,-0.570313 9.98438,-1.09375 2.70703,-0.519531 5,-1.195313 6.875,-2.03125 1.875,-0.832031 3.85156,-1.976563 5.9375,-3.4375 5.20703,-3.75 9.3164,-8.585937 12.32812,-14.515625 3.01953,-5.9375 4.53125,-12.132812 4.53125,-18.59375 0,-7.69531 -2.03125,-14.76953 -6.09375,-21.21875 -4.05469,-6.45703 -9.41406,-11.35156 -16.07812,-14.6875 -3.33594,-1.66406 -6.98047,-2.8125 -10.9375,-3.4375 -3.94922,-0.625 -9.152349,-0.9375 -15.60938,-0.9375 h -5.625 z m 0,0"
           id="path6" />
      </g>
    </g>
  </g>
  <g
     fill="#ffffff"
     fill-opacity="1"
     id="g11"
     transform="translate(-134.51518,-200.17487)">
    <g
       transform="translate(309.4034,410.03426)"
       id="g10">
      <g
         id="g9">
        <path
           d="m 16.234375,-168.64062 c 0,-7.5 0.675781,-13.32813 2.03125,-17.48438 1.351563,-4.16406 3.800781,-8.125 7.34375,-11.875 3.539063,-3.53906 7.492187,-6.14062 11.859375,-7.79687 4.375,-1.66407 9.789062,-2.5 16.25,-2.5 h 28.734375 c 8.320313,0 15.601563,0.26171 21.843755,0.78125 6.25,0.52343 11.76953,1.40625 16.5625,2.65625 4.78906,1.24218 9.21093,2.85156 13.26562,4.82812 4.0625,1.98047 8.07031,4.53125 12.03125,7.65625 9.36328,7.08594 16.59766,15.82813 21.70312,26.23438 5.10157,10.40625 7.65625,21.44531 7.65625,33.10937 0,11.65625 -2.65625,22.69531 -7.96875,33.109375 -5.3125,10.40625 -12.75781,19.25 -22.32812,26.53125 -7.08594,5.417969 -14.375,9.273437 -21.875,11.5625 -7.49219,2.28125 -16.33594,3.421875 -26.53125,3.421875 H 85.25 v 20.3125 c 0,11.867188 -3.125,21.445312 -9.375,28.734375 C 69.632812,-2.078125 61.3125,1.5625 50.90625,1.5625 45.070312,1.5625 39.601562,0.15625 34.5,-2.65625 c -5.09375,-2.8125 -9.203125,-6.609375 -12.328125,-11.390625 -1.25,-2.082031 -2.292969,-4.007813 -3.125,-5.78125 -0.835937,-1.769531 -1.460937,-3.75 -1.875,-5.9375 -0.417969,-2.1875 -0.679687,-4.941406 -0.78125,-8.265625 -0.105469,-3.332031 -0.15625,-7.601562 -0.15625,-12.8125 z M 85.25,-122.10938 c 8.332031,0.41797 14.21875,-0.20703 17.65625,-1.875 3.4375,-1.66406 5.15625,-4.89062 5.15625,-9.67187 0,-3.53906 -1.46094,-6.25 -4.375,-8.125 -2.91797,-1.875 -6.980469,-2.8125 -12.1875,-2.8125 h -6.25 z m 0,0"
           id="path8" />
      </g>
    </g>
  </g>
  <g
     clip-path="url(#92cc82325e)"
     id="g12"
     transform="translate(-134.51518,-200.17487)">
    <path
       fill="#ffffff"
       d="m 165.25391,255.59766 h 102.7539 v 90.39453 h -102.7539 z m 0,0"
       fill-opacity="1"
       fill-rule="nonzero"
       id="path11" />
  </g>
  <g
     clip-path="url(#5f1ee72bb4)"
     id="g14"
     transform="translate(-134.51518,-200.17487)">
    <g
       clip-path="url(#5161998b66)"
       id="g13">
      <path
         fill="#ffffff"
         d="M 480.5,292.6875 H 617.38281 V 412.28125 H 480.5 Z m 0,0"
         fill-opacity="1"
         fill-rule="nonzero"
         id="path12" />
    </g>
  </g>
  <g
     clip-path="url(#1665b0df81)"
     id="g16"
     transform="translate(-134.51518,-200.17487)">
    <g
       clip-path="url(#ddee231ca7)"
       id="g15">
      <path
         fill="#ffffff"
         d="m 379.35937,255.59766 h 54.73829 v 54.73828 h -54.73829 z m 0,0"
         fill-opacity="1"
         fill-rule="nonzero"
         id="path14" />
    </g>
  </g>
  <g
     fill="#ffffff"
     fill-opacity="1"
     id="g19"
     transform="translate(-134.51518,-200.17487)">
    <g
       transform="translate(442.53116,410.03426)"
       id="g18">
      <g
         id="g17">
        <path
           d="m 75.265625,-27.171875 c -4.375,10.199219 -9.324219,17.539063 -14.84375,22.015625 -5.511719,4.480469 -12.433594,6.71875 -20.765625,6.71875 -4.78125,0 -9.257812,-0.886719 -13.421875,-2.65625 -4.167969,-1.769531 -7.761719,-4.210938 -10.78125,-7.328125 -3.011719,-3.125 -5.402344,-6.769531 -7.171875,-10.9375 C 6.507812,-23.523438 5.625,-28.003906 5.625,-32.796875 5.625,-38.617188 7.082031,-44.65625 10,-50.90625 L 75.265625,-189.25 c 2.914063,-6.45703 7.179687,-11.50391 12.796875,-15.14062 5.625,-3.64454 11.875,-5.46875 18.75,-5.46875 7.07031,0 13.41406,1.82421 19.03125,5.46875 5.625,3.63671 10,8.78906 13.125,15.45312 l 65.57812,139.90625 c 2.70704,5.210938 4.0625,10.726562 4.0625,16.546875 0,4.792969 -0.9375,9.21875 -2.8125,13.28125 -1.86718,4.0625 -4.35937,7.65625 -7.48437,10.78125 -3.125,3.117187 -6.77344,5.558594 -10.9375,7.328125 -4.16797,1.769531 -8.64063,2.65625 -13.42188,2.65625 -7.91796,0 -14.53125,-2.132812 -19.84375,-6.40625 -5.30468,-4.269531 -10.35156,-11.710938 -15.14062,-22.328125 z m 42.156255,-49.65625 -10.60938,-24.984375 -10.625,24.984375 z m 0,0"
           id="path16" />
      </g>
    </g>
  </g>
  <g
     fill="#007a78"
     fill-opacity="1"
     id="g22"
     transform="translate(-134.51518,-200.17487)">
    <g
       transform="translate(178.27939,398.48897)"
       id="g21">
      <g
         id="g20">
        <path
           d="m -25.328125,-13.703125 c 0,-1.789063 0.339844,-3.351563 1.015625,-4.6875 0.679688,-1.34375 1.617188,-2.445313 2.8125,-3.3125 1.1875,-0.863281 2.542969,-1.503906 4.0625,-1.921875 1.523438,-0.425781 3.117188,-0.640625 4.78125,-0.640625 2.3125,0 4.429688,0.382813 6.34375,1.140625 1.917969,0.75 3.449219,1.90625 4.59375,3.46875 C -0.570312,-18.101562 0,-16.117188 0,-13.703125 v 9.21875 c 0,0.292969 -0.109375,0.546875 -0.328125,0.765625 -0.21875,0.210938 -0.46875,0.3125 -0.75,0.3125 h -23.15625 c -0.289063,0 -0.546875,-0.101562 -0.765625,-0.3125 -0.21875,-0.21875 -0.328125,-0.472656 -0.328125,-0.765625 z m 23.1875,0.359375 c 0,-2.050781 -0.46875,-3.703125 -1.40625,-4.953125 -0.9375,-1.257813 -2.207031,-2.179687 -3.8125,-2.765625 -1.601563,-0.59375 -3.367187,-0.890625 -5.296875,-0.890625 -1.40625,0 -2.738281,0.164063 -4,0.484375 -1.269531,0.324219 -2.390625,0.828125 -3.359375,1.515625 -0.976563,0.6875 -1.75,1.585937 -2.3125,2.6875 -0.570313,1.09375 -0.859375,2.402344 -0.859375,3.921875 v 7.921875 l -0.328125,-0.25 h 21.75 l -0.375,0.203125 z m 0,0"
           id="path19" />
      </g>
    </g>
  </g>
  <g
     fill="#007a78"
     fill-opacity="1"
     id="g25"
     transform="translate(-134.51518,-200.17487)">
    <g
       transform="translate(178.27939,372.48573)"
       id="g24">
      <g
         id="g23">
        <path
           d="m -1.078125,-4.953125 c 0.28125,0 0.53125,0.109375 0.75,0.328125 C -0.109375,-4.40625 0,-4.15625 0,-3.875 c 0,0.3125 -0.109375,0.574219 -0.328125,0.78125 -0.21875,0.210938 -0.46875,0.3125 -0.75,0.3125 H -17.71875 c -0.289062,0 -0.546875,-0.101562 -0.765625,-0.3125 -0.21875,-0.207031 -0.328125,-0.46875 -0.328125,-0.78125 0,-0.3125 0.109375,-0.566406 0.328125,-0.765625 0.21875,-0.207031 0.476563,-0.3125 0.765625,-0.3125 z M -21.234375,-3.875 c 0,0.511719 -0.113281,0.890625 -0.34375,1.140625 -0.226563,0.25 -0.5625,0.375 -1,0.375 H -22.9375 c -0.4375,0 -0.769531,-0.132813 -1,-0.40625 -0.226562,-0.28125 -0.34375,-0.660156 -0.34375,-1.140625 0,-0.457031 0.117188,-0.8125 0.34375,-1.0625 0.230469,-0.257812 0.5625,-0.390625 1,-0.390625 h 0.359375 c 0.4375,0 0.773437,0.132813 1,0.390625 0.230469,0.25 0.34375,0.617188 0.34375,1.09375 z m 0,0"
           id="path22" />
      </g>
    </g>
  </g>
  <g
     fill="#007a78"
     fill-opacity="1"
     id="g28"
     transform="translate(-134.51518,-200.17487)">
    <g
       transform="translate(178.27939,364.74624)"
       id="g27">
      <g
         id="g26">
        <path
           d="M -2.9375,-1.8125 C -3.21875,-1.613281 -3.5,-1.519531 -3.78125,-1.53125 -4.0625,-1.550781 -4.285156,-1.703125 -4.453125,-1.984375 -4.617188,-2.179688 -4.6875,-2.40625 -4.65625,-2.65625 c 0.023438,-0.25 0.140625,-0.484375 0.359375,-0.703125 0.84375,-0.65625 1.527344,-1.445313 2.046875,-2.375 0.511719,-0.925781 0.765625,-2.03125 0.765625,-3.3125 0,-0.675781 -0.113281,-1.34375 -0.34375,-2 -0.226563,-0.664063 -0.578125,-1.210937 -1.046875,-1.640625 -0.46875,-0.4375 -1.066406,-0.65625 -1.796875,-0.65625 -0.738281,0 -1.335937,0.21875 -1.796875,0.65625 -0.457031,0.429688 -0.816406,0.984375 -1.078125,1.671875 -0.269531,0.6875 -0.503906,1.417969 -0.703125,2.1875 -0.21875,0.824219 -0.460938,1.621094 -0.734375,2.390625 -0.28125,0.773438 -0.628906,1.453125 -1.046875,2.046875 -0.425781,0.585937 -0.941406,1.058594 -1.546875,1.421875 -0.601563,0.367188 -1.335937,0.546875 -2.203125,0.546875 -1.007812,0 -1.898438,-0.273437 -2.671875,-0.828125 -0.769531,-0.5625 -1.375,-1.316406 -1.8125,-2.265625 -0.4375,-0.945313 -0.65625,-2.023437 -0.65625,-3.234375 0,-0.601562 0.07813,-1.253906 0.234375,-1.953125 0.15625,-0.695313 0.417969,-1.382813 0.78125,-2.0625 0.367188,-0.675781 0.859375,-1.28125 1.484375,-1.8125 0.21875,-0.21875 0.46875,-0.328125 0.75,-0.328125 0.273437,0 0.515625,0.121094 0.734375,0.359375 0.148438,0.199219 0.21875,0.429687 0.21875,0.6875 0,0.25 -0.09766,0.460937 -0.296875,0.625 -0.644531,0.574219 -1.132813,1.261719 -1.46875,2.0625 -0.34375,0.792969 -0.515625,1.648437 -0.515625,2.5625 0,0.699219 0.117188,1.355469 0.34375,1.96875 0.230469,0.617187 0.574219,1.132813 1.03125,1.546875 0.460938,0.40625 1.0625,0.609375 1.8125,0.609375 0.699219,-0.050781 1.265625,-0.296875 1.703125,-0.734375 0.429687,-0.445312 0.789063,-1.039062 1.078125,-1.78125 0.292969,-0.738281 0.558594,-1.566406 0.796875,-2.484375 0.1875,-0.769531 0.417969,-1.507813 0.6875,-2.21875 0.261719,-0.707031 0.59375,-1.332031 1,-1.875 0.398437,-0.539063 0.898437,-0.972656 1.5,-1.296875 0.59375,-0.332031 1.351563,-0.5 2.265625,-0.5 1.0625,0 1.980469,0.296875 2.75,0.890625 0.773438,0.59375 1.367188,1.386719 1.78125,2.375 0.40625,0.980469 0.609375,2.074219 0.609375,3.28125 0,1.304687 -0.25,2.5625 -0.75,3.78125 C -0.898438,-3.828125 -1.75,-2.75 -2.9375,-1.8125 Z m 0,0"
           id="path25" />
      </g>
    </g>
  </g>
  <g
     fill="#007a78"
     fill-opacity="1"
     id="g31"
     transform="translate(-134.51518,-200.17487)">
    <g
       transform="translate(178.27939,347.78447)"
       id="g30">
      <g
         id="g29">
        <path
           d="m -18.40625,-1.65625 v -8.4375 c 0,-0.289062 0.105469,-0.53125 0.3125,-0.71875 0.199219,-0.195312 0.445312,-0.296875 0.734375,-0.296875 0.261719,0 0.492187,0.101563 0.6875,0.296875 0.1875,0.1875 0.28125,0.429688 0.28125,0.71875 v 8.4375 c 0,0.28125 -0.09766,0.527344 -0.296875,0.734375 -0.207031,0.210937 -0.445312,0.3125 -0.71875,0.3125 -0.28125,0 -0.515625,-0.101563 -0.703125,-0.3125 C -18.304688,-1.128906 -18.40625,-1.375 -18.40625,-1.65625 Z m -5.109375,-3.734375 c 0,-0.3125 0.109375,-0.566406 0.328125,-0.765625 0.21875,-0.207031 0.476562,-0.3125 0.765625,-0.3125 h 18.15625 c 0.679687,0 1.183594,-0.085938 1.515625,-0.265625 0.335938,-0.1875 0.558594,-0.425781 0.671875,-0.71875 0.105469,-0.289063 0.15625,-0.578125 0.15625,-0.859375 0,-0.195312 -0.023437,-0.375 -0.078125,-0.53125 C -2.0625,-9 -2.09375,-9.175781 -2.09375,-9.375 c 0,-0.207031 0.085938,-0.390625 0.25,-0.546875 0.167969,-0.164063 0.386719,-0.25 0.65625,-0.25 0.335938,0 0.617188,0.199219 0.84375,0.59375 C -0.113281,-9.191406 0,-8.738281 0,-8.21875 0,-8 -0.015625,-7.671875 -0.046875,-7.234375 c -0.0390625,0.4375 -0.175781,0.886719 -0.40625,1.34375 -0.226563,0.460937 -0.628906,0.839844 -1.203125,1.140625 -0.582031,0.304688 -1.414062,0.453125 -2.5,0.453125 h -18.265625 c -0.289063,0 -0.546875,-0.101563 -0.765625,-0.3125 -0.21875,-0.207031 -0.328125,-0.46875 -0.328125,-0.78125 z m 0,0"
           id="path28" />
      </g>
    </g>
  </g>
  <g
     fill="#007a78"
     fill-opacity="1"
     id="g34"
     transform="translate(-134.51518,-200.17487)">
    <g
       transform="translate(178.27939,335.52424)"
       id="g33">
      <g
         id="g32">
        <path
           d="m 0,-3.9375 c 0,0.335938 -0.109375,0.601562 -0.328125,0.796875 -0.21875,0.1875 -0.46875,0.28125 -0.75,0.28125 h -16.21875 c -0.28125,0 -0.53125,-0.097656 -0.75,-0.296875 C -18.265625,-3.363281 -18.375,-3.625 -18.375,-3.9375 c 0,-0.3125 0.109375,-0.570312 0.328125,-0.78125 0.21875,-0.207031 0.46875,-0.3125 0.75,-0.3125 h 5.4375 L -11.75,-4.484375 c -0.84375,-0.070313 -1.679688,-0.28125 -2.515625,-0.625 -0.832031,-0.351563 -1.597656,-0.832031 -2.296875,-1.4375 -0.695312,-0.601563 -1.265625,-1.320313 -1.703125,-2.15625 -0.4375,-0.832031 -0.65625,-1.765625 -0.65625,-2.796875 0,-0.4375 0.09375,-0.859375 0.28125,-1.265625 0.179687,-0.414063 0.46875,-0.625 0.875,-0.625 0.367187,0 0.648437,0.101563 0.84375,0.296875 0.1875,0.1875 0.28125,0.417969 0.28125,0.6875 0,0.21875 -0.05469,0.453125 -0.171875,0.703125 -0.125,0.25 -0.1875,0.585937 -0.1875,1 0,0.679687 0.199219,1.355469 0.59375,2.03125 0.398438,0.667969 0.933594,1.28125 1.609375,1.84375 0.679687,0.554687 1.433594,0.992187 2.265625,1.3125 0.835938,0.324219 1.671875,0.484375 2.515625,0.484375 h 8.9375 c 0.28125,0 0.53125,0.109375 0.75,0.328125 C -0.109375,-4.484375 0,-4.226562 0,-3.9375 Z m 0,0"
           id="path31" />
      </g>
    </g>
  </g>
  <g
     fill="#007a78"
     fill-opacity="1"
     id="g37"
     transform="translate(-134.51518,-200.17487)">
    <g
       transform="translate(178.27939,321.6004)"
       id="g36">
      <g
         id="g35">
        <path
           d="m -1.078125,-4.953125 c 0.28125,0 0.53125,0.109375 0.75,0.328125 C -0.109375,-4.40625 0,-4.15625 0,-3.875 c 0,0.3125 -0.109375,0.574219 -0.328125,0.78125 -0.21875,0.210938 -0.46875,0.3125 -0.75,0.3125 H -17.71875 c -0.289062,0 -0.546875,-0.101562 -0.765625,-0.3125 -0.21875,-0.207031 -0.328125,-0.46875 -0.328125,-0.78125 0,-0.3125 0.109375,-0.566406 0.328125,-0.765625 0.21875,-0.207031 0.476563,-0.3125 0.765625,-0.3125 z M -21.234375,-3.875 c 0,0.511719 -0.113281,0.890625 -0.34375,1.140625 -0.226563,0.25 -0.5625,0.375 -1,0.375 H -22.9375 c -0.4375,0 -0.769531,-0.132813 -1,-0.40625 -0.226562,-0.28125 -0.34375,-0.660156 -0.34375,-1.140625 0,-0.457031 0.117188,-0.8125 0.34375,-1.0625 0.230469,-0.257812 0.5625,-0.390625 1,-0.390625 h 0.359375 c 0.4375,0 0.773437,0.132813 1,0.390625 0.230469,0.25 0.34375,0.617188 0.34375,1.09375 z m 0,0"
           id="path34" />
      </g>
    </g>
  </g>
  <g
     fill="#007a78"
     fill-opacity="1"
     id="g40"
     transform="translate(-134.51518,-200.17487)">
    <g
       transform="translate(178.27939,313.86091)"
       id="g39">
      <g
         id="g38">
        <path
           d="m -18.921875,-11.640625 c 0,-1.644531 0.414063,-3.097656 1.234375,-4.359375 0.824219,-1.269531 1.953125,-2.273438 3.390625,-3.015625 1.429687,-0.75 3.085937,-1.125 4.96875,-1.125 1.835937,0 3.484375,0.375 4.953125,1.125 1.46875,0.742187 2.625,1.75 3.46875,3.03125 0.84375,1.273437 1.265625,2.703125 1.265625,4.296875 0,0.84375 -0.132813,1.648438 -0.390625,2.40625 -0.269531,0.761719 -0.625,1.460938 -1.0625,2.09375 -0.445312,0.625 -0.972656,1.179688 -1.578125,1.65625 -0.601563,0.480469 -1.253906,0.867188 -1.953125,1.15625 l -0.46875,-0.65625 h 4.078125 c 0.3125,0 0.574219,0.105469 0.78125,0.3125 0.2109375,0.210938 0.3125,0.46875 0.3125,0.78125 0,0.3125 -0.1015625,0.574219 -0.3125,0.78125 -0.207031,0.199219 -0.46875,0.296875 -0.78125,0.296875 h -24.625 c -0.3125,0 -0.570313,-0.09375 -0.78125,-0.28125 -0.207031,-0.195313 -0.3125,-0.460937 -0.3125,-0.796875 0,-0.3125 0.105469,-0.570312 0.3125,-0.78125 0.210937,-0.207031 0.46875,-0.3125 0.78125,-0.3125 h 12.109375 l -0.28125,0.515625 c -0.75,-0.25 -1.429688,-0.609375 -2.046875,-1.078125 -0.613281,-0.46875 -1.148437,-1.015625 -1.609375,-1.640625 -0.457031,-0.625 -0.8125,-1.3125 -1.0625,-2.0625 -0.257812,-0.75 -0.390625,-1.53125 -0.390625,-2.34375 z m 2.03125,0.171875 c 0,1.304688 0.328125,2.449219 0.984375,3.4375 0.648438,0.992188 1.539062,1.773438 2.671875,2.34375 1.136719,0.5625 2.4375,0.84375 3.90625,0.84375 1.449219,0 2.757813,-0.28125 3.921875,-0.84375 1.167969,-0.570312 2.085938,-1.351562 2.75,-2.34375 0.667969,-0.988281 1,-2.132812 1,-3.4375 0,-1.28125 -0.335938,-2.40625 -1.015625,-3.375 -0.675781,-0.976562 -1.597656,-1.753906 -2.765625,-2.328125 -1.175781,-0.582031 -2.472656,-0.875 -3.890625,-0.875 -1.46875,0 -2.769531,0.292969 -3.90625,0.875 -1.132813,0.574219 -2.023437,1.351563 -2.671875,2.328125 -0.65625,0.96875 -0.984375,2.09375 -0.984375,3.375 z m 0,0"
           id="path37" />
      </g>
    </g>
  </g>
  <g
     fill="#007a78"
     fill-opacity="1"
     id="g43"
     transform="translate(-134.51518,-200.17487)">
    <g
       transform="translate(178.27939,291.94442)"
       id="g42">
      <g
         id="g41">
        <path
           d="m -18.375,-16.671875 c 0,-0.3125 0.109375,-0.570313 0.328125,-0.78125 0.21875,-0.207031 0.46875,-0.3125 0.75,-0.3125 H -7.09375 c 2.386719,0 4.210938,0.679687 5.46875,2.03125 1.25,1.355469 1.875,3.179687 1.875,5.46875 0,2.261719 -0.625,4.0625 -1.875,5.40625 -1.257812,1.335937 -3.082031,2 -5.46875,2 h -10.203125 c -0.28125,0 -0.53125,-0.097656 -0.75,-0.296875 C -18.265625,-3.363281 -18.375,-3.625 -18.375,-3.9375 c 0,-0.3125 0.109375,-0.570312 0.328125,-0.78125 0.21875,-0.207031 0.46875,-0.3125 0.75,-0.3125 H -7.09375 c 1.742188,0 3.0625,-0.460938 3.96875,-1.390625 0.90625,-0.925781 1.359375,-2.207031 1.359375,-3.84375 0,-1.664063 -0.453125,-2.96875 -1.359375,-3.90625 -0.90625,-0.945313 -2.226562,-1.421875 -3.96875,-1.421875 h -10.203125 c -0.28125,0 -0.53125,-0.09375 -0.75,-0.28125 -0.21875,-0.195312 -0.328125,-0.460938 -0.328125,-0.796875 z m 0,0"
           id="path40" />
      </g>
    </g>
  </g>
  <g
     fill="#007a78"
     fill-opacity="1"
     id="g46"
     transform="translate(-134.51518,-200.17487)">
    <g
       transform="translate(178.27939,271.36606)"
       id="g45">
      <g
         id="g44">
        <path
           d="m -18.40625,-1.65625 v -8.4375 c 0,-0.289062 0.105469,-0.53125 0.3125,-0.71875 0.199219,-0.195312 0.445312,-0.296875 0.734375,-0.296875 0.261719,0 0.492187,0.101563 0.6875,0.296875 0.1875,0.1875 0.28125,0.429688 0.28125,0.71875 v 8.4375 c 0,0.28125 -0.09766,0.527344 -0.296875,0.734375 -0.207031,0.210937 -0.445312,0.3125 -0.71875,0.3125 -0.28125,0 -0.515625,-0.101563 -0.703125,-0.3125 C -18.304688,-1.128906 -18.40625,-1.375 -18.40625,-1.65625 Z m -5.109375,-3.734375 c 0,-0.3125 0.109375,-0.566406 0.328125,-0.765625 0.21875,-0.207031 0.476562,-0.3125 0.765625,-0.3125 h 18.15625 c 0.679687,0 1.183594,-0.085938 1.515625,-0.265625 0.335938,-0.1875 0.558594,-0.425781 0.671875,-0.71875 0.105469,-0.289063 0.15625,-0.578125 0.15625,-0.859375 0,-0.195312 -0.023437,-0.375 -0.078125,-0.53125 C -2.0625,-9 -2.09375,-9.175781 -2.09375,-9.375 c 0,-0.207031 0.085938,-0.390625 0.25,-0.546875 0.167969,-0.164063 0.386719,-0.25 0.65625,-0.25 0.335938,0 0.617188,0.199219 0.84375,0.59375 C -0.113281,-9.191406 0,-8.738281 0,-8.21875 0,-8 -0.015625,-7.671875 -0.046875,-7.234375 c -0.0390625,0.4375 -0.175781,0.886719 -0.40625,1.34375 -0.226563,0.460937 -0.628906,0.839844 -1.203125,1.140625 -0.582031,0.304688 -1.414062,0.453125 -2.5,0.453125 h -18.265625 c -0.289063,0 -0.546875,-0.101563 -0.765625,-0.3125 -0.21875,-0.207031 -0.328125,-0.46875 -0.328125,-0.78125 z m 0,0"
           id="path43" />
      </g>
    </g>
  </g>
  <g
     fill="#007a78"
     fill-opacity="1"
     id="g49"
     transform="translate(-134.51518,-200.17487)">
    <g
       transform="translate(178.27939,259.10584)"
       id="g48">
      <g
         id="g47">
        <path
           d="m 0.359375,-11.21875 c 0,1.867188 -0.3945312,3.511719 -1.1875,4.9375 -0.800781,1.417969 -1.910156,2.527344 -3.328125,3.328125 -1.425781,0.792969 -3.09375,1.1875 -5,1.1875 -2.039062,0 -3.785156,-0.40625 -5.234375,-1.21875 -1.445313,-0.8125 -2.5625,-1.859375 -3.34375,-3.140625 -0.789063,-1.289062 -1.1875,-2.660156 -1.1875,-4.109375 0,-1.0625 0.1875,-2.09375 0.5625,-3.09375 0.375,-1 0.933594,-1.890625 1.671875,-2.671875 0.730469,-0.789062 1.625,-1.421875 2.6875,-1.890625 1.0625,-0.46875 2.292969,-0.726563 3.6875,-0.78125 0.292969,0.03125 0.542969,0.15625 0.75,0.375 0.199219,0.210937 0.296875,0.460937 0.296875,0.75 V -3.03125 l -1.953125,0.421875 v -14.25 l 0.4375,0.46875 H -11.5 c -1.132812,0.105469 -2.097656,0.46875 -2.890625,1.09375 -0.800781,0.625 -1.40625,1.386719 -1.8125,2.28125 -0.40625,0.886719 -0.609375,1.8125 -0.609375,2.78125 0,0.71875 0.148438,1.460937 0.4375,2.21875 0.28125,0.761719 0.730469,1.449219 1.34375,2.0625 0.617188,0.617187 1.402344,1.117187 2.359375,1.5 0.949219,0.386719 2.074219,0.578125 3.375,0.578125 1.429687,0 2.71875,-0.285156 3.875,-0.859375 1.15625,-0.582031 2.074219,-1.421875 2.75,-2.515625 0.679687,-1.09375 1.015625,-2.398438 1.015625,-3.921875 0,-0.84375 -0.117188,-1.601563 -0.359375,-2.28125 -0.25,-0.675781 -0.570313,-1.265625 -0.96875,-1.765625 -0.394531,-0.507812 -0.8125,-0.9375 -1.25,-1.28125 -0.21875,-0.257812 -0.328125,-0.523438 -0.328125,-0.796875 0,-0.238281 0.101562,-0.445313 0.296875,-0.625 0.1875,-0.175781 0.402344,-0.265625 0.640625,-0.265625 0.292969,0 0.546875,0.121094 0.765625,0.359375 0.867187,0.71875 1.621094,1.65625 2.265625,2.8125 0.6328125,1.15625 0.953125,2.421875 0.953125,3.796875 z m 0,0"
           id="path46" />
      </g>
    </g>
  </g>
  <g
     fill="#007a78"
     fill-opacity="1"
     id="g52"
     transform="translate(-134.51518,-200.17487)">
    <g
       transform="translate(178.27939,238.67214)"
       id="g51">
      <g
         id="g50">
        <path
           d="m -26.765625,-18.015625 c 0,-0.3125 0.105469,-0.566406 0.3125,-0.765625 0.199219,-0.207031 0.453125,-0.3125 0.765625,-0.3125 h 24.609375 c 0.28125,0 0.53125,0.109375 0.75,0.328125 0.21875,0.210937 0.328125,0.460937 0.328125,0.75 0,0.3125 -0.109375,0.574219 -0.328125,0.78125 -0.21875,0.210937 -0.46875,0.3125 -0.75,0.3125 h -4.3125 l -0.5,-0.625 c 0.667969,0 1.371094,0.183594 2.109375,0.546875 0.742188,0.367188 1.421875,0.882812 2.046875,1.546875 0.625,0.65625 1.132813,1.429687 1.515625,2.3125 0.382812,0.875 0.578125,1.820313 0.578125,2.828125 0,1.617188 -0.421875,3.070312 -1.265625,4.359375 -0.84375,1.292969 -1.988281,2.3125 -3.4375,3.0625 -1.445312,0.75 -3.097656,1.125 -4.953125,1.125 -1.832031,0 -3.476563,-0.375 -4.9375,-1.125 -1.457031,-0.75 -2.601563,-1.757813 -3.4375,-3.03125 -0.832031,-1.28125 -1.25,-2.726563 -1.25,-4.34375 0,-0.988281 0.183594,-1.929687 0.546875,-2.828125 0.367188,-0.894531 0.859375,-1.6875 1.484375,-2.375 0.625,-0.6875 1.34375,-1.226562 2.15625,-1.625 0.804687,-0.394531 1.640625,-0.59375 2.515625,-0.59375 l -0.546875,0.765625 H -25.6875 c -0.28125,0 -0.53125,-0.101563 -0.75,-0.3125 -0.21875,-0.207031 -0.328125,-0.46875 -0.328125,-0.78125 z m 25.109375,7.53125 c 0,-1.300781 -0.332031,-2.441406 -1,-3.421875 -0.664062,-0.976562 -1.570312,-1.75 -2.71875,-2.3125 -1.144531,-0.570312 -2.453125,-0.859375 -3.921875,-0.859375 -1.445313,0 -2.742187,0.289063 -3.890625,0.859375 -1.144531,0.5625 -2.046875,1.339844 -2.703125,2.328125 -0.664063,0.992187 -1,2.125 -1,3.40625 0,1.25 0.335937,2.375 1,3.375 0.65625,1 1.558594,1.789063 2.703125,2.359375 1.148438,0.5625 2.445312,0.84375 3.890625,0.84375 1.449219,0 2.75,-0.28125 3.90625,-0.84375 1.15625,-0.570312 2.070313,-1.359375 2.734375,-2.359375 0.667969,-1 1,-2.125 1,-3.375 z m 0,0"
           id="path49" />
      </g>
    </g>
  </g>
  <g
     fill="#007a78"
     fill-opacity="1"
     id="g61"
     transform="translate(-134.51518,-200.17487)">
    <g
       transform="translate(372.38562,398.49327)"
       id="g60">
      <g
         id="g59">
        <path
           d="m -25.328125,-13.171875 c 0,-1.25 0.367187,-2.421875 1.09375,-3.515625 0.71875,-1.101562 1.699219,-1.988281 2.9375,-2.65625 1.230469,-0.675781 2.601563,-1.015625 4.109375,-1.015625 1.5,0 2.867188,0.339844 4.09375,1.015625 1.230469,0.667969 2.214844,1.554688 2.953125,2.65625 0.730469,1.09375 1.09375,2.265625 1.09375,3.515625 v 6.65625 L -9.6875,-6.875 h 7.484375 c 0.625,0 1.152344,0.195312 1.578125,0.578125 C -0.207031,-5.910156 0,-5.40625 0,-4.78125 c 0,0.605469 -0.207031,1.101562 -0.625,1.484375 -0.425781,0.386719 -0.953125,0.578125 -1.578125,0.578125 h -20.90625 c -0.625,0 -1.148437,-0.207031 -1.578125,-0.625 -0.425781,-0.425781 -0.640625,-0.953125 -0.640625,-1.578125 z m 12.15625,0 c 0,-0.457031 -0.191406,-0.898437 -0.578125,-1.328125 -0.382812,-0.4375 -0.882812,-0.800781 -1.5,-1.09375 -0.613281,-0.289062 -1.257812,-0.4375 -1.9375,-0.4375 -0.695312,0 -1.347656,0.148438 -1.953125,0.4375 -0.601563,0.292969 -1.085937,0.65625 -1.453125,1.09375 -0.375,0.429688 -0.5625,0.871094 -0.5625,1.328125 V -6.4375 L -21.8125,-6.875 h 9.21875 l -0.578125,0.40625 z m 0,0"
           id="path58" />
      </g>
    </g>
  </g>
  <g
     fill="#007a78"
     fill-opacity="1"
     id="g64"
     transform="translate(-134.51518,-200.17487)">
    <g
       transform="translate(372.38562,376.68338)"
       id="g63">
      <g
         id="g62">
        <path
           d="m -9.65625,-21.125 c 1.980469,0 3.726562,0.445312 5.234375,1.328125 1.5,0.875 2.671875,2.058594 3.515625,3.546875 0.84375,1.480469 1.265625,3.136719 1.265625,4.96875 0,1.835938 -0.421875,3.492188 -1.265625,4.96875 -0.84375,1.480469 -2.015625,2.664062 -3.515625,3.546875 -1.507813,0.875 -3.253906,1.3125 -5.234375,1.3125 -1.976562,0 -3.71875,-0.4375 -5.21875,-1.3125 -1.507812,-0.882813 -2.691406,-2.066406 -3.546875,-3.546875 -0.863281,-1.476562 -1.296875,-3.132812 -1.296875,-4.96875 0,-1.832031 0.433594,-3.488281 1.296875,-4.96875 0.855469,-1.488281 2.039063,-2.671875 3.546875,-3.546875 1.5,-0.882813 3.242188,-1.328125 5.21875,-1.328125 z m 0,4.34375 c -1.226562,0 -2.296875,0.25 -3.203125,0.75 -0.90625,0.492188 -1.609375,1.152344 -2.109375,1.984375 -0.507812,0.824219 -0.765625,1.746094 -0.765625,2.765625 0,1.011719 0.257813,1.933594 0.765625,2.765625 0.5,0.835937 1.203125,1.5 2.109375,2 0.90625,0.492187 1.976563,0.734375 3.203125,0.734375 1.210938,0 2.265625,-0.242188 3.171875,-0.734375 0.898437,-0.5 1.601563,-1.164063 2.109375,-2 0.5,-0.832031 0.75,-1.753906 0.75,-2.765625 0,-1.019531 -0.25,-1.941406 -0.75,-2.765625 -0.507812,-0.832031 -1.210938,-1.492187 -2.109375,-1.984375 -0.90625,-0.5 -1.960937,-0.75 -3.171875,-0.75 z m 0,0"
           id="path61" />
      </g>
    </g>
  </g>
  <g
     fill="#007a78"
     fill-opacity="1"
     id="g67"
     transform="translate(-134.51518,-200.17487)">
    <g
       transform="translate(372.38562,354.11394)"
       id="g66">
      <g
         id="g65">
        <path
           d="m -19.359375,-24.640625 c 0,-0.550781 0.214844,-1.03125 0.640625,-1.4375 0.417969,-0.40625 0.953125,-0.609375 1.609375,-0.609375 0.167969,0 0.320313,0.01172 0.453125,0.03125 0.136719,0.02344 0.261719,0.05859 0.375,0.109375 l 14.90625,5.53125 c 0.480469,0.167969 0.851562,0.46875 1.109375,0.90625 0.25,0.4375 0.3359375,0.898437 0.265625,1.375 -0.0507812,0.824219 -0.507812,1.4375 -1.375,1.84375 l -10.3125,3.578125 0.04687,-0.9375 10.265625,3.359375 c 0.867188,0.417969 1.3242188,1.03125 1.375,1.84375 0.0703125,0.460937 -0.015625,0.914063 -0.265625,1.359375 -0.257813,0.449219 -0.628906,0.757812 -1.109375,0.921875 l -14.90625,5.53125 c -0.257812,0.105469 -0.535156,0.15625 -0.828125,0.15625 -0.582031,0 -1.101563,-0.191406 -1.5625,-0.578125 -0.457031,-0.394531 -0.6875,-0.925781 -0.6875,-1.59375 0,-0.457031 0.109375,-0.867188 0.328125,-1.234375 0.21875,-0.363281 0.570312,-0.617187 1.046875,-0.765625 l 11.875,-4.375 -0.078125,0.90625 -8.9375,-3.296875 c -0.882807,-0.382813 -1.32812,-1.046875 -1.32812,-1.984375 0,-0.53125 0.117187,-0.929688 0.34375,-1.203125 0.230469,-0.28125 0.558594,-0.503906 0.984375,-0.671875 l 8.9375,-3.296875 0.140625,1.078125 -11.9375,-4.4375 c -0.914063,-0.289062 -1.375,-0.992188 -1.375,-2.109375 z m 0,0"
           id="path64" />
      </g>
    </g>
  </g>
  <g
     fill="#007a78"
     fill-opacity="1"
     id="g70"
     transform="translate(-134.51518,-200.17487)">
    <g
       transform="translate(372.38562,326.33616)"
       id="g69">
      <g
         id="g68">
        <path
           d="m 0.359375,-11.46875 c 0,2.054688 -0.4257812,3.835938 -1.28125,5.34375 -0.851563,1.5 -2.015625,2.65625 -3.484375,3.46875 -1.476562,0.804688 -3.144531,1.203125 -5,1.203125 -2.164062,0 -4.015625,-0.4375 -5.546875,-1.3125 -1.53125,-0.882813 -2.707031,-2.035156 -3.53125,-3.453125 -0.820313,-1.425781 -1.234375,-2.9375 -1.234375,-4.53125 0,-1.226562 0.257812,-2.390625 0.765625,-3.484375 0.511719,-1.09375 1.210937,-2.0625 2.09375,-2.90625 0.875,-0.84375 1.890625,-1.507813 3.046875,-2 1.15625,-0.5 2.386719,-0.75 3.6875,-0.75 0.574219,0.02344 1.042969,0.25 1.40625,0.6875 0.367188,0.429687 0.546875,0.933594 0.546875,1.515625 V -3.875 l -3.625,1.09375 V -16.0625 l 0.734375,0.796875 h -0.984375 c -0.695313,0.05469 -1.320313,0.304687 -1.875,0.75 -0.5625,0.4375 -1.003906,0.992187 -1.328125,1.65625 -0.320312,0.667969 -0.484375,1.371094 -0.484375,2.109375 0,0.730469 0.101563,1.40625 0.296875,2.03125 0.1875,0.625 0.511719,1.167969 0.96875,1.625 0.460938,0.460938 1.074219,0.824219 1.84375,1.09375 0.773438,0.261719 1.75,0.390625 2.9375,0.390625 1.304688,0 2.40625,-0.269531 3.3125,-0.8125 0.898438,-0.539063 1.578125,-1.238281 2.046875,-2.09375 C -3.859375,-9.367188 -3.625,-10.28125 -3.625,-11.25 c 0,-0.894531 -0.066406,-1.601562 -0.203125,-2.125 -0.144531,-0.53125 -0.320313,-0.957031 -0.53125,-1.28125 -0.207031,-0.332031 -0.382813,-0.628906 -0.53125,-0.890625 -0.207031,-0.4375 -0.3125,-0.847656 -0.3125,-1.234375 0,-0.53125 0.183594,-0.96875 0.546875,-1.3125 0.355469,-0.351562 0.773438,-0.53125 1.25,-0.53125 0.65625,0 1.25,0.339844 1.78125,1.015625 0.53125,0.625 0.996094,1.507813 1.390625,2.640625 0.394531,1.125 0.59375,2.292969 0.59375,3.5 z m 0,0"
           id="path67" />
      </g>
    </g>
  </g>
  <g
     fill="#007a78"
     fill-opacity="1"
     id="g73"
     transform="translate(-134.51518,-200.17487)">
    <g
       transform="translate(372.38562,304.99646)"
       id="g72">
      <g
         id="g71">
        <path
           d="m 0,-4.515625 c 0,0.625 -0.207031,1.148437 -0.625,1.5625 -0.425781,0.40625 -0.953125,0.609375 -1.578125,0.609375 h -14.9375 c -0.632813,0 -1.160156,-0.203125 -1.578125,-0.609375 -0.425781,-0.414063 -0.640625,-0.9375 -0.640625,-1.5625 0,-0.632813 0.214844,-1.15625 0.640625,-1.5625 0.417969,-0.40625 0.945312,-0.609375 1.578125,-0.609375 H -13.75 l -2.421875,0.25 c -0.570313,-0.269531 -1.082031,-0.613281 -1.53125,-1.03125 -0.445313,-0.425781 -0.820313,-0.898438 -1.125,-1.421875 -0.300781,-0.53125 -0.523437,-1.097656 -0.671875,-1.703125 -0.144531,-0.601562 -0.21875,-1.207031 -0.21875,-1.8125 0,-0.71875 0.210938,-1.320312 0.625,-1.8125 0.40625,-0.5 0.886719,-0.75 1.4375,-0.75 0.804688,0 1.382812,0.203125 1.734375,0.609375 0.34375,0.40625 0.515625,0.855469 0.515625,1.34375 0,0.460937 -0.08203,0.875 -0.25,1.25 -0.175781,0.367187 -0.265625,0.792969 -0.265625,1.28125 0,0.429687 0.105469,0.867187 0.3125,1.3125 0.210937,0.449219 0.53125,0.859375 0.96875,1.234375 0.429687,0.375 0.964844,0.679688 1.609375,0.90625 0.636719,0.230469 1.386719,0.34375 2.25,0.34375 h 8.578125 c 0.625,0 1.152344,0.203125 1.578125,0.609375 0.417969,0.40625 0.625,0.929687 0.625,1.5625 z m 0,0"
           id="path70" />
      </g>
    </g>
  </g>
  <g
     fill="#007a78"
     fill-opacity="1"
     id="g76"
     transform="translate(-134.51518,-200.17487)">
    <g
       transform="translate(472.92041,400.30775)"
       id="g75">
      <g
         id="g74">
        <path
           d="M -15.46875,-20.21875 0.671875,-3.078125 C 0.847656,-2.898438 0.953125,-2.707031 0.984375,-2.5 1.023438,-2.289062 1,-2.085938 0.90625,-1.890625 0.769531,-1.585938 0.582031,-1.394531 0.34375,-1.3125 c -0.230469,0.085938 -0.472656,0.078125 -0.734375,-0.015625 -0.113281,-0.03125 -0.238281,-0.101563 -0.375,-0.21875 l -17.1875,-18.484375 c -0.1875,-0.21875 -0.289063,-0.429688 -0.3125,-0.640625 -0.03125,-0.207031 0.0078,-0.421875 0.109375,-0.640625 0.105469,-0.21875 0.257812,-0.378906 0.453125,-0.484375 0.1875,-0.113281 0.402344,-0.164063 0.640625,-0.15625 l 25.109375,1.125 c 0.144531,0.01172 0.285156,0.04687 0.421875,0.109375 0.3125,0.148438 0.5,0.355469 0.5625,0.625 0.070312,0.273438 0.046875,0.542969 -0.078125,0.8125 -0.09375,0.21875 -0.242187,0.382812 -0.4375,0.484375 -0.199219,0.105469 -0.417969,0.164063 -0.65625,0.171875 l -23.75,-1.09375 z m 11,12.46875 -1.546875,-1.734375 4.71875,-10.1875 2.09375,0.53125 z m 0,0"
           id="path73" />
      </g>
    </g>
  </g>
  <g
     fill="#007a78"
     fill-opacity="1"
     id="g79"
     transform="translate(-134.51518,-200.17487)">
    <g
       transform="translate(482.74552,379.06889)"
       id="g78">
      <g
         id="g77">
        <path
           d="m -1.90625,-2.875 c -0.332031,0.0625 -0.625,0.027344 -0.875,-0.109375 -0.25,-0.132813 -0.394531,-0.363281 -0.4375,-0.6875 -0.0625,-0.25 -0.03125,-0.476563 0.09375,-0.6875 0.125,-0.21875 0.335938,-0.378906 0.625,-0.484375 1.054688,-0.238281 2.007812,-0.671875 2.859375,-1.296875 0.851563,-0.632813 1.550781,-1.53125 2.09375,-2.6875 0.28125,-0.613281 0.457031,-1.269531 0.53125,-1.96875 0.070313,-0.695313 -0.015625,-1.335937 -0.265625,-1.921875 -0.242188,-0.59375 -0.6875,-1.046875 -1.34375,-1.359375 -0.679688,-0.300781 -1.3125,-0.351563 -1.90625,-0.15625 -0.601562,0.199219 -1.171875,0.554687 -1.703125,1.0625 -0.53125,0.511719 -1.046875,1.074219 -1.546875,1.6875 -0.539062,0.667969 -1.097656,1.292969 -1.671875,1.875 -0.570313,0.574219 -1.175781,1.042969 -1.8125,1.40625 -0.632813,0.355469 -1.300781,0.574219 -2,0.65625 -0.695313,0.074219 -1.4375,-0.070313 -2.21875,-0.4375 -0.925781,-0.425781 -1.617187,-1.050781 -2.078125,-1.875 -0.46875,-0.832031 -0.703125,-1.769531 -0.703125,-2.8125 0,-1.039063 0.257813,-2.109375 0.765625,-3.203125 0.25,-0.550781 0.59375,-1.109375 1.03125,-1.671875 0.4375,-0.570313 0.964844,-1.085937 1.578125,-1.546875 0.617187,-0.457031 1.320313,-0.800781 2.109375,-1.03125 0.292969,-0.101562 0.5625,-0.09766 0.8125,0.01563 0.25,0.117187 0.421875,0.328125 0.515625,0.640625 0.054687,0.242188 0.027344,0.480469 -0.078125,0.71875 -0.113281,0.230469 -0.289062,0.375 -0.53125,0.4375 -0.820312,0.242188 -1.554688,0.652344 -2.203125,1.234375 -0.644531,0.585937 -1.160156,1.292969 -1.546875,2.125 -0.289062,0.636719 -0.460938,1.28125 -0.515625,1.9375 -0.05078,0.65625 0.04297,1.273437 0.28125,1.84375 0.242187,0.5625 0.703125,1 1.390625,1.3125 0.667969,0.242187 1.289062,0.25 1.859375,0.03125 0.574219,-0.21875 1.152344,-0.601563 1.734375,-1.15625 0.574219,-0.550781 1.164062,-1.191406 1.765625,-1.921875 0.492187,-0.613281 1.007813,-1.1875 1.546875,-1.71875 0.53125,-0.53125 1.09375,-0.957031 1.6875,-1.28125 0.59375,-0.332031 1.230469,-0.519531 1.90625,-0.5625 0.675781,-0.03906 1.429688,0.132812 2.265625,0.515625 0.96875,0.4375 1.675781,1.089844 2.125,1.953125 0.445313,0.855469 0.648437,1.820312 0.609375,2.890625 -0.03125,1.074219 -0.304688,2.15625 -0.8125,3.25 -0.542969,1.1875 -1.304688,2.230469 -2.28125,3.125 -0.96875,0.886719 -2.1875,1.507813 -3.65625,1.859375 z m 0,0"
           id="path76" />
      </g>
    </g>
  </g>
  <g
     fill="#007a78"
     fill-opacity="1"
     id="g82"
     transform="translate(-134.51518,-200.17487)">
    <g
       transform="translate(489.86758,363.67317)"
       id="g81">
      <g
         id="g80">
        <path
           d="m -1.90625,-2.875 c -0.332031,0.0625 -0.625,0.027344 -0.875,-0.109375 -0.25,-0.132813 -0.394531,-0.363281 -0.4375,-0.6875 -0.0625,-0.25 -0.03125,-0.476563 0.09375,-0.6875 0.125,-0.21875 0.335938,-0.378906 0.625,-0.484375 1.054688,-0.238281 2.007812,-0.671875 2.859375,-1.296875 0.851563,-0.632813 1.550781,-1.53125 2.09375,-2.6875 0.28125,-0.613281 0.457031,-1.269531 0.53125,-1.96875 0.070313,-0.695313 -0.015625,-1.335937 -0.265625,-1.921875 -0.242188,-0.59375 -0.6875,-1.046875 -1.34375,-1.359375 -0.679688,-0.300781 -1.3125,-0.351563 -1.90625,-0.15625 -0.601562,0.199219 -1.171875,0.554687 -1.703125,1.0625 -0.53125,0.511719 -1.046875,1.074219 -1.546875,1.6875 -0.539062,0.667969 -1.097656,1.292969 -1.671875,1.875 -0.570313,0.574219 -1.175781,1.042969 -1.8125,1.40625 -0.632813,0.355469 -1.300781,0.574219 -2,0.65625 -0.695313,0.074219 -1.4375,-0.070313 -2.21875,-0.4375 -0.925781,-0.425781 -1.617187,-1.050781 -2.078125,-1.875 -0.46875,-0.832031 -0.703125,-1.769531 -0.703125,-2.8125 0,-1.039063 0.257813,-2.109375 0.765625,-3.203125 0.25,-0.550781 0.59375,-1.109375 1.03125,-1.671875 0.4375,-0.570313 0.964844,-1.085937 1.578125,-1.546875 0.617187,-0.457031 1.320313,-0.800781 2.109375,-1.03125 0.292969,-0.101562 0.5625,-0.09766 0.8125,0.01563 0.25,0.117187 0.421875,0.328125 0.515625,0.640625 0.054687,0.242188 0.027344,0.480469 -0.078125,0.71875 -0.113281,0.230469 -0.289062,0.375 -0.53125,0.4375 -0.820312,0.242188 -1.554688,0.652344 -2.203125,1.234375 -0.644531,0.585937 -1.160156,1.292969 -1.546875,2.125 -0.289062,0.636719 -0.460938,1.28125 -0.515625,1.9375 -0.05078,0.65625 0.04297,1.273437 0.28125,1.84375 0.242187,0.5625 0.703125,1 1.390625,1.3125 0.667969,0.242187 1.289062,0.25 1.859375,0.03125 0.574219,-0.21875 1.152344,-0.601563 1.734375,-1.15625 0.574219,-0.550781 1.164062,-1.191406 1.765625,-1.921875 0.492187,-0.613281 1.007813,-1.1875 1.546875,-1.71875 0.53125,-0.53125 1.09375,-0.957031 1.6875,-1.28125 0.59375,-0.332031 1.230469,-0.519531 1.90625,-0.5625 0.675781,-0.03906 1.429688,0.132812 2.265625,0.515625 0.96875,0.4375 1.675781,1.089844 2.125,1.953125 0.445313,0.855469 0.648437,1.820312 0.609375,2.890625 -0.03125,1.074219 -0.304688,2.15625 -0.8125,3.25 -0.542969,1.1875 -1.304688,2.230469 -2.28125,3.125 -0.96875,0.886719 -2.1875,1.507813 -3.65625,1.859375 z m 0,0"
           id="path79" />
      </g>
    </g>
  </g>
  <g
     fill="#007a78"
     fill-opacity="1"
     id="g85"
     transform="translate(-134.51518,-200.17487)">
    <g
       transform="translate(496.98965,348.27745)"
       id="g84">
      <g
         id="g83">
        <path
           d="M 5.03125,-10.03125 C 4.25,-8.332031 3.195312,-7.003906 1.875,-6.046875 0.5625,-5.097656 -0.90625,-4.5625 -2.53125,-4.4375 -4.164062,-4.3125 -5.847656,-4.648438 -7.578125,-5.453125 -9.429688,-6.304688 -10.84375,-7.40625 -11.8125,-8.75 c -0.96875,-1.34375 -1.535156,-2.757812 -1.703125,-4.25 -0.175781,-1.5 0.03906,-2.90625 0.640625,-4.21875 0.449219,-0.96875 1.054688,-1.828125 1.8125,-2.578125 0.75,-0.75 1.625,-1.328125 2.625,-1.734375 1,-0.40625 2.085938,-0.597656 3.25,-0.578125 1.15625,0.02344 2.382812,0.296875 3.671875,0.828125 0.242187,0.15625 0.414063,0.375 0.515625,0.65625 0.09375,0.273438 0.078125,0.542969 -0.046875,0.8125 L -7.140625,-6.640625 -9.09375,-7.078125 -3.109375,-20 l 0.203125,0.59375 -0.65625,-0.296875 c -1.070312,-0.382813 -2.097656,-0.457031 -3.078125,-0.21875 -0.988281,0.230469 -1.851563,0.664063 -2.59375,1.296875 -0.75,0.636719 -1.328125,1.398438 -1.734375,2.28125 -0.300781,0.648438 -0.476562,1.375 -0.53125,2.1875 -0.0625,0.8125 0.05859,1.632812 0.359375,2.453125 0.292969,0.8125 0.792969,1.59375 1.5,2.34375 0.710937,0.75 1.652344,1.398437 2.828125,1.9375 1.292969,0.605469 2.589844,0.886719 3.890625,0.84375 1.292969,-0.039063 2.476563,-0.414063 3.546875,-1.125 1.070312,-0.707031 1.925781,-1.753906 2.5625,-3.140625 0.351562,-0.757812 0.5625,-1.492188 0.625,-2.203125 C 3.875,-13.765625 3.832031,-14.4375 3.6875,-15.0625 3.539062,-15.6875 3.335938,-16.25 3.078125,-16.75 2.992188,-17.082031 3.007812,-17.375 3.125,-17.625 c 0.09375,-0.21875 0.265625,-0.363281 0.515625,-0.4375 0.257813,-0.07031 0.492187,-0.05469 0.703125,0.04687 0.269531,0.117187 0.453125,0.324219 0.546875,0.625 0.476563,1.023437 0.765625,2.195313 0.859375,3.515625 0.101562,1.324219 -0.136719,2.605469 -0.71875,3.84375 z m 0,0"
           id="path82" />
      </g>
    </g>
  </g>
  <g
     fill="#007a78"
     fill-opacity="1"
     id="g88"
     transform="translate(-134.51518,-200.17487)">
    <g
       transform="translate(505.56953,329.73038)"
       id="g87">
      <g
         id="g86">
        <path
           d="m -1.90625,-2.875 c -0.332031,0.0625 -0.625,0.027344 -0.875,-0.109375 -0.25,-0.132813 -0.394531,-0.363281 -0.4375,-0.6875 -0.0625,-0.25 -0.03125,-0.476563 0.09375,-0.6875 0.125,-0.21875 0.335938,-0.378906 0.625,-0.484375 1.054688,-0.238281 2.007812,-0.671875 2.859375,-1.296875 0.851563,-0.632813 1.550781,-1.53125 2.09375,-2.6875 0.28125,-0.613281 0.457031,-1.269531 0.53125,-1.96875 0.070313,-0.695313 -0.015625,-1.335937 -0.265625,-1.921875 -0.242188,-0.59375 -0.6875,-1.046875 -1.34375,-1.359375 -0.679688,-0.300781 -1.3125,-0.351563 -1.90625,-0.15625 -0.601562,0.199219 -1.171875,0.554687 -1.703125,1.0625 -0.53125,0.511719 -1.046875,1.074219 -1.546875,1.6875 -0.539062,0.667969 -1.097656,1.292969 -1.671875,1.875 -0.570313,0.574219 -1.175781,1.042969 -1.8125,1.40625 -0.632813,0.355469 -1.300781,0.574219 -2,0.65625 -0.695313,0.074219 -1.4375,-0.070313 -2.21875,-0.4375 -0.925781,-0.425781 -1.617187,-1.050781 -2.078125,-1.875 -0.46875,-0.832031 -0.703125,-1.769531 -0.703125,-2.8125 0,-1.039063 0.257813,-2.109375 0.765625,-3.203125 0.25,-0.550781 0.59375,-1.109375 1.03125,-1.671875 0.4375,-0.570313 0.964844,-1.085937 1.578125,-1.546875 0.617187,-0.457031 1.320313,-0.800781 2.109375,-1.03125 0.292969,-0.101562 0.5625,-0.09766 0.8125,0.01563 0.25,0.117187 0.421875,0.328125 0.515625,0.640625 0.054687,0.242188 0.027344,0.480469 -0.078125,0.71875 -0.113281,0.230469 -0.289062,0.375 -0.53125,0.4375 -0.820312,0.242188 -1.554688,0.652344 -2.203125,1.234375 -0.644531,0.585937 -1.160156,1.292969 -1.546875,2.125 -0.289062,0.636719 -0.460938,1.28125 -0.515625,1.9375 -0.05078,0.65625 0.04297,1.273437 0.28125,1.84375 0.242187,0.5625 0.703125,1 1.390625,1.3125 0.667969,0.242187 1.289062,0.25 1.859375,0.03125 0.574219,-0.21875 1.152344,-0.601563 1.734375,-1.15625 0.574219,-0.550781 1.164062,-1.191406 1.765625,-1.921875 0.492187,-0.613281 1.007813,-1.1875 1.546875,-1.71875 0.53125,-0.53125 1.09375,-0.957031 1.6875,-1.28125 0.59375,-0.332031 1.230469,-0.519531 1.90625,-0.5625 0.675781,-0.03906 1.429688,0.132812 2.265625,0.515625 0.96875,0.4375 1.675781,1.089844 2.125,1.953125 0.445313,0.855469 0.648437,1.820312 0.609375,2.890625 -0.03125,1.074219 -0.304688,2.15625 -0.8125,3.25 -0.542969,1.1875 -1.304688,2.230469 -2.28125,3.125 -0.96875,0.886719 -2.1875,1.507813 -3.65625,1.859375 z m 0,0"
           id="path85" />
      </g>
    </g>
  </g>
  <g
     fill="#007a78"
     fill-opacity="1"
     id="g91"
     transform="translate(-134.51518,-200.17487)">
    <g
       transform="translate(512.6916,314.33466)"
       id="g90">
      <g
         id="g89">
        <path
           d="m -1.90625,-2.875 c -0.332031,0.0625 -0.625,0.027344 -0.875,-0.109375 -0.25,-0.132813 -0.394531,-0.363281 -0.4375,-0.6875 -0.0625,-0.25 -0.03125,-0.476563 0.09375,-0.6875 0.125,-0.21875 0.335938,-0.378906 0.625,-0.484375 1.054688,-0.238281 2.007812,-0.671875 2.859375,-1.296875 0.851563,-0.632813 1.550781,-1.53125 2.09375,-2.6875 0.28125,-0.613281 0.457031,-1.269531 0.53125,-1.96875 0.070313,-0.695313 -0.015625,-1.335937 -0.265625,-1.921875 -0.242188,-0.59375 -0.6875,-1.046875 -1.34375,-1.359375 -0.679688,-0.300781 -1.3125,-0.351563 -1.90625,-0.15625 -0.601562,0.199219 -1.171875,0.554687 -1.703125,1.0625 -0.53125,0.511719 -1.046875,1.074219 -1.546875,1.6875 -0.539062,0.667969 -1.097656,1.292969 -1.671875,1.875 -0.570313,0.574219 -1.175781,1.042969 -1.8125,1.40625 -0.632813,0.355469 -1.300781,0.574219 -2,0.65625 -0.695313,0.074219 -1.4375,-0.070313 -2.21875,-0.4375 -0.925781,-0.425781 -1.617187,-1.050781 -2.078125,-1.875 -0.46875,-0.832031 -0.703125,-1.769531 -0.703125,-2.8125 0,-1.039063 0.257813,-2.109375 0.765625,-3.203125 0.25,-0.550781 0.59375,-1.109375 1.03125,-1.671875 0.4375,-0.570313 0.964844,-1.085937 1.578125,-1.546875 0.617187,-0.457031 1.320313,-0.800781 2.109375,-1.03125 0.292969,-0.101562 0.5625,-0.09766 0.8125,0.01563 0.25,0.117187 0.421875,0.328125 0.515625,0.640625 0.054687,0.242188 0.027344,0.480469 -0.078125,0.71875 -0.113281,0.230469 -0.289062,0.375 -0.53125,0.4375 -0.820312,0.242188 -1.554688,0.652344 -2.203125,1.234375 -0.644531,0.585937 -1.160156,1.292969 -1.546875,2.125 -0.289062,0.636719 -0.460938,1.28125 -0.515625,1.9375 -0.05078,0.65625 0.04297,1.273437 0.28125,1.84375 0.242187,0.5625 0.703125,1 1.390625,1.3125 0.667969,0.242187 1.289062,0.25 1.859375,0.03125 0.574219,-0.21875 1.152344,-0.601563 1.734375,-1.15625 0.574219,-0.550781 1.164062,-1.191406 1.765625,-1.921875 0.492187,-0.613281 1.007813,-1.1875 1.546875,-1.71875 0.53125,-0.53125 1.09375,-0.957031 1.6875,-1.28125 0.59375,-0.332031 1.230469,-0.519531 1.90625,-0.5625 0.675781,-0.03906 1.429688,0.132812 2.265625,0.515625 0.96875,0.4375 1.675781,1.089844 2.125,1.953125 0.445313,0.855469 0.648437,1.820312 0.609375,2.890625 -0.03125,1.074219 -0.304688,2.15625 -0.8125,3.25 -0.542969,1.1875 -1.304688,2.230469 -2.28125,3.125 -0.96875,0.886719 -2.1875,1.507813 -3.65625,1.859375 z m 0,0"
           id="path88" />
      </g>
    </g>
  </g>
  <g
     fill="#007a78"
     fill-opacity="1"
     id="g94"
     transform="translate(-134.51518,-200.17487)">
    <g
       transform="translate(519.81366,298.93894)"
       id="g93">
      <g
         id="g92">
        <path
           d="m -12.21875,-17.953125 c 0.636719,-1.363281 1.53125,-2.363281 2.6875,-3 1.148438,-0.632813 2.507812,-0.800781 4.078125,-0.5 l -0.078125,0.53125 -0.5,-0.484375 c -0.53125,-0.582031 -0.929688,-1.335938 -1.203125,-2.265625 -0.269531,-0.9375 -0.378906,-1.914063 -0.328125,-2.9375 0.042969,-1.019531 0.265625,-1.96875 0.671875,-2.84375 0.636719,-1.375 1.449219,-2.347656 2.4375,-2.921875 0.980469,-0.570312 2.054687,-0.820312 3.21875,-0.75 1.1679688,0.07422 2.375,0.402344 3.625,0.984375 l 9.296875,4.296875 c 0.257812,0.117188 0.441406,0.320312 0.546875,0.609375 0.113281,0.28125 0.101563,0.5625 -0.03125,0.84375 -0.125,0.28125 -0.335937,0.46875 -0.625,0.5625 -0.28125,0.09375 -0.554687,0.08594 -0.8125,-0.03125 l -9.203125,-4.25 c -0.898438,-0.414063 -1.773438,-0.65625 -2.640625,-0.71875 -0.875,-0.0625 -1.671875,0.117187 -2.390625,0.53125 -0.726562,0.40625 -1.332031,1.125 -1.8125,2.15625 -0.414062,0.898437 -0.59375,1.855469 -0.53125,2.875 0.0625,1.023437 0.351562,1.964844 0.859375,2.828125 0.5,0.855469 1.199219,1.492188 2.09375,1.90625 l 9.203125,4.25 c 0.257812,0.117188 0.441406,0.3125 0.546875,0.59375 0.113281,0.28125 0.101563,0.570312 -0.03125,0.859375 -0.125,0.28125 -0.335937,0.46875 -0.625,0.5625 -0.28125,0.08594 -0.554687,0.07031 -0.8125,-0.04687 L -3.875,-18.609375 c -0.894531,-0.414063 -1.757812,-0.65625 -2.59375,-0.71875 -0.84375,-0.07031 -1.617188,0.08984 -2.328125,0.484375 -0.707031,0.398438 -1.289063,1.09375 -1.75,2.09375 -0.414063,0.898438 -0.59375,1.84375 -0.53125,2.84375 0.0625,0.992188 0.339844,1.902344 0.828125,2.734375 0.492188,0.824219 1.183594,1.445313 2.078125,1.859375 L 1.125,-5.015625 C 1.382812,-4.898438 1.566406,-4.695312 1.671875,-4.40625 1.785156,-4.113281 1.78125,-3.835938 1.65625,-3.578125 1.507812,-3.273438 1.296875,-3.082031 1.015625,-3 0.742188,-2.914062 0.476562,-2.929688 0.21875,-3.046875 L -14.5,-9.859375 c -0.25,-0.113281 -0.429688,-0.304687 -0.546875,-0.578125 -0.113281,-0.28125 -0.101563,-0.566406 0.03125,-0.859375 0.125,-0.28125 0.335937,-0.46875 0.625,-0.5625 0.28125,-0.09375 0.546875,-0.08203 0.796875,0.03125 l 3.0625,1.421875 0.796875,1.453125 C -10.347656,-9.316406 -10.898438,-9.832031 -11.390625,-10.5 -11.878906,-11.175781 -12.25,-11.929688 -12.5,-12.765625 c -0.257812,-0.832031 -0.375,-1.695313 -0.34375,-2.59375 0.03125,-0.894531 0.242188,-1.757813 0.625,-2.59375 z m 0,0"
           id="path91" />
      </g>
    </g>
  </g>
  <g
     fill="#007a78"
     fill-opacity="1"
     id="g97"
     transform="translate(-134.51518,-200.17487)">
    <g
       transform="translate(533.66297,269.001)"
       id="g96">
      <g
         id="g95">
        <path
           d="M 5.03125,-10.03125 C 4.25,-8.332031 3.195312,-7.003906 1.875,-6.046875 0.5625,-5.097656 -0.90625,-4.5625 -2.53125,-4.4375 -4.164062,-4.3125 -5.847656,-4.648438 -7.578125,-5.453125 -9.429688,-6.304688 -10.84375,-7.40625 -11.8125,-8.75 c -0.96875,-1.34375 -1.535156,-2.757812 -1.703125,-4.25 -0.175781,-1.5 0.03906,-2.90625 0.640625,-4.21875 0.449219,-0.96875 1.054688,-1.828125 1.8125,-2.578125 0.75,-0.75 1.625,-1.328125 2.625,-1.734375 1,-0.40625 2.085938,-0.597656 3.25,-0.578125 1.15625,0.02344 2.382812,0.296875 3.671875,0.828125 0.242187,0.15625 0.414063,0.375 0.515625,0.65625 0.09375,0.273438 0.078125,0.542969 -0.046875,0.8125 L -7.140625,-6.640625 -9.09375,-7.078125 -3.109375,-20 l 0.203125,0.59375 -0.65625,-0.296875 c -1.070312,-0.382813 -2.097656,-0.457031 -3.078125,-0.21875 -0.988281,0.230469 -1.851563,0.664063 -2.59375,1.296875 -0.75,0.636719 -1.328125,1.398438 -1.734375,2.28125 -0.300781,0.648438 -0.476562,1.375 -0.53125,2.1875 -0.0625,0.8125 0.05859,1.632812 0.359375,2.453125 0.292969,0.8125 0.792969,1.59375 1.5,2.34375 0.710937,0.75 1.652344,1.398437 2.828125,1.9375 1.292969,0.605469 2.589844,0.886719 3.890625,0.84375 1.292969,-0.039063 2.476563,-0.414063 3.546875,-1.125 1.070312,-0.707031 1.925781,-1.753906 2.5625,-3.140625 0.351562,-0.757812 0.5625,-1.492188 0.625,-2.203125 C 3.875,-13.765625 3.832031,-14.4375 3.6875,-15.0625 3.539062,-15.6875 3.335938,-16.25 3.078125,-16.75 2.992188,-17.082031 3.007812,-17.375 3.125,-17.625 c 0.09375,-0.21875 0.265625,-0.363281 0.515625,-0.4375 0.257813,-0.07031 0.492187,-0.05469 0.703125,0.04687 0.269531,0.117187 0.453125,0.324219 0.546875,0.625 0.476563,1.023437 0.765625,2.195313 0.859375,3.515625 0.101562,1.324219 -0.136719,2.605469 -0.71875,3.84375 z m 0,0"
           id="path94" />
      </g>
    </g>
  </g>
  <g
     fill="#007a78"
     fill-opacity="1"
     id="g100"
     transform="translate(-134.51518,-200.17487)">
    <g
       transform="translate(542.24285,250.45393)"
       id="g99">
      <g
         id="g98">
        <path
           d="m -12.3125,-18.453125 c 0.667969,-1.4375 1.496094,-2.453125 2.484375,-3.046875 0.980469,-0.601562 2.058594,-0.863281 3.234375,-0.78125 1.167969,0.07422 2.351562,0.386719 3.546875,0.9375 l 9.65625,4.46875 c 0.257813,0.117188 0.441406,0.320312 0.546875,0.609375 0.113281,0.292969 0.109375,0.574219 -0.015625,0.84375 -0.148437,0.304687 -0.359375,0.496094 -0.640625,0.578125 -0.273438,0.07422 -0.539062,0.05469 -0.796875,-0.0625 L -3.84375,-19.328125 C -4.726562,-19.734375 -5.597656,-19.957031 -6.453125,-20 c -0.863281,-0.03906 -1.660156,0.15625 -2.390625,0.59375 -0.726562,0.4375 -1.332031,1.183594 -1.8125,2.234375 -0.4375,0.9375 -0.632812,1.933594 -0.59375,2.984375 0.04297,1.042969 0.304688,1.996094 0.78125,2.859375 0.480469,0.855469 1.164062,1.484375 2.046875,1.890625 L 1.125,-5.015625 C 1.382812,-4.898438 1.566406,-4.695312 1.671875,-4.40625 1.785156,-4.113281 1.78125,-3.835938 1.65625,-3.578125 1.507812,-3.273438 1.296875,-3.082031 1.015625,-3 0.742188,-2.914062 0.476562,-2.929688 0.21875,-3.046875 L -14.5,-9.859375 c -0.25,-0.113281 -0.429688,-0.304687 -0.546875,-0.578125 -0.113281,-0.28125 -0.101563,-0.566406 0.03125,-0.859375 0.125,-0.28125 0.335937,-0.46875 0.625,-0.5625 0.28125,-0.09375 0.546875,-0.08203 0.796875,0.03125 l 2.765625,1.28125 0.84375,1.296875 c -0.6875,-0.363281 -1.253906,-0.894531 -1.703125,-1.59375 -0.457031,-0.707031 -0.796875,-1.492188 -1.015625,-2.359375 -0.226563,-0.875 -0.3125,-1.765625 -0.25,-2.671875 0.0625,-0.914062 0.277344,-1.773438 0.640625,-2.578125 z m 0,0"
           id="path97" />
      </g>
    </g>
  </g>
  <g
     fill="#007a78"
     fill-opacity="1"
     id="g103"
     transform="translate(-134.51518,-200.17487)">
    <g
       transform="translate(551.02015,231.4801)"
       id="g102">
      <g
         id="g101">
        <path
           d="m -16,-9.234375 3.53125,-7.65625 c 0.125,-0.269531 0.324219,-0.445313 0.59375,-0.53125 0.261719,-0.08203 0.527344,-0.0625 0.796875,0.0625 0.230469,0.105469 0.390625,0.289063 0.484375,0.546875 0.09375,0.25 0.07813,0.511719 -0.04687,0.78125 l -3.53125,7.65625 c -0.125,0.25 -0.320313,0.429688 -0.59375,0.53125 -0.269531,0.105469 -0.53125,0.101562 -0.78125,-0.015625 -0.257813,-0.113281 -0.429687,-0.304687 -0.515625,-0.578125 -0.08203,-0.28125 -0.0625,-0.546875 0.0625,-0.796875 z m -3.078125,-5.53125 c 0.125,-0.28125 0.335937,-0.46875 0.625,-0.5625 0.28125,-0.09375 0.558594,-0.07813 0.828125,0.04687 l 16.46875,7.609375 c 0.617188,0.292969 1.109375,0.429687 1.484375,0.40625 0.382813,-0.03125 0.6875,-0.15625 0.90625,-0.375 0.21875,-0.21875 0.382813,-0.457031 0.5,-0.71875 0.082031,-0.175781 0.128906,-0.34375 0.140625,-0.5 0.019531,-0.164063 0.070312,-0.34375 0.15625,-0.53125 0.082031,-0.1875 0.234375,-0.316406 0.453125,-0.390625 0.21875,-0.082031 0.453125,-0.066406 0.703125,0.046875 0.300781,0.148437 0.472656,0.445313 0.515625,0.890625 0.050781,0.449219 -0.03125,0.914062 -0.25,1.390625 -0.09375,0.199219 -0.25,0.492187 -0.46875,0.875 -0.210937,0.375 -0.515625,0.726563 -0.921875,1.046875 -0.398438,0.324219 -0.921875,0.5 -1.578125,0.53125 -0.65625,0.023438 -1.472656,-0.195312 -2.453125,-0.65625 l -16.578125,-7.65625 c -0.269531,-0.125 -0.457031,-0.328125 -0.5625,-0.609375 -0.113281,-0.28125 -0.101563,-0.5625 0.03125,-0.84375 z m 0,0"
           id="path100" />
      </g>
    </g>
  </g>
</svg>
