<svg xmlns="http://www.w3.org/2000/svg" xmlns:xlink="http://www.w3.org/1999/xlink" width="842" zoomAndPan="magnify" viewBox="0 0 631.5 402.749983" height="537" preserveAspectRatio="xMidYMid meet" version="1.0"><defs><g/><clipPath id="e4fb65de9a"><path d="M 103.671875 160.910156 L 168.292969 160.910156 L 168.292969 217.808594 L 103.671875 217.808594 Z M 103.671875 160.910156 " clip-rule="nonzero"/></clipPath><clipPath id="99df6acd76"><path d="M 284.527344 192.542969 L 370.679688 192.542969 L 370.679688 267.816406 L 284.527344 267.816406 Z M 284.527344 192.542969 " clip-rule="nonzero"/></clipPath><clipPath id="29faf31701"><path d="M 327.539062 192.542969 L 370.554688 267.816406 L 284.527344 267.816406 Z M 327.539062 192.542969 " clip-rule="nonzero"/></clipPath><clipPath id="a5783df49a"><path d="M 114.757812 147.394531 L 157.191406 147.394531 L 157.191406 232.261719 L 114.757812 232.261719 Z M 114.757812 147.394531 " clip-rule="nonzero"/></clipPath><clipPath id="a598a32938"><path d="M 157.191406 211.046875 C 157.191406 222.761719 147.691406 232.261719 135.972656 232.261719 C 124.253906 232.261719 114.757812 222.761719 114.757812 211.046875 L 114.757812 168.613281 C 114.757812 156.894531 124.253906 147.394531 135.972656 147.394531 C 147.691406 147.394531 157.191406 156.894531 157.191406 168.613281 Z M 157.191406 211.046875 " clip-rule="nonzero"/></clipPath><clipPath id="c107466654"><path d="M 315.714844 165.160156 L 340.378906 165.160156 L 340.378906 214.496094 L 315.714844 214.496094 Z M 315.714844 165.160156 " clip-rule="nonzero"/></clipPath><clipPath id="cfbe1db418"><path d="M 340.378906 202.160156 C 340.378906 208.972656 334.859375 214.496094 328.046875 214.496094 C 321.234375 214.496094 315.714844 208.972656 315.714844 202.160156 L 315.714844 177.496094 C 315.714844 170.683594 321.234375 165.160156 328.046875 165.160156 C 334.859375 165.160156 340.378906 170.683594 340.378906 177.496094 Z M 340.378906 202.160156 " clip-rule="nonzero"/></clipPath><clipPath id="2a16fd11cf"><path d="M 221.199219 161.976562 L 251.769531 161.976562 L 251.769531 223.113281 L 221.199219 223.113281 Z M 221.199219 161.976562 " clip-rule="nonzero"/></clipPath><clipPath id="fe1aaf75b8"><path d="M 251.769531 207.828125 C 251.769531 216.269531 244.925781 223.113281 236.484375 223.113281 C 228.042969 223.113281 221.199219 216.269531 221.199219 207.828125 L 221.199219 177.261719 C 221.199219 168.820312 228.042969 161.976562 236.484375 161.976562 C 244.925781 161.976562 251.769531 168.820312 251.769531 177.261719 Z M 251.769531 207.828125 " clip-rule="nonzero"/></clipPath><clipPath id="a820bc0a7c"><path d="M 588.007812 149.035156 L 630.441406 149.035156 L 630.441406 233.902344 L 588.007812 233.902344 Z M 588.007812 149.035156 " clip-rule="nonzero"/></clipPath><clipPath id="19f4967469"><path d="M 588.007812 170.253906 C 588.007812 158.535156 597.507812 149.035156 609.226562 149.035156 C 620.945312 149.035156 630.441406 158.535156 630.441406 170.253906 L 630.441406 212.6875 C 630.441406 224.402344 620.945312 233.902344 609.226562 233.902344 C 597.507812 233.902344 588.007812 224.402344 588.007812 212.6875 Z M 588.007812 170.253906 " clip-rule="nonzero"/></clipPath><clipPath id="f00cabfff6"><path d="M 405.378906 165.160156 L 430.042969 165.160156 L 430.042969 214.492188 L 405.378906 214.492188 Z M 405.378906 165.160156 " clip-rule="nonzero"/></clipPath><clipPath id="a2f2bfb5b8"><path d="M 405.378906 177.492188 C 405.378906 170.679688 410.898438 165.160156 417.710938 165.160156 C 424.523438 165.160156 430.042969 170.679688 430.042969 177.492188 L 430.042969 202.160156 C 430.042969 208.972656 424.523438 214.492188 417.710938 214.492188 C 410.898438 214.492188 405.378906 208.972656 405.378906 202.160156 Z M 405.378906 177.492188 " clip-rule="nonzero"/></clipPath><clipPath id="44690f1a69"><path d="M 493.738281 160.902344 L 524.304688 160.902344 L 524.304688 222.039062 L 493.738281 222.039062 Z M 493.738281 160.902344 " clip-rule="nonzero"/></clipPath><clipPath id="f2f90a8a9b"><path d="M 493.738281 176.1875 C 493.738281 167.746094 500.582031 160.902344 509.023438 160.902344 C 517.464844 160.902344 524.304688 167.746094 524.304688 176.1875 L 524.304688 206.753906 C 524.304688 215.195312 517.464844 222.039062 509.023438 222.039062 C 500.582031 222.039062 493.738281 215.195312 493.738281 206.753906 Z M 493.738281 176.1875 " clip-rule="nonzero"/></clipPath></defs><g fill="#ffffff" fill-opacity="1"><g transform="translate(74.104832, 258.114733)"><g><path d="M 38.328125 0 C 33.210938 0 29.378906 -0.226562 26.828125 -0.6875 C 24.273438 -1.144531 22.015625 -2.09375 20.046875 -3.53125 C 15.328125 -6.550781 12.3125 -10.484375 11 -15.328125 C 10.738281 -16.117188 10.578125 -16.875 10.515625 -17.59375 C 10.453125 -18.3125 10.382812 -19.160156 10.3125 -20.140625 C 10.25 -21.128906 10.21875 -22.375 10.21875 -23.875 C 10.21875 -25.382812 10.21875 -27.253906 10.21875 -29.484375 L 10.21875 -101.625 C 10.21875 -104.375 10.21875 -106.566406 10.21875 -108.203125 C 10.21875 -109.847656 10.25 -111.191406 10.3125 -112.234375 C 10.382812 -113.285156 10.484375 -114.101562 10.609375 -114.6875 C 10.742188 -115.28125 10.941406 -115.972656 11.203125 -116.765625 C 14.347656 -126.328125 22.273438 -131.109375 34.984375 -131.109375 L 61.53125 -131.109375 C 71.351562 -131.109375 80.128906 -129.765625 87.859375 -127.078125 C 95.585938 -124.390625 102.664062 -120.164062 109.09375 -114.40625 C 116.039062 -108.238281 121.378906 -100.925781 125.109375 -92.46875 C 128.847656 -84.019531 130.71875 -75.082031 130.71875 -65.65625 C 130.71875 -56.613281 128.878906 -47.894531 125.203125 -39.5 C 121.535156 -31.113281 116.363281 -23.78125 109.6875 -17.5 C 105.488281 -13.5625 100.734375 -10.21875 95.421875 -7.46875 C 90.117188 -4.71875 84.585938 -2.753906 78.828125 -1.578125 C 73.191406 -0.523438 65.785156 0 56.609375 0 Z M 53.46875 -40.296875 C 57.132812 -40.296875 60.210938 -40.359375 62.703125 -40.484375 C 65.191406 -40.617188 67.285156 -40.847656 68.984375 -41.171875 C 70.691406 -41.503906 72.132812 -41.929688 73.3125 -42.453125 C 74.5 -42.984375 75.742188 -43.707031 77.046875 -44.625 C 80.328125 -46.976562 82.914062 -50.019531 84.8125 -53.75 C 86.71875 -57.488281 87.671875 -61.390625 87.671875 -65.453125 C 87.671875 -70.304688 86.390625 -74.765625 83.828125 -78.828125 C 81.273438 -82.890625 77.90625 -85.96875 73.71875 -88.0625 C 71.613281 -89.101562 69.316406 -89.820312 66.828125 -90.21875 C 64.335938 -90.613281 61.0625 -90.8125 57 -90.8125 L 53.46875 -90.8125 Z M 53.46875 -40.296875 "/></g></g></g><g clip-path="url(#e4fb65de9a)"><path fill="#ffffff" d="M 103.671875 160.910156 L 168.34375 160.910156 L 168.34375 217.808594 L 103.671875 217.808594 Z M 103.671875 160.910156 " fill-opacity="1" fill-rule="nonzero"/></g><g clip-path="url(#99df6acd76)"><g clip-path="url(#29faf31701)"><path fill="#ffffff" d="M 284.527344 192.542969 L 370.679688 192.542969 L 370.679688 267.816406 L 284.527344 267.816406 Z M 284.527344 192.542969 " fill-opacity="1" fill-rule="nonzero"/></g></g><g fill="#ffffff" fill-opacity="1"><g transform="translate(260.627373, 266.403171)"><g><path d="M 47.375 -17.09375 C 44.625 -10.675781 41.507812 -6.054688 38.03125 -3.234375 C 34.5625 -0.421875 30.207031 0.984375 24.96875 0.984375 C 21.945312 0.984375 19.125 0.425781 16.5 -0.6875 C 13.882812 -1.800781 11.625 -3.335938 9.71875 -5.296875 C 7.820312 -7.265625 6.316406 -9.5625 5.203125 -12.1875 C 4.085938 -14.8125 3.53125 -17.628906 3.53125 -20.640625 C 3.53125 -24.304688 4.453125 -28.109375 6.296875 -32.046875 L 47.375 -119.109375 C 49.207031 -123.171875 51.890625 -126.347656 55.421875 -128.640625 C 58.960938 -130.941406 62.894531 -132.09375 67.21875 -132.09375 C 71.675781 -132.09375 75.671875 -130.941406 79.203125 -128.640625 C 82.742188 -126.347656 85.5 -123.109375 87.46875 -118.921875 L 128.75 -30.859375 C 130.445312 -27.585938 131.296875 -24.113281 131.296875 -20.4375 C 131.296875 -17.425781 130.707031 -14.640625 129.53125 -12.078125 C 128.351562 -9.523438 126.78125 -7.265625 124.8125 -5.296875 C 122.851562 -3.335938 120.5625 -1.800781 117.9375 -0.6875 C 115.3125 0.425781 112.492188 0.984375 109.484375 0.984375 C 104.503906 0.984375 100.34375 -0.359375 97 -3.046875 C 93.65625 -5.734375 90.476562 -10.414062 87.46875 -17.09375 Z M 73.90625 -48.359375 L 67.21875 -64.078125 L 60.546875 -48.359375 Z M 73.90625 -48.359375 "/></g></g></g><g clip-path="url(#a5783df49a)"><g clip-path="url(#a598a32938)"><path fill="#007a78" d="M 157.191406 147.394531 L 157.191406 232.261719 L 114.757812 232.261719 L 114.757812 147.394531 Z M 157.191406 147.394531 " fill-opacity="1" fill-rule="nonzero"/></g></g><g clip-path="url(#c107466654)"><g clip-path="url(#cfbe1db418)"><path fill="#e3ff00" d="M 340.378906 165.160156 L 340.378906 214.496094 L 315.714844 214.496094 L 315.714844 165.160156 Z M 340.378906 165.160156 " fill-opacity="1" fill-rule="nonzero"/></g></g><g fill="#ffffff" fill-opacity="1"><g transform="translate(179.593509, 276.345)"><g><path d="M 10.21875 -106.140625 C 10.21875 -110.859375 10.644531 -114.523438 11.5 -117.140625 C 12.351562 -119.765625 13.894531 -122.257812 16.125 -124.625 C 18.34375 -126.851562 20.828125 -128.488281 23.578125 -129.53125 C 26.335938 -130.582031 29.75 -131.109375 33.8125 -131.109375 L 51.890625 -131.109375 C 57.128906 -131.109375 61.710938 -130.941406 65.640625 -130.609375 C 69.578125 -130.285156 73.050781 -129.726562 76.0625 -128.9375 C 79.082031 -128.15625 81.867188 -127.140625 84.421875 -125.890625 C 86.972656 -124.648438 89.492188 -123.046875 91.984375 -121.078125 C 97.890625 -116.628906 102.445312 -111.128906 105.65625 -104.578125 C 108.863281 -98.023438 110.46875 -91.078125 110.46875 -83.734375 C 110.46875 -76.398438 108.796875 -69.457031 105.453125 -62.90625 C 102.109375 -56.351562 97.425781 -50.78125 91.40625 -46.1875 C 86.945312 -42.78125 82.359375 -40.351562 77.640625 -38.90625 C 72.921875 -37.46875 67.351562 -36.75 60.9375 -36.75 L 53.65625 -36.75 L 53.65625 -23.984375 C 53.65625 -16.515625 51.691406 -10.484375 47.765625 -5.890625 C 43.835938 -1.304688 38.597656 0.984375 32.046875 0.984375 C 28.367188 0.984375 24.925781 0.0976562 21.71875 -1.671875 C 18.507812 -3.441406 15.921875 -5.832031 13.953125 -8.84375 C 13.171875 -10.15625 12.515625 -11.367188 11.984375 -12.484375 C 11.460938 -13.597656 11.070312 -14.84375 10.8125 -16.21875 C 10.550781 -17.59375 10.382812 -19.328125 10.3125 -21.421875 C 10.25 -23.523438 10.21875 -26.210938 10.21875 -29.484375 Z M 53.65625 -76.859375 C 58.90625 -76.597656 62.609375 -76.988281 64.765625 -78.03125 C 66.929688 -79.082031 68.015625 -81.113281 68.015625 -84.125 C 68.015625 -86.351562 67.09375 -88.054688 65.25 -89.234375 C 63.414062 -90.421875 60.863281 -91.015625 57.59375 -91.015625 L 53.65625 -91.015625 Z M 53.65625 -76.859375 "/></g></g></g><g clip-path="url(#2a16fd11cf)"><g clip-path="url(#fe1aaf75b8)"><path fill="#29afca" d="M 251.769531 161.976562 L 251.769531 223.113281 L 221.199219 223.113281 L 221.199219 161.976562 Z M 251.769531 161.976562 " fill-opacity="1" fill-rule="nonzero"/></g></g><g clip-path="url(#a820bc0a7c)"><g clip-path="url(#19f4967469)"><path fill="#ffffff" d="M 588.007812 233.902344 L 588.007812 149.035156 L 630.441406 149.035156 L 630.441406 233.902344 Z M 588.007812 233.902344 " fill-opacity="1" fill-rule="nonzero"/></g></g><g clip-path="url(#f00cabfff6)"><g clip-path="url(#a2f2bfb5b8)"><path fill="#ffffff" d="M 405.378906 214.492188 L 405.378906 165.160156 L 430.042969 165.160156 L 430.042969 214.492188 Z M 405.378906 214.492188 " fill-opacity="1" fill-rule="nonzero"/></g></g><g clip-path="url(#44690f1a69)"><g clip-path="url(#f2f90a8a9b)"><path fill="#ffffff" d="M 493.738281 222.039062 L 493.738281 160.902344 L 524.304688 160.902344 L 524.304688 222.039062 Z M 493.738281 222.039062 " fill-opacity="1" fill-rule="nonzero"/></g></g></svg>