<?xml version="1.0" encoding="UTF-8" standalone="no"?>
<svg xmlns="http://www.w3.org/2000/svg" xmlns:xlink="http://www.w3.org/1999/xlink" width="550" zoomAndPan="magnify" viewBox="0 0 412.5 135.000003" height="180" preserveAspectRatio="xMidYMid meet" version="1.0"><defs><filter x="0%" y="0%" width="100%" height="100%" id="ebfeaf1928"><feColorMatrix values="0 0 0 0 1 0 0 0 0 1 0 0 0 0 1 0 0 0 1 0" color-interpolation-filters="sRGB"/></filter><g/><clipPath id="4a08326bf4"><path d="M 336.394531 18.304688 L 398.875 18.304688 L 398.875 80.789062 L 336.394531 80.789062 Z M 336.394531 18.304688 " clip-rule="nonzero"/></clipPath><clipPath id="e8ccc5f340"><path d="M 367.632812 18.304688 C 350.378906 18.304688 336.394531 32.292969 336.394531 49.546875 C 336.394531 66.800781 350.378906 80.789062 367.632812 80.789062 C 384.886719 80.789062 398.875 66.800781 398.875 49.546875 C 398.875 32.292969 384.886719 18.304688 367.632812 18.304688 Z M 367.632812 18.304688 " clip-rule="nonzero"/></clipPath><clipPath id="5d25ffe9fa"><path d="M 356 4 L 410.734375 4 L 410.734375 60 L 356 60 Z M 356 4 " clip-rule="nonzero"/></clipPath><mask id="63d8153c96"><g filter="url(#ebfeaf1928)"><rect x="-41.25" width="495" fill="#000000" y="-13.5" height="162.000004" fill-opacity="0.65"/></g></mask><clipPath id="ad943a69dc"><path d="M 6 7 L 49 7 L 49 49 L 6 49 Z M 6 7 " clip-rule="nonzero"/></clipPath><clipPath id="a8beca9f6a"><path d="M 0.332031 17.300781 L 38.328125 0.894531 L 54.734375 38.890625 L 16.738281 55.296875 Z M 0.332031 17.300781 " clip-rule="nonzero"/></clipPath><clipPath id="dbde4d7084"><path d="M 19.332031 9.097656 C 8.839844 13.628906 4.003906 25.808594 8.535156 36.300781 C 13.066406 46.792969 25.246094 51.625 35.738281 47.09375 C 46.230469 42.5625 51.0625 30.386719 46.53125 19.894531 C 42.003906 9.398438 29.824219 4.566406 19.332031 9.097656 Z M 19.332031 9.097656 " clip-rule="nonzero"/></clipPath><clipPath id="02511522d2"><rect x="0" width="55" y="0" height="56"/></clipPath><clipPath id="7beff2d20a"><path d="M 1.269531 79 L 31 79 L 31 114 L 1.269531 114 Z M 1.269531 79 " clip-rule="nonzero"/></clipPath></defs><g clip-path="url(#4a08326bf4)"><g clip-path="url(#e8ccc5f340)"><path fill="#007bff" d="M 336.394531 18.304688 L 398.875 18.304688 L 398.875 80.789062 L 336.394531 80.789062 Z M 336.394531 18.304688 " fill-opacity="1" fill-rule="nonzero"/></g></g><g clip-path="url(#5d25ffe9fa)"><g mask="url(#63d8153c96)"><g transform="matrix(1, 0, 0, 1, 356, 4)"><g clip-path="url(#02511522d2)"><g clip-path="url(#ad943a69dc)"><g clip-path="url(#a8beca9f6a)"><g clip-path="url(#dbde4d7084)"><path fill="#e6f7ff" d="M 0.332031 17.300781 L 38.328125 0.894531 L 54.734375 38.890625 L 16.738281 55.296875 Z M 0.332031 17.300781 " fill-opacity="1" fill-rule="nonzero"/></g></g></g></g></g></g></g><g clip-path="url(#7beff2d20a)"><g fill="#000000" fill-opacity="1"><g transform="translate(1.336163, 112.947801)"><g><path d="M 14.390625 0.328125 C 13.785156 0.328125 13.304688 0.144531 12.953125 -0.21875 C 12.609375 -0.582031 12.4375 -1.082031 12.4375 -1.71875 L 12.4375 -30.3125 L 1.671875 -30.3125 C 1.097656 -30.3125 0.648438 -30.46875 0.328125 -30.78125 C 0.015625 -31.101562 -0.140625 -31.519531 -0.140625 -32.03125 C -0.140625 -32.570312 0.015625 -32.984375 0.328125 -33.265625 C 0.648438 -33.554688 1.097656 -33.703125 1.671875 -33.703125 L 27.15625 -33.703125 C 27.726562 -33.703125 28.171875 -33.554688 28.484375 -33.265625 C 28.804688 -32.984375 28.96875 -32.570312 28.96875 -32.03125 C 28.96875 -31.488281 28.804688 -31.066406 28.484375 -30.765625 C 28.171875 -30.460938 27.726562 -30.3125 27.15625 -30.3125 L 16.40625 -30.3125 L 16.40625 -1.71875 C 16.40625 -1.082031 16.234375 -0.582031 15.890625 -0.21875 C 15.554688 0.144531 15.054688 0.328125 14.390625 0.328125 Z M 14.390625 0.328125 "/></g></g></g></g><g fill="#000000" fill-opacity="1"><g transform="translate(30.115106, 112.947801)"><g><path d="M 10.953125 0.4375 C 9.359375 0.4375 7.929688 0.125 6.671875 -0.5 C 5.410156 -1.125 4.410156 -1.976562 3.671875 -3.0625 C 2.941406 -4.144531 2.578125 -5.351562 2.578125 -6.6875 C 2.578125 -8.414062 3.015625 -9.769531 3.890625 -10.75 C 4.773438 -11.738281 6.226562 -12.441406 8.25 -12.859375 C 10.269531 -13.273438 13.035156 -13.484375 16.546875 -13.484375 L 18.6875 -13.484375 L 18.6875 -10.953125 L 16.59375 -10.953125 C 14.007812 -10.953125 11.972656 -10.832031 10.484375 -10.59375 C 9.003906 -10.351562 7.96875 -9.945312 7.375 -9.375 C 6.789062 -8.800781 6.5 -7.988281 6.5 -6.9375 C 6.5 -5.625 6.953125 -4.550781 7.859375 -3.71875 C 8.773438 -2.894531 10.015625 -2.484375 11.578125 -2.484375 C 12.847656 -2.484375 13.96875 -2.785156 14.9375 -3.390625 C 15.914062 -3.992188 16.679688 -4.820312 17.234375 -5.875 C 17.796875 -6.925781 18.078125 -8.140625 18.078125 -9.515625 L 18.078125 -14.96875 C 18.078125 -16.9375 17.675781 -18.359375 16.875 -19.234375 C 16.082031 -20.117188 14.773438 -20.5625 12.953125 -20.5625 C 11.835938 -20.5625 10.722656 -20.414062 9.609375 -20.125 C 8.492188 -19.84375 7.316406 -19.382812 6.078125 -18.75 C 5.628906 -18.519531 5.242188 -18.441406 4.921875 -18.515625 C 4.609375 -18.597656 4.351562 -18.765625 4.15625 -19.015625 C 3.96875 -19.273438 3.859375 -19.570312 3.828125 -19.90625 C 3.796875 -20.25 3.863281 -20.578125 4.03125 -20.890625 C 4.207031 -21.210938 4.488281 -21.46875 4.875 -21.65625 C 6.28125 -22.351562 7.664062 -22.863281 9.03125 -23.1875 C 10.40625 -23.507812 11.710938 -23.671875 12.953125 -23.671875 C 14.960938 -23.671875 16.617188 -23.34375 17.921875 -22.6875 C 19.234375 -22.03125 20.207031 -21.039062 20.84375 -19.71875 C 21.476562 -18.394531 21.796875 -16.695312 21.796875 -14.625 L 21.796875 -1.671875 C 21.796875 -1.035156 21.644531 -0.539062 21.34375 -0.1875 C 21.039062 0.15625 20.601562 0.328125 20.03125 0.328125 C 19.425781 0.328125 18.960938 0.15625 18.640625 -0.1875 C 18.328125 -0.539062 18.171875 -1.035156 18.171875 -1.671875 L 18.171875 -5.40625 L 18.59375 -5.40625 C 18.34375 -4.1875 17.859375 -3.144531 17.140625 -2.28125 C 16.421875 -1.425781 15.535156 -0.757812 14.484375 -0.28125 C 13.429688 0.195312 12.253906 0.4375 10.953125 0.4375 Z M 10.953125 0.4375 "/></g></g></g><g fill="#000000" fill-opacity="1"><g transform="translate(55.452059, 112.947801)"><g><path d="M 10.703125 0.4375 C 8.410156 0.4375 6.660156 -0.265625 5.453125 -1.671875 C 4.242188 -3.078125 3.640625 -5.085938 3.640625 -7.703125 L 3.640625 -32.078125 C 3.640625 -32.710938 3.796875 -33.195312 4.109375 -33.53125 C 4.429688 -33.875 4.910156 -34.046875 5.546875 -34.046875 C 6.148438 -34.046875 6.625 -33.875 6.96875 -33.53125 C 7.320312 -33.195312 7.5 -32.710938 7.5 -32.078125 L 7.5 -7.984375 C 7.5 -6.265625 7.84375 -4.984375 8.53125 -4.140625 C 9.21875 -3.296875 10.234375 -2.875 11.578125 -2.875 C 11.859375 -2.875 12.109375 -2.890625 12.328125 -2.921875 C 12.554688 -2.953125 12.78125 -2.96875 13 -2.96875 C 13.351562 -3 13.601562 -2.914062 13.75 -2.71875 C 13.894531 -2.53125 13.96875 -2.148438 13.96875 -1.578125 C 13.96875 -1.003906 13.835938 -0.570312 13.578125 -0.28125 C 13.328125 0 12.910156 0.1875 12.328125 0.28125 C 12.078125 0.3125 11.804688 0.34375 11.515625 0.375 C 11.234375 0.414062 10.960938 0.4375 10.703125 0.4375 Z M 10.703125 0.4375 "/></g></g></g><g fill="#000000" fill-opacity="1"><g transform="translate(69.602503, 112.947801)"><g><path d="M 14.109375 0.4375 C 11.648438 0.4375 9.535156 -0.046875 7.765625 -1.015625 C 5.992188 -1.992188 4.625 -3.375 3.65625 -5.15625 C 2.6875 -6.945312 2.203125 -9.085938 2.203125 -11.578125 C 2.203125 -13.992188 2.675781 -16.101562 3.625 -17.90625 C 4.582031 -19.707031 5.898438 -21.117188 7.578125 -22.140625 C 9.253906 -23.160156 11.191406 -23.671875 13.390625 -23.671875 C 14.953125 -23.671875 16.351562 -23.40625 17.59375 -22.875 C 18.832031 -22.351562 19.890625 -21.597656 20.765625 -20.609375 C 21.648438 -19.617188 22.320312 -18.421875 22.78125 -17.015625 C 23.238281 -15.617188 23.46875 -14.039062 23.46875 -12.28125 C 23.46875 -11.769531 23.320312 -11.394531 23.03125 -11.15625 C 22.75 -10.925781 22.335938 -10.8125 21.796875 -10.8125 L 5.15625 -10.8125 L 5.15625 -13.34375 L 20.890625 -13.34375 L 20.125 -12.71875 C 20.125 -14.4375 19.867188 -15.894531 19.359375 -17.09375 C 18.847656 -18.289062 18.109375 -19.207031 17.140625 -19.84375 C 16.171875 -20.476562 14.953125 -20.796875 13.484375 -20.796875 C 11.859375 -20.796875 10.476562 -20.421875 9.34375 -19.671875 C 8.21875 -18.921875 7.363281 -17.882812 6.78125 -16.5625 C 6.207031 -15.238281 5.921875 -13.703125 5.921875 -11.953125 L 5.921875 -11.671875 C 5.921875 -8.734375 6.628906 -6.5 8.046875 -4.96875 C 9.472656 -3.4375 11.492188 -2.671875 14.109375 -2.671875 C 15.191406 -2.671875 16.265625 -2.8125 17.328125 -3.09375 C 18.398438 -3.382812 19.445312 -3.867188 20.46875 -4.546875 C 20.914062 -4.828125 21.320312 -4.957031 21.6875 -4.9375 C 22.050781 -4.925781 22.34375 -4.816406 22.5625 -4.609375 C 22.789062 -4.398438 22.941406 -4.144531 23.015625 -3.84375 C 23.097656 -3.539062 23.066406 -3.210938 22.921875 -2.859375 C 22.773438 -2.515625 22.5 -2.210938 22.09375 -1.953125 C 21.039062 -1.191406 19.796875 -0.601562 18.359375 -0.1875 C 16.921875 0.226562 15.503906 0.4375 14.109375 0.4375 Z M 14.109375 0.4375 "/></g></g></g><g fill="#000000" fill-opacity="1"><g transform="translate(95.035059, 112.947801)"><g><path d="M 5.546875 0.328125 C 4.910156 0.328125 4.429688 0.15625 4.109375 -0.1875 C 3.796875 -0.539062 3.640625 -1.035156 3.640625 -1.671875 L 3.640625 -21.609375 C 3.640625 -22.242188 3.796875 -22.726562 4.109375 -23.0625 C 4.429688 -23.40625 4.894531 -23.578125 5.5 -23.578125 C 6.101562 -23.578125 6.570312 -23.40625 6.90625 -23.0625 C 7.238281 -22.726562 7.40625 -22.242188 7.40625 -21.609375 L 7.40625 -17.5 L 6.890625 -18.078125 C 7.554688 -19.921875 8.644531 -21.3125 10.15625 -22.25 C 11.675781 -23.195312 13.421875 -23.671875 15.390625 -23.671875 C 17.242188 -23.671875 18.78125 -23.332031 20 -22.65625 C 21.226562 -21.988281 22.144531 -20.976562 22.75 -19.625 C 23.363281 -18.269531 23.671875 -16.554688 23.671875 -14.484375 L 23.671875 -1.671875 C 23.671875 -1.035156 23.5 -0.539062 23.15625 -0.1875 C 22.820312 0.15625 22.351562 0.328125 21.75 0.328125 C 21.113281 0.328125 20.628906 0.15625 20.296875 -0.1875 C 19.960938 -0.539062 19.796875 -1.035156 19.796875 -1.671875 L 19.796875 -14.25 C 19.796875 -16.414062 19.375 -18 18.53125 -19 C 17.6875 -20.007812 16.335938 -20.515625 14.484375 -20.515625 C 12.347656 -20.515625 10.648438 -19.851562 9.390625 -18.53125 C 8.128906 -17.207031 7.5 -15.445312 7.5 -13.25 L 7.5 -1.671875 C 7.5 -0.335938 6.847656 0.328125 5.546875 0.328125 Z M 5.546875 0.328125 "/></g></g></g><g fill="#000000" fill-opacity="1"><g transform="translate(122.188612, 112.947801)"><g><path d="M 12.953125 0.4375 C 11.140625 0.4375 9.617188 0.109375 8.390625 -0.546875 C 7.160156 -1.203125 6.242188 -2.160156 5.640625 -3.421875 C 5.035156 -4.679688 4.734375 -6.21875 4.734375 -8.03125 L 4.734375 -20.21875 L 1.53125 -20.21875 C 0.988281 -20.21875 0.570312 -20.351562 0.28125 -20.625 C 0 -20.894531 -0.140625 -21.269531 -0.140625 -21.75 C -0.140625 -22.226562 0 -22.59375 0.28125 -22.84375 C 0.570312 -23.101562 0.988281 -23.234375 1.53125 -23.234375 L 4.734375 -23.234375 L 4.734375 -28.734375 C 4.734375 -29.367188 4.90625 -29.851562 5.25 -30.1875 C 5.601562 -30.53125 6.082031 -30.703125 6.6875 -30.703125 C 7.300781 -30.703125 7.773438 -30.53125 8.109375 -30.1875 C 8.441406 -29.851562 8.609375 -29.367188 8.609375 -28.734375 L 8.609375 -23.234375 L 14.625 -23.234375 C 15.164062 -23.234375 15.578125 -23.101562 15.859375 -22.84375 C 16.148438 -22.59375 16.296875 -22.226562 16.296875 -21.75 C 16.296875 -21.269531 16.148438 -20.894531 15.859375 -20.625 C 15.578125 -20.351562 15.164062 -20.21875 14.625 -20.21875 L 8.609375 -20.21875 L 8.609375 -8.421875 C 8.609375 -6.597656 8.988281 -5.21875 9.75 -4.28125 C 10.519531 -3.34375 11.765625 -2.875 13.484375 -2.875 C 14.085938 -2.875 14.601562 -2.9375 15.03125 -3.0625 C 15.46875 -3.1875 15.828125 -3.25 16.109375 -3.25 C 16.398438 -3.28125 16.640625 -3.179688 16.828125 -2.953125 C 17.015625 -2.734375 17.109375 -2.351562 17.109375 -1.8125 C 17.109375 -1.4375 17.035156 -1.085938 16.890625 -0.765625 C 16.753906 -0.441406 16.507812 -0.21875 16.15625 -0.09375 C 15.78125 0.03125 15.28125 0.148438 14.65625 0.265625 C 14.03125 0.378906 13.460938 0.4375 12.953125 0.4375 Z M 12.953125 0.4375 "/></g></g></g><g fill="#000000" fill-opacity="1"><g transform="translate(138.923354, 112.947801)"><g><path d="M 14.34375 0.484375 C 13 0.484375 11.65625 0.382812 10.3125 0.1875 C 8.976562 0 7.679688 -0.304688 6.421875 -0.734375 C 5.171875 -1.171875 3.988281 -1.707031 2.875 -2.34375 C 2.257812 -2.695312 1.847656 -3.132812 1.640625 -3.65625 C 1.441406 -4.1875 1.390625 -4.722656 1.484375 -5.265625 C 1.578125 -5.804688 1.796875 -6.273438 2.140625 -6.671875 C 2.492188 -7.066406 2.941406 -7.3125 3.484375 -7.40625 C 4.023438 -7.5 4.632812 -7.359375 5.3125 -6.984375 C 6.800781 -6.148438 8.367188 -5.554688 10.015625 -5.203125 C 11.660156 -4.859375 13.296875 -4.6875 14.921875 -4.6875 C 17.148438 -4.6875 18.910156 -5.113281 20.203125 -5.96875 C 21.492188 -6.832031 22.140625 -7.96875 22.140625 -9.375 C 22.140625 -10.425781 21.753906 -11.304688 20.984375 -12.015625 C 20.222656 -12.734375 18.914062 -13.300781 17.0625 -13.71875 L 11.859375 -14.96875 C 9.523438 -15.507812 7.671875 -16.488281 6.296875 -17.90625 C 4.929688 -19.320312 4.25 -21.210938 4.25 -23.578125 C 4.25 -25.234375 4.597656 -26.710938 5.296875 -28.015625 C 6.003906 -29.328125 6.976562 -30.441406 8.21875 -31.359375 C 9.46875 -32.285156 10.894531 -32.988281 12.5 -33.46875 C 14.113281 -33.945312 15.828125 -34.1875 17.640625 -34.1875 C 19.328125 -34.1875 21.128906 -33.953125 23.046875 -33.484375 C 24.960938 -33.023438 26.695312 -32.269531 28.25 -31.21875 C 28.789062 -30.875 29.15625 -30.4375 29.34375 -29.90625 C 29.539062 -29.382812 29.59375 -28.859375 29.5 -28.328125 C 29.40625 -27.804688 29.179688 -27.367188 28.828125 -27.015625 C 28.484375 -26.660156 28.019531 -26.457031 27.4375 -26.40625 C 26.863281 -26.363281 26.195312 -26.566406 25.4375 -27.015625 C 24.320312 -27.679688 23.0625 -28.179688 21.65625 -28.515625 C 20.257812 -28.847656 18.890625 -29.015625 17.546875 -29.015625 C 16.140625 -29.015625 14.882812 -28.804688 13.78125 -28.390625 C 12.6875 -27.984375 11.835938 -27.410156 11.234375 -26.671875 C 10.628906 -25.941406 10.328125 -25.082031 10.328125 -24.09375 C 10.328125 -22.882812 10.675781 -21.960938 11.375 -21.328125 C 12.082031 -20.691406 13.117188 -20.195312 14.484375 -19.84375 L 19.703125 -18.59375 C 22.535156 -17.925781 24.660156 -16.859375 26.078125 -15.390625 C 27.492188 -13.929688 28.203125 -12.164062 28.203125 -10.09375 C 28.203125 -8.332031 27.835938 -6.789062 27.109375 -5.46875 C 26.378906 -4.144531 25.367188 -3.046875 24.078125 -2.171875 C 22.785156 -1.296875 21.3125 -0.632812 19.65625 -0.1875 C 18 0.257812 16.226562 0.484375 14.34375 0.484375 Z M 14.34375 0.484375 "/></g></g></g><g fill="#000000" fill-opacity="1"><g transform="translate(169.088668, 112.947801)"><g><path d="M 2.875 8.984375 C 1.945312 8.984375 1.257812 8.679688 0.8125 8.078125 C 0.363281 7.472656 0.21875 6.628906 0.375 5.546875 L 4.546875 -20.703125 C 4.703125 -21.722656 5.066406 -22.488281 5.640625 -23 C 6.210938 -23.507812 6.992188 -23.765625 7.984375 -23.765625 C 8.910156 -23.765625 9.570312 -23.460938 9.96875 -22.859375 C 10.363281 -22.253906 10.484375 -21.390625 10.328125 -20.265625 L 9.890625 -17.59375 L 9.796875 -19.03125 C 10.691406 -20.59375 11.847656 -21.785156 13.265625 -22.609375 C 14.679688 -23.441406 16.300781 -23.859375 18.125 -23.859375 C 19.90625 -23.859375 21.457031 -23.453125 22.78125 -22.640625 C 24.101562 -21.828125 25.128906 -20.660156 25.859375 -19.140625 C 26.597656 -17.628906 26.96875 -15.835938 26.96875 -13.765625 C 26.96875 -11.117188 26.492188 -8.71875 25.546875 -6.5625 C 24.609375 -4.414062 23.265625 -2.703125 21.515625 -1.421875 C 19.765625 -0.148438 17.660156 0.484375 15.203125 0.484375 C 13.421875 0.484375 11.832031 0.0507812 10.4375 -0.8125 C 9.050781 -1.675781 8.085938 -2.953125 7.546875 -4.640625 L 7.984375 -4.640625 L 6.265625 6.171875 C 6.109375 7.160156 5.757812 7.875 5.21875 8.3125 C 4.675781 8.757812 3.894531 8.984375 2.875 8.984375 Z M 14.109375 -4.0625 C 15.566406 -4.0625 16.796875 -4.472656 17.796875 -5.296875 C 18.804688 -6.128906 19.582031 -7.265625 20.125 -8.703125 C 20.664062 -10.140625 20.9375 -11.734375 20.9375 -13.484375 C 20.9375 -15.359375 20.484375 -16.796875 19.578125 -17.796875 C 18.671875 -18.804688 17.421875 -19.3125 15.828125 -19.3125 C 14.390625 -19.3125 13.160156 -18.894531 12.140625 -18.0625 C 11.117188 -17.238281 10.335938 -16.117188 9.796875 -14.703125 C 9.253906 -13.285156 8.984375 -11.679688 8.984375 -9.890625 C 8.984375 -8.015625 9.4375 -6.570312 10.34375 -5.5625 C 11.257812 -4.5625 12.515625 -4.0625 14.109375 -4.0625 Z M 14.109375 -4.0625 "/></g></g></g><g fill="#000000" fill-opacity="1"><g transform="translate(197.772007, 112.947801)"><g><path d="M 12.765625 0.484375 C 10.472656 0.484375 8.503906 0.0507812 6.859375 -0.8125 C 5.222656 -1.675781 3.960938 -2.90625 3.078125 -4.5 C 2.203125 -6.09375 1.765625 -7.957031 1.765625 -10.09375 C 1.765625 -12.195312 2.097656 -14.09375 2.765625 -15.78125 C 3.441406 -17.46875 4.375 -18.914062 5.5625 -20.125 C 6.757812 -21.34375 8.140625 -22.269531 9.703125 -22.90625 C 11.265625 -23.539062 12.957031 -23.859375 14.78125 -23.859375 C 17.070312 -23.859375 19.035156 -23.425781 20.671875 -22.5625 C 22.316406 -21.707031 23.578125 -20.488281 24.453125 -18.90625 C 25.328125 -17.332031 25.765625 -15.460938 25.765625 -13.296875 C 25.765625 -11.191406 25.429688 -9.289062 24.765625 -7.59375 C 24.097656 -5.90625 23.164062 -4.457031 21.96875 -3.25 C 20.769531 -2.039062 19.390625 -1.113281 17.828125 -0.46875 C 16.265625 0.164062 14.578125 0.484375 12.765625 0.484375 Z M 12.90625 -4.0625 C 14.375 -4.0625 15.609375 -4.472656 16.609375 -5.296875 C 17.617188 -6.128906 18.394531 -7.265625 18.9375 -8.703125 C 19.476562 -10.140625 19.75 -11.734375 19.75 -13.484375 C 19.75 -15.359375 19.289062 -16.796875 18.375 -17.796875 C 17.46875 -18.804688 16.21875 -19.3125 14.625 -19.3125 C 13.195312 -19.3125 11.972656 -18.894531 10.953125 -18.0625 C 9.929688 -17.238281 9.148438 -16.117188 8.609375 -14.703125 C 8.066406 -13.285156 7.796875 -11.679688 7.796875 -9.890625 C 7.796875 -8.015625 8.25 -6.570312 9.15625 -5.5625 C 10.0625 -4.5625 11.3125 -4.0625 12.90625 -4.0625 Z M 12.90625 -4.0625 "/></g></g></g><g fill="#000000" fill-opacity="1"><g transform="translate(225.30801, 112.947801)"><g><path d="M 12.328125 0.484375 C 10.265625 0.484375 8.5625 0.09375 7.21875 -0.6875 C 5.882812 -1.46875 4.953125 -2.539062 4.421875 -3.90625 C 3.898438 -5.28125 3.78125 -6.878906 4.0625 -8.703125 L 5.6875 -18.890625 L 3.578125 -18.890625 C 2.816406 -18.890625 2.21875 -19.054688 1.78125 -19.390625 C 1.351562 -19.722656 1.140625 -20.191406 1.140625 -20.796875 C 1.140625 -21.628906 1.410156 -22.265625 1.953125 -22.703125 C 2.492188 -23.148438 3.226562 -23.375 4.15625 -23.375 L 6.40625 -23.375 L 7.125 -27.96875 C 7.28125 -28.894531 7.628906 -29.585938 8.171875 -30.046875 C 8.710938 -30.515625 9.445312 -30.75 10.375 -30.75 C 11.394531 -30.75 12.128906 -30.457031 12.578125 -29.875 C 13.023438 -29.300781 13.164062 -28.488281 13 -27.4375 L 12.390625 -23.375 L 17.0625 -23.375 C 17.863281 -23.375 18.476562 -23.222656 18.90625 -22.921875 C 19.34375 -22.617188 19.5625 -22.148438 19.5625 -21.515625 C 19.5625 -20.753906 19.3125 -20.125 18.8125 -19.625 C 18.320312 -19.132812 17.644531 -18.890625 16.78125 -18.890625 L 11.671875 -18.890625 L 10.09375 -9.078125 C 9.832031 -7.421875 10.035156 -6.234375 10.703125 -5.515625 C 11.378906 -4.804688 12.320312 -4.453125 13.53125 -4.453125 C 14.101562 -4.453125 14.554688 -4.5 14.890625 -4.59375 C 15.222656 -4.6875 15.550781 -4.734375 15.875 -4.734375 C 16.320312 -4.734375 16.648438 -4.613281 16.859375 -4.375 C 17.066406 -4.132812 17.171875 -3.695312 17.171875 -3.0625 C 17.171875 -1.976562 16.992188 -1.226562 16.640625 -0.8125 C 16.285156 -0.394531 15.804688 -0.09375 15.203125 0.09375 C 14.816406 0.21875 14.351562 0.3125 13.8125 0.375 C 13.269531 0.445312 12.773438 0.484375 12.328125 0.484375 Z M 12.328125 0.484375 "/></g></g></g><g fill="#000000" fill-opacity="1"><g transform="translate(243.665345, 112.947801)"><g><path d="M 9.421875 0.484375 C 6.773438 0.484375 4.859375 -0.269531 3.671875 -1.78125 C 2.492188 -3.300781 2.128906 -5.515625 2.578125 -8.421875 L 6.21875 -31.125 C 6.375 -32.113281 6.738281 -32.851562 7.3125 -33.34375 C 7.882812 -33.84375 8.664062 -34.09375 9.65625 -34.09375 C 10.582031 -34.09375 11.257812 -33.785156 11.6875 -33.171875 C 12.113281 -32.566406 12.25 -31.707031 12.09375 -30.59375 L 8.5625 -8.46875 C 8.332031 -7.0625 8.445312 -6.03125 8.90625 -5.375 C 9.375 -4.726562 10.132812 -4.40625 11.1875 -4.40625 C 11.539062 -4.40625 11.828125 -4.425781 12.046875 -4.46875 C 12.273438 -4.519531 12.484375 -4.546875 12.671875 -4.546875 C 12.984375 -4.546875 13.234375 -4.429688 13.421875 -4.203125 C 13.617188 -3.984375 13.71875 -3.554688 13.71875 -2.921875 C 13.71875 -1.992188 13.523438 -1.28125 13.140625 -0.78125 C 12.765625 -0.289062 12.304688 0.03125 11.765625 0.1875 C 11.472656 0.28125 11.101562 0.351562 10.65625 0.40625 C 10.21875 0.457031 9.804688 0.484375 9.421875 0.484375 Z M 9.421875 0.484375 "/></g></g></g><g fill="#000000" fill-opacity="1"><g transform="translate(258.915314, 112.947801)"><g><path d="M 4.15625 0.375 C 3.226562 0.375 2.550781 0.0664062 2.125 -0.546875 C 1.695312 -1.171875 1.5625 -2.023438 1.71875 -3.109375 L 4.546875 -20.796875 C 4.703125 -21.785156 5.066406 -22.523438 5.640625 -23.015625 C 6.210938 -23.515625 6.992188 -23.765625 7.984375 -23.765625 C 8.910156 -23.765625 9.585938 -23.460938 10.015625 -22.859375 C 10.441406 -22.253906 10.578125 -21.390625 10.421875 -20.265625 L 7.609375 -2.578125 C 7.441406 -1.585938 7.078125 -0.847656 6.515625 -0.359375 C 5.960938 0.128906 5.175781 0.375 4.15625 0.375 Z M 8.75 -28.15625 C 7.664062 -28.15625 6.859375 -28.414062 6.328125 -28.9375 C 5.804688 -29.46875 5.59375 -30.210938 5.6875 -31.171875 C 5.8125 -32.253906 6.222656 -33.070312 6.921875 -33.625 C 7.628906 -34.1875 8.570312 -34.46875 9.75 -34.46875 C 10.832031 -34.46875 11.644531 -34.203125 12.1875 -33.671875 C 12.726562 -33.148438 12.9375 -32.410156 12.8125 -31.453125 C 12.6875 -30.367188 12.28125 -29.546875 11.59375 -28.984375 C 10.90625 -28.429688 9.957031 -28.15625 8.75 -28.15625 Z M 8.75 -28.15625 "/></g></g></g><g fill="#000000" fill-opacity="1"><g transform="translate(271.105727, 112.947801)"><g><path d="M 12.234375 9.078125 C 10.328125 9.078125 8.519531 8.863281 6.8125 8.4375 C 5.101562 8.007812 3.613281 7.425781 2.34375 6.6875 C 1.800781 6.375 1.429688 5.984375 1.234375 5.515625 C 1.046875 5.054688 1 4.601562 1.09375 4.15625 C 1.195312 3.707031 1.40625 3.316406 1.71875 2.984375 C 2.039062 2.648438 2.441406 2.441406 2.921875 2.359375 C 3.398438 2.285156 3.925781 2.40625 4.5 2.71875 C 5.519531 3.257812 6.609375 3.695312 7.765625 4.03125 C 8.929688 4.375 10.132812 4.546875 11.375 4.546875 C 13.289062 4.546875 14.835938 4.113281 16.015625 3.25 C 17.191406 2.382812 17.941406 1 18.265625 -0.90625 L 19.03125 -5.453125 L 19.40625 -5.40625 C 18.644531 -3.84375 17.53125 -2.644531 16.0625 -1.8125 C 14.59375 -0.988281 12.953125 -0.578125 11.140625 -0.578125 C 9.253906 -0.578125 7.609375 -0.957031 6.203125 -1.71875 C 4.804688 -2.488281 3.71875 -3.597656 2.9375 -5.046875 C 2.15625 -6.492188 1.765625 -8.207031 1.765625 -10.1875 C 1.765625 -12 2.039062 -13.734375 2.59375 -15.390625 C 3.15625 -17.046875 3.953125 -18.503906 4.984375 -19.765625 C 6.023438 -21.023438 7.28125 -22.019531 8.75 -22.75 C 10.21875 -23.488281 11.859375 -23.859375 13.671875 -23.859375 C 15.523438 -23.859375 17.144531 -23.425781 18.53125 -22.5625 C 19.914062 -21.707031 20.878906 -20.4375 21.421875 -18.75 L 20.84375 -17.40625 L 21.375 -20.890625 C 21.53125 -21.878906 21.894531 -22.601562 22.46875 -23.0625 C 23.039062 -23.53125 23.804688 -23.765625 24.765625 -23.765625 C 25.691406 -23.765625 26.351562 -23.460938 26.75 -22.859375 C 27.144531 -22.253906 27.265625 -21.390625 27.109375 -20.265625 L 24.09375 -1.25 C 23.582031 2.101562 22.335938 4.660156 20.359375 6.421875 C 18.390625 8.191406 15.679688 9.078125 12.234375 9.078125 Z M 13 -5.109375 C 14.5 -5.109375 15.765625 -5.515625 16.796875 -6.328125 C 17.835938 -7.140625 18.628906 -8.222656 19.171875 -9.578125 C 19.710938 -10.941406 19.984375 -12.40625 19.984375 -13.96875 C 19.984375 -15.625 19.53125 -16.925781 18.625 -17.875 C 17.71875 -18.832031 16.414062 -19.3125 14.71875 -19.3125 C 13.257812 -19.3125 12.007812 -18.90625 10.96875 -18.09375 C 9.9375 -17.28125 9.148438 -16.203125 8.609375 -14.859375 C 8.066406 -13.523438 7.796875 -12.078125 7.796875 -10.515625 C 7.796875 -8.828125 8.25 -7.503906 9.15625 -6.546875 C 10.0625 -5.585938 11.34375 -5.109375 13 -5.109375 Z M 13 -5.109375 "/></g></g></g><g fill="#000000" fill-opacity="1"><g transform="translate(299.980291, 112.947801)"><g><path d="M 4.203125 0.375 C 3.285156 0.375 2.609375 0.0507812 2.171875 -0.59375 C 1.742188 -1.25 1.609375 -2.117188 1.765625 -3.203125 L 6.171875 -31.078125 C 6.328125 -32.066406 6.691406 -32.816406 7.265625 -33.328125 C 7.835938 -33.835938 8.617188 -34.09375 9.609375 -34.09375 C 10.535156 -34.09375 11.21875 -33.796875 11.65625 -33.203125 C 12.101562 -32.617188 12.25 -31.765625 12.09375 -30.640625 L 10.1875 -18.640625 L 9.65625 -18.640625 C 10.457031 -20.335938 11.597656 -21.628906 13.078125 -22.515625 C 14.554688 -23.410156 16.300781 -23.859375 18.3125 -23.859375 C 20.03125 -23.859375 21.472656 -23.503906 22.640625 -22.796875 C 23.804688 -22.097656 24.632812 -21.023438 25.125 -19.578125 C 25.613281 -18.128906 25.6875 -16.273438 25.34375 -14.015625 L 23.578125 -2.625 C 23.441406 -1.632812 23.078125 -0.882812 22.484375 -0.375 C 21.898438 0.125 21.113281 0.375 20.125 0.375 C 19.207031 0.375 18.523438 0.0664062 18.078125 -0.546875 C 17.628906 -1.171875 17.484375 -2.023438 17.640625 -3.109375 L 19.359375 -13.90625 C 19.648438 -15.664062 19.515625 -16.984375 18.953125 -17.859375 C 18.398438 -18.734375 17.390625 -19.171875 15.921875 -19.171875 C 14.035156 -19.171875 12.523438 -18.582031 11.390625 -17.40625 C 10.265625 -16.226562 9.546875 -14.617188 9.234375 -12.578125 L 7.65625 -2.625 C 7.363281 -0.625 6.210938 0.375 4.203125 0.375 Z M 4.203125 0.375 "/></g></g></g><g fill="#000000" fill-opacity="1"><g transform="translate(327.946538, 112.947801)"><g><path d="M 12.328125 0.484375 C 10.265625 0.484375 8.5625 0.09375 7.21875 -0.6875 C 5.882812 -1.46875 4.953125 -2.539062 4.421875 -3.90625 C 3.898438 -5.28125 3.78125 -6.878906 4.0625 -8.703125 L 5.6875 -18.890625 L 3.578125 -18.890625 C 2.816406 -18.890625 2.21875 -19.054688 1.78125 -19.390625 C 1.351562 -19.722656 1.140625 -20.191406 1.140625 -20.796875 C 1.140625 -21.628906 1.410156 -22.265625 1.953125 -22.703125 C 2.492188 -23.148438 3.226562 -23.375 4.15625 -23.375 L 6.40625 -23.375 L 7.125 -27.96875 C 7.28125 -28.894531 7.628906 -29.585938 8.171875 -30.046875 C 8.710938 -30.515625 9.445312 -30.75 10.375 -30.75 C 11.394531 -30.75 12.128906 -30.457031 12.578125 -29.875 C 13.023438 -29.300781 13.164062 -28.488281 13 -27.4375 L 12.390625 -23.375 L 17.0625 -23.375 C 17.863281 -23.375 18.476562 -23.222656 18.90625 -22.921875 C 19.34375 -22.617188 19.5625 -22.148438 19.5625 -21.515625 C 19.5625 -20.753906 19.3125 -20.125 18.8125 -19.625 C 18.320312 -19.132812 17.644531 -18.890625 16.78125 -18.890625 L 11.671875 -18.890625 L 10.09375 -9.078125 C 9.832031 -7.421875 10.035156 -6.234375 10.703125 -5.515625 C 11.378906 -4.804688 12.320312 -4.453125 13.53125 -4.453125 C 14.101562 -4.453125 14.554688 -4.5 14.890625 -4.59375 C 15.222656 -4.6875 15.550781 -4.734375 15.875 -4.734375 C 16.320312 -4.734375 16.648438 -4.613281 16.859375 -4.375 C 17.066406 -4.132812 17.171875 -3.695312 17.171875 -3.0625 C 17.171875 -1.976562 16.992188 -1.226562 16.640625 -0.8125 C 16.285156 -0.394531 15.804688 -0.09375 15.203125 0.09375 C 14.816406 0.21875 14.351562 0.3125 13.8125 0.375 C 13.269531 0.445312 12.773438 0.484375 12.328125 0.484375 Z M 12.328125 0.484375 "/></g></g></g></svg>