<svg xmlns="http://www.w3.org/2000/svg" xmlns:xlink="http://www.w3.org/1999/xlink" width="876" zoomAndPan="magnify" viewBox="0 0 657 504.749982" height="673" preserveAspectRatio="xMidYMid meet" version="1.0"><defs><g/><clipPath id="af096bfab6"><path d="M 119.636719 191.460938 L 141.53125 191.460938 L 141.53125 327 L 119.636719 327 Z M 119.636719 191.460938 " clip-rule="nonzero"/></clipPath></defs><g fill="#ffffff" fill-opacity="1"><g transform="translate(94.141515, 359.799493)"><g><path d="M 109.28125 -201.828125 C 123.5 -201.828125 135.941406 -199.132812 146.609375 -193.75 C 157.273438 -188.375 166.066406 -180.925781 172.984375 -171.40625 C 179.910156 -161.894531 185.054688 -151.082031 188.421875 -138.96875 C 191.785156 -126.863281 193.46875 -114.179688 193.46875 -100.921875 C 193.46875 -82.460938 190.4375 -65.59375 184.375 -50.3125 C 178.320312 -35.03125 169.097656 -22.820312 156.703125 -13.6875 C 144.304688 -4.5625 128.5 0 109.28125 0 L 35.75 0 C 33.445312 0 31.429688 -0.863281 29.703125 -2.59375 C 27.972656 -4.320312 27.109375 -6.34375 27.109375 -8.65625 L 27.109375 -193.1875 C 27.109375 -195.488281 27.972656 -197.503906 29.703125 -199.234375 C 31.429688 -200.960938 33.445312 -201.828125 35.75 -201.828125 Z M 106.390625 -17.015625 C 122.734375 -17.015625 135.898438 -20.757812 145.890625 -28.25 C 155.890625 -35.75 163.242188 -45.890625 167.953125 -58.671875 C 172.660156 -71.453125 175.015625 -85.535156 175.015625 -100.921875 C 175.015625 -112.066406 173.71875 -122.679688 171.125 -132.765625 C 168.53125 -142.859375 164.492188 -151.796875 159.015625 -159.578125 C 153.535156 -167.367188 146.421875 -173.519531 137.671875 -178.03125 C 128.929688 -182.550781 118.503906 -184.8125 106.390625 -184.8125 L 43.25 -184.8125 L 45.265625 -187.40625 L 45.265625 -14.125 L 43.53125 -17.015625 Z M 106.390625 -17.015625 "/></g></g></g><g fill="#ffffff" fill-opacity="1"><g transform="translate(276.371555, 359.799493)"><g><path d="M 104.953125 -201.828125 C 114.941406 -201.828125 124.3125 -198.941406 133.0625 -193.171875 C 141.8125 -187.410156 148.875 -179.628906 154.25 -169.828125 C 159.632812 -160.023438 162.328125 -149.066406 162.328125 -136.953125 C 162.328125 -125.035156 159.632812 -114.175781 154.25 -104.375 C 148.875 -94.570312 141.8125 -86.738281 133.0625 -80.875 C 124.3125 -75.007812 114.941406 -72.078125 104.953125 -72.078125 L 51.90625 -72.078125 L 54.78125 -77.265625 L 54.78125 -17.59375 C 54.78125 -12.59375 53.242188 -8.410156 50.171875 -5.046875 C 47.097656 -1.679688 43.0625 0 38.0625 0 C 33.25 0 29.304688 -1.679688 26.234375 -5.046875 C 23.160156 -8.410156 21.625 -12.59375 21.625 -17.59375 L 21.625 -184.234375 C 21.625 -189.234375 23.304688 -193.414062 26.671875 -196.78125 C 30.035156 -200.144531 34.21875 -201.828125 39.21875 -201.828125 Z M 104.953125 -104.953125 C 108.609375 -104.953125 112.164062 -106.488281 115.625 -109.5625 C 119.082031 -112.632812 121.960938 -116.617188 124.265625 -121.515625 C 126.578125 -126.421875 127.734375 -131.566406 127.734375 -136.953125 C 127.734375 -142.523438 126.578125 -147.710938 124.265625 -152.515625 C 121.960938 -157.328125 119.082031 -161.222656 115.625 -164.203125 C 112.164062 -167.179688 108.609375 -168.671875 104.953125 -168.671875 L 51.328125 -168.671875 L 54.78125 -173.859375 L 54.78125 -100.34375 L 51.609375 -104.953125 Z M 104.953125 -104.953125 "/></g></g></g><g clip-path="url(#af096bfab6)"><path fill="#007a78" d="M 119.636719 191.460938 L 141.53125 191.460938 L 141.53125 327.007812 L 119.636719 327.007812 Z M 119.636719 191.460938 " fill-opacity="1" fill-rule="nonzero"/></g><g fill="#ffffff" fill-opacity="1"><g transform="translate(11.293068, 236.128479)"><g><path d="M 15.3125 -28.28125 C 17.300781 -28.28125 19.039062 -27.898438 20.53125 -27.140625 C 22.03125 -26.390625 23.265625 -25.347656 24.234375 -24.015625 C 25.203125 -22.679688 25.921875 -21.164062 26.390625 -19.46875 C 26.867188 -17.769531 27.109375 -15.992188 27.109375 -14.140625 C 27.109375 -11.554688 26.679688 -9.191406 25.828125 -7.046875 C 24.984375 -4.910156 23.691406 -3.203125 21.953125 -1.921875 C 20.210938 -0.640625 18 0 15.3125 0 L 5.015625 0 C 4.691406 0 4.40625 -0.117188 4.15625 -0.359375 C 3.914062 -0.609375 3.796875 -0.894531 3.796875 -1.21875 L 3.796875 -27.0625 C 3.796875 -27.382812 3.914062 -27.664062 4.15625 -27.90625 C 4.40625 -28.15625 4.691406 -28.28125 5.015625 -28.28125 Z M 14.90625 -2.390625 C 17.195312 -2.390625 19.039062 -2.910156 20.4375 -3.953125 C 21.832031 -5.003906 22.859375 -6.425781 23.515625 -8.21875 C 24.179688 -10.007812 24.515625 -11.984375 24.515625 -14.140625 C 24.515625 -15.703125 24.332031 -17.1875 23.96875 -18.59375 C 23.601562 -20.007812 23.035156 -21.257812 22.265625 -22.34375 C 21.503906 -23.4375 20.507812 -24.300781 19.28125 -24.9375 C 18.0625 -25.570312 16.601562 -25.890625 14.90625 -25.890625 L 6.0625 -25.890625 L 6.34375 -26.25 L 6.34375 -1.984375 L 6.09375 -2.390625 Z M 14.90625 -2.390625 "/></g></g></g><g fill="#ffffff" fill-opacity="1"><g transform="translate(40.33314, 236.128479)"><g><path d="M 5.53125 -1.21875 C 5.53125 -0.894531 5.410156 -0.609375 5.171875 -0.359375 C 4.929688 -0.117188 4.648438 0 4.328125 0 C 3.972656 0 3.679688 -0.117188 3.453125 -0.359375 C 3.222656 -0.609375 3.109375 -0.894531 3.109375 -1.21875 L 3.109375 -19.796875 C 3.109375 -20.117188 3.222656 -20.398438 3.453125 -20.640625 C 3.679688 -20.878906 3.972656 -21 4.328125 -21 C 4.671875 -21 4.957031 -20.878906 5.1875 -20.640625 C 5.414062 -20.398438 5.53125 -20.117188 5.53125 -19.796875 Z M 4.328125 -23.703125 C 3.765625 -23.703125 3.335938 -23.828125 3.046875 -24.078125 C 2.765625 -24.335938 2.625 -24.710938 2.625 -25.203125 L 2.625 -25.59375 C 2.625 -26.082031 2.78125 -26.453125 3.09375 -26.703125 C 3.40625 -26.960938 3.828125 -27.09375 4.359375 -27.09375 C 4.878906 -27.09375 5.28125 -26.960938 5.5625 -26.703125 C 5.84375 -26.453125 5.984375 -26.082031 5.984375 -25.59375 L 5.984375 -25.203125 C 5.984375 -24.710938 5.84375 -24.335938 5.5625 -24.078125 C 5.28125 -23.828125 4.867188 -23.703125 4.328125 -23.703125 Z M 4.328125 -23.703125 "/></g></g></g><g fill="#ffffff" fill-opacity="1"><g transform="translate(48.976497, 236.128479)"><g><path d="M 2.015625 -3.265625 C 1.804688 -3.585938 1.707031 -3.90625 1.71875 -4.21875 C 1.726562 -4.53125 1.894531 -4.78125 2.21875 -4.96875 C 2.4375 -5.15625 2.6875 -5.234375 2.96875 -5.203125 C 3.25 -5.179688 3.507812 -5.050781 3.75 -4.8125 C 4.476562 -3.863281 5.359375 -3.097656 6.390625 -2.515625 C 7.429688 -1.941406 8.664062 -1.65625 10.09375 -1.65625 C 10.851562 -1.65625 11.601562 -1.78125 12.34375 -2.03125 C 13.082031 -2.289062 13.691406 -2.679688 14.171875 -3.203125 C 14.660156 -3.734375 14.90625 -4.398438 14.90625 -5.203125 C 14.90625 -6.046875 14.660156 -6.722656 14.171875 -7.234375 C 13.691406 -7.742188 13.066406 -8.144531 12.296875 -8.4375 C 11.523438 -8.738281 10.710938 -8.992188 9.859375 -9.203125 C 8.941406 -9.453125 8.050781 -9.726562 7.1875 -10.03125 C 6.320312 -10.34375 5.5625 -10.734375 4.90625 -11.203125 C 4.25 -11.679688 3.71875 -12.253906 3.3125 -12.921875 C 2.90625 -13.597656 2.703125 -14.421875 2.703125 -15.390625 C 2.703125 -16.515625 3.007812 -17.507812 3.625 -18.375 C 4.25 -19.238281 5.09375 -19.910156 6.15625 -20.390625 C 7.21875 -20.878906 8.425781 -21.125 9.78125 -21.125 C 10.445312 -21.125 11.171875 -21.035156 11.953125 -20.859375 C 12.734375 -20.679688 13.5 -20.390625 14.25 -19.984375 C 15.007812 -19.585938 15.6875 -19.039062 16.28125 -18.34375 C 16.519531 -18.09375 16.640625 -17.8125 16.640625 -17.5 C 16.640625 -17.195312 16.503906 -16.925781 16.234375 -16.6875 C 16.015625 -16.519531 15.765625 -16.4375 15.484375 -16.4375 C 15.203125 -16.4375 14.96875 -16.546875 14.78125 -16.765625 C 14.132812 -17.492188 13.363281 -18.046875 12.46875 -18.421875 C 11.582031 -18.796875 10.628906 -18.984375 9.609375 -18.984375 C 8.828125 -18.984375 8.09375 -18.851562 7.40625 -18.59375 C 6.71875 -18.34375 6.144531 -17.960938 5.6875 -17.453125 C 5.238281 -16.941406 5.015625 -16.265625 5.015625 -15.421875 C 5.066406 -14.648438 5.335938 -14.019531 5.828125 -13.53125 C 6.328125 -13.039062 6.988281 -12.632812 7.8125 -12.3125 C 8.632812 -11.988281 9.554688 -11.695312 10.578125 -11.4375 C 11.441406 -11.21875 12.269531 -10.957031 13.0625 -10.65625 C 13.863281 -10.363281 14.566406 -9.992188 15.171875 -9.546875 C 15.773438 -9.109375 16.257812 -8.550781 16.625 -7.875 C 16.988281 -7.195312 17.171875 -6.347656 17.171875 -5.328125 C 17.171875 -4.140625 16.835938 -3.113281 16.171875 -2.25 C 15.515625 -1.394531 14.632812 -0.738281 13.53125 -0.28125 C 12.425781 0.175781 11.203125 0.40625 9.859375 0.40625 C 8.398438 0.40625 6.988281 0.125 5.625 -0.4375 C 4.269531 -1.007812 3.066406 -1.953125 2.015625 -3.265625 Z M 2.015625 -3.265625 "/></g></g></g><g fill="#ffffff" fill-opacity="1"><g transform="translate(67.919188, 236.128479)"><g><path d="M 1.859375 -20.5625 L 11.265625 -20.5625 C 11.585938 -20.5625 11.859375 -20.445312 12.078125 -20.21875 C 12.296875 -19.988281 12.40625 -19.710938 12.40625 -19.390625 C 12.40625 -19.085938 12.296875 -18.828125 12.078125 -18.609375 C 11.859375 -18.398438 11.585938 -18.296875 11.265625 -18.296875 L 1.859375 -18.296875 C 1.535156 -18.296875 1.257812 -18.410156 1.03125 -18.640625 C 0.800781 -18.867188 0.6875 -19.128906 0.6875 -19.421875 C 0.6875 -19.742188 0.800781 -20.015625 1.03125 -20.234375 C 1.257812 -20.453125 1.535156 -20.5625 1.859375 -20.5625 Z M 6.015625 -26.25 C 6.367188 -26.25 6.660156 -26.128906 6.890625 -25.890625 C 7.117188 -25.648438 7.234375 -25.367188 7.234375 -25.046875 L 7.234375 -4.765625 C 7.234375 -4.015625 7.332031 -3.445312 7.53125 -3.0625 C 7.726562 -2.6875 7.988281 -2.4375 8.3125 -2.3125 C 8.644531 -2.195312 8.972656 -2.140625 9.296875 -2.140625 C 9.503906 -2.140625 9.695312 -2.171875 9.875 -2.234375 C 10.050781 -2.304688 10.25 -2.34375 10.46875 -2.34375 C 10.707031 -2.34375 10.910156 -2.25 11.078125 -2.0625 C 11.253906 -1.875 11.34375 -1.628906 11.34375 -1.328125 C 11.34375 -0.953125 11.128906 -0.632812 10.703125 -0.375 C 10.273438 -0.125 9.765625 0 9.171875 0 C 8.929688 0 8.566406 -0.0195312 8.078125 -0.0625 C 7.585938 -0.101562 7.085938 -0.25 6.578125 -0.5 C 6.066406 -0.757812 5.644531 -1.210938 5.3125 -1.859375 C 4.976562 -2.503906 4.8125 -3.429688 4.8125 -4.640625 L 4.8125 -25.046875 C 4.8125 -25.367188 4.925781 -25.648438 5.15625 -25.890625 C 5.382812 -26.128906 5.671875 -26.25 6.015625 -26.25 Z M 6.015625 -26.25 "/></g></g></g><g fill="#ffffff" fill-opacity="1"><g transform="translate(81.611242, 236.128479)"><g><path d="M 4.40625 0 C 4.03125 0 3.734375 -0.117188 3.515625 -0.359375 C 3.296875 -0.609375 3.1875 -0.894531 3.1875 -1.21875 L 3.1875 -19.3125 C 3.1875 -19.632812 3.300781 -19.914062 3.53125 -20.15625 C 3.757812 -20.394531 4.050781 -20.515625 4.40625 -20.515625 C 4.75 -20.515625 5.035156 -20.394531 5.265625 -20.15625 C 5.492188 -19.914062 5.609375 -19.632812 5.609375 -19.3125 L 5.609375 -13.25 L 5.015625 -13.125 C 5.085938 -14.070312 5.316406 -15.007812 5.703125 -15.9375 C 6.097656 -16.863281 6.632812 -17.71875 7.3125 -18.5 C 7.988281 -19.28125 8.789062 -19.910156 9.71875 -20.390625 C 10.644531 -20.878906 11.6875 -21.125 12.84375 -21.125 C 13.332031 -21.125 13.800781 -21.019531 14.25 -20.8125 C 14.707031 -20.613281 14.9375 -20.285156 14.9375 -19.828125 C 14.9375 -19.421875 14.828125 -19.109375 14.609375 -18.890625 C 14.398438 -18.679688 14.148438 -18.578125 13.859375 -18.578125 C 13.609375 -18.578125 13.34375 -18.644531 13.0625 -18.78125 C 12.78125 -18.914062 12.410156 -18.984375 11.953125 -18.984375 C 11.203125 -18.984375 10.445312 -18.757812 9.6875 -18.3125 C 8.9375 -17.875 8.25 -17.273438 7.625 -16.515625 C 7.007812 -15.765625 6.519531 -14.925781 6.15625 -14 C 5.789062 -13.070312 5.609375 -12.132812 5.609375 -11.1875 L 5.609375 -1.21875 C 5.609375 -0.894531 5.488281 -0.609375 5.25 -0.359375 C 5.007812 -0.117188 4.726562 0 4.40625 0 Z M 4.40625 0 "/></g></g></g><g fill="#ffffff" fill-opacity="1"><g transform="translate(97.161214, 236.128479)"><g><path d="M 5.53125 -1.21875 C 5.53125 -0.894531 5.410156 -0.609375 5.171875 -0.359375 C 4.929688 -0.117188 4.648438 0 4.328125 0 C 3.972656 0 3.679688 -0.117188 3.453125 -0.359375 C 3.222656 -0.609375 3.109375 -0.894531 3.109375 -1.21875 L 3.109375 -19.796875 C 3.109375 -20.117188 3.222656 -20.398438 3.453125 -20.640625 C 3.679688 -20.878906 3.972656 -21 4.328125 -21 C 4.671875 -21 4.957031 -20.878906 5.1875 -20.640625 C 5.414062 -20.398438 5.53125 -20.117188 5.53125 -19.796875 Z M 4.328125 -23.703125 C 3.765625 -23.703125 3.335938 -23.828125 3.046875 -24.078125 C 2.765625 -24.335938 2.625 -24.710938 2.625 -25.203125 L 2.625 -25.59375 C 2.625 -26.082031 2.78125 -26.453125 3.09375 -26.703125 C 3.40625 -26.960938 3.828125 -27.09375 4.359375 -27.09375 C 4.878906 -27.09375 5.28125 -26.960938 5.5625 -26.703125 C 5.84375 -26.453125 5.984375 -26.082031 5.984375 -25.59375 L 5.984375 -25.203125 C 5.984375 -24.710938 5.84375 -24.335938 5.5625 -24.078125 C 5.28125 -23.828125 4.867188 -23.703125 4.328125 -23.703125 Z M 4.328125 -23.703125 "/></g></g></g><g fill="#ffffff" fill-opacity="1"><g transform="translate(105.804571, 236.128479)"><g><path d="M 13 -21.125 C 14.832031 -21.125 16.457031 -20.664062 17.875 -19.75 C 19.289062 -18.832031 20.414062 -17.570312 21.25 -15.96875 C 22.082031 -14.375 22.5 -12.523438 22.5 -10.421875 C 22.5 -8.367188 22.082031 -6.519531 21.25 -4.875 C 20.414062 -3.238281 19.285156 -1.945312 17.859375 -1 C 16.429688 -0.0625 14.828125 0.40625 13.046875 0.40625 C 12.097656 0.40625 11.203125 0.257812 10.359375 -0.03125 C 9.515625 -0.332031 8.738281 -0.734375 8.03125 -1.234375 C 7.332031 -1.734375 6.710938 -2.316406 6.171875 -2.984375 C 5.640625 -3.660156 5.210938 -4.390625 4.890625 -5.171875 L 5.609375 -5.6875 L 5.609375 -1.125 C 5.609375 -0.78125 5.492188 -0.492188 5.265625 -0.265625 C 5.035156 -0.0351562 4.75 0.078125 4.40625 0.078125 C 4.050781 0.078125 3.757812 -0.0351562 3.53125 -0.265625 C 3.300781 -0.492188 3.1875 -0.78125 3.1875 -1.125 L 3.1875 -28.640625 C 3.1875 -28.984375 3.296875 -29.269531 3.515625 -29.5 C 3.734375 -29.726562 4.03125 -29.84375 4.40625 -29.84375 C 4.75 -29.84375 5.035156 -29.726562 5.265625 -29.5 C 5.492188 -29.269531 5.609375 -28.984375 5.609375 -28.640625 L 5.609375 -15.109375 L 5.046875 -15.421875 C 5.316406 -16.265625 5.710938 -17.023438 6.234375 -17.703125 C 6.765625 -18.390625 7.378906 -18.988281 8.078125 -19.5 C 8.773438 -20.019531 9.539062 -20.421875 10.375 -20.703125 C 11.207031 -20.984375 12.082031 -21.125 13 -21.125 Z M 12.796875 -18.859375 C 11.347656 -18.859375 10.070312 -18.492188 8.96875 -17.765625 C 7.863281 -17.046875 6.992188 -16.050781 6.359375 -14.78125 C 5.722656 -13.519531 5.40625 -12.066406 5.40625 -10.421875 C 5.40625 -8.804688 5.722656 -7.34375 6.359375 -6.03125 C 6.992188 -4.726562 7.863281 -3.707031 8.96875 -2.96875 C 10.070312 -2.226562 11.347656 -1.859375 12.796875 -1.859375 C 14.222656 -1.859375 15.484375 -2.234375 16.578125 -2.984375 C 17.671875 -3.742188 18.539062 -4.773438 19.1875 -6.078125 C 19.832031 -7.378906 20.15625 -8.828125 20.15625 -10.421875 C 20.15625 -12.066406 19.832031 -13.519531 19.1875 -14.78125 C 18.539062 -16.050781 17.671875 -17.046875 16.578125 -17.765625 C 15.484375 -18.492188 14.222656 -18.859375 12.796875 -18.859375 Z M 12.796875 -18.859375 "/></g></g></g><g fill="#ffffff" fill-opacity="1"><g transform="translate(130.28062, 236.128479)"><g><path d="M 18.625 -20.515625 C 18.96875 -20.515625 19.253906 -20.394531 19.484375 -20.15625 C 19.710938 -19.914062 19.828125 -19.632812 19.828125 -19.3125 L 19.828125 -7.921875 C 19.828125 -5.253906 19.070312 -3.21875 17.5625 -1.8125 C 16.0625 -0.414062 14.03125 0.28125 11.46875 0.28125 C 8.9375 0.28125 6.921875 -0.414062 5.421875 -1.8125 C 3.929688 -3.21875 3.1875 -5.253906 3.1875 -7.921875 L 3.1875 -19.3125 C 3.1875 -19.632812 3.300781 -19.914062 3.53125 -20.15625 C 3.757812 -20.394531 4.050781 -20.515625 4.40625 -20.515625 C 4.75 -20.515625 5.035156 -20.394531 5.265625 -20.15625 C 5.492188 -19.914062 5.609375 -19.632812 5.609375 -19.3125 L 5.609375 -7.921875 C 5.609375 -5.984375 6.125 -4.507812 7.15625 -3.5 C 8.195312 -2.488281 9.632812 -1.984375 11.46875 -1.984375 C 13.332031 -1.984375 14.785156 -2.488281 15.828125 -3.5 C 16.878906 -4.507812 17.40625 -5.984375 17.40625 -7.921875 L 17.40625 -19.3125 C 17.40625 -19.632812 17.507812 -19.914062 17.71875 -20.15625 C 17.9375 -20.394531 18.238281 -20.515625 18.625 -20.515625 Z M 18.625 -20.515625 "/></g></g></g><g fill="#ffffff" fill-opacity="1"><g transform="translate(153.262263, 236.128479)"><g><path d="M 1.859375 -20.5625 L 11.265625 -20.5625 C 11.585938 -20.5625 11.859375 -20.445312 12.078125 -20.21875 C 12.296875 -19.988281 12.40625 -19.710938 12.40625 -19.390625 C 12.40625 -19.085938 12.296875 -18.828125 12.078125 -18.609375 C 11.859375 -18.398438 11.585938 -18.296875 11.265625 -18.296875 L 1.859375 -18.296875 C 1.535156 -18.296875 1.257812 -18.410156 1.03125 -18.640625 C 0.800781 -18.867188 0.6875 -19.128906 0.6875 -19.421875 C 0.6875 -19.742188 0.800781 -20.015625 1.03125 -20.234375 C 1.257812 -20.453125 1.535156 -20.5625 1.859375 -20.5625 Z M 6.015625 -26.25 C 6.367188 -26.25 6.660156 -26.128906 6.890625 -25.890625 C 7.117188 -25.648438 7.234375 -25.367188 7.234375 -25.046875 L 7.234375 -4.765625 C 7.234375 -4.015625 7.332031 -3.445312 7.53125 -3.0625 C 7.726562 -2.6875 7.988281 -2.4375 8.3125 -2.3125 C 8.644531 -2.195312 8.972656 -2.140625 9.296875 -2.140625 C 9.503906 -2.140625 9.695312 -2.171875 9.875 -2.234375 C 10.050781 -2.304688 10.25 -2.34375 10.46875 -2.34375 C 10.707031 -2.34375 10.910156 -2.25 11.078125 -2.0625 C 11.253906 -1.875 11.34375 -1.628906 11.34375 -1.328125 C 11.34375 -0.953125 11.128906 -0.632812 10.703125 -0.375 C 10.273438 -0.125 9.765625 0 9.171875 0 C 8.929688 0 8.566406 -0.0195312 8.078125 -0.0625 C 7.585938 -0.101562 7.085938 -0.25 6.578125 -0.5 C 6.066406 -0.757812 5.644531 -1.210938 5.3125 -1.859375 C 4.976562 -2.503906 4.8125 -3.429688 4.8125 -4.640625 L 4.8125 -25.046875 C 4.8125 -25.367188 4.925781 -25.648438 5.15625 -25.890625 C 5.382812 -26.128906 5.671875 -26.25 6.015625 -26.25 Z M 6.015625 -26.25 "/></g></g></g><g fill="#ffffff" fill-opacity="1"><g transform="translate(166.954317, 236.128479)"><g><path d="M 12.515625 0.40625 C 10.441406 0.40625 8.609375 -0.0351562 7.015625 -0.921875 C 5.429688 -1.816406 4.195312 -3.054688 3.3125 -4.640625 C 2.425781 -6.234375 1.984375 -8.09375 1.984375 -10.21875 C 1.984375 -12.507812 2.429688 -14.460938 3.328125 -16.078125 C 4.234375 -17.691406 5.40625 -18.9375 6.84375 -19.8125 C 8.28125 -20.6875 9.8125 -21.125 11.4375 -21.125 C 12.613281 -21.125 13.757812 -20.914062 14.875 -20.5 C 16 -20.082031 17 -19.460938 17.875 -18.640625 C 18.75 -17.816406 19.445312 -16.8125 19.96875 -15.625 C 20.5 -14.445312 20.789062 -13.078125 20.84375 -11.515625 C 20.8125 -11.191406 20.675781 -10.914062 20.4375 -10.6875 C 20.195312 -10.457031 19.914062 -10.34375 19.59375 -10.34375 L 3.390625 -10.34375 L 2.90625 -12.515625 L 18.828125 -12.515625 L 18.296875 -12.03125 L 18.296875 -12.84375 C 18.191406 -14.113281 17.785156 -15.191406 17.078125 -16.078125 C 16.378906 -16.960938 15.53125 -17.632812 14.53125 -18.09375 C 13.539062 -18.550781 12.507812 -18.78125 11.4375 -18.78125 C 10.625 -18.78125 9.789062 -18.617188 8.9375 -18.296875 C 8.09375 -17.972656 7.328125 -17.46875 6.640625 -16.78125 C 5.953125 -16.09375 5.394531 -15.21875 4.96875 -14.15625 C 4.539062 -13.09375 4.328125 -11.832031 4.328125 -10.375 C 4.328125 -8.789062 4.648438 -7.351562 5.296875 -6.0625 C 5.941406 -4.769531 6.875 -3.742188 8.09375 -2.984375 C 9.320312 -2.234375 10.785156 -1.859375 12.484375 -1.859375 C 13.421875 -1.859375 14.265625 -1.992188 15.015625 -2.265625 C 15.773438 -2.535156 16.4375 -2.890625 17 -3.328125 C 17.570312 -3.773438 18.046875 -4.238281 18.421875 -4.71875 C 18.710938 -4.96875 19.007812 -5.09375 19.3125 -5.09375 C 19.570312 -5.09375 19.800781 -4.984375 20 -4.765625 C 20.207031 -4.546875 20.3125 -4.304688 20.3125 -4.046875 C 20.3125 -3.710938 20.175781 -3.425781 19.90625 -3.1875 C 19.101562 -2.21875 18.054688 -1.375 16.765625 -0.65625 C 15.472656 0.0507812 14.054688 0.40625 12.515625 0.40625 Z M 12.515625 0.40625 "/></g></g></g><g fill="#ffffff" fill-opacity="1"><g transform="translate(189.774402, 236.128479)"><g><path d="M 20.109375 -29.890625 C 20.460938 -29.890625 20.753906 -29.773438 20.984375 -29.546875 C 21.210938 -29.316406 21.328125 -29.023438 21.328125 -28.671875 L 21.328125 -1.21875 C 21.328125 -0.894531 21.203125 -0.609375 20.953125 -0.359375 C 20.710938 -0.117188 20.429688 0 20.109375 0 C 19.765625 0 19.476562 -0.117188 19.25 -0.359375 C 19.019531 -0.609375 18.90625 -0.894531 18.90625 -1.21875 L 18.90625 -6.015625 L 19.59375 -6.578125 C 19.59375 -5.828125 19.390625 -5.039062 18.984375 -4.21875 C 18.578125 -3.394531 18.003906 -2.632812 17.265625 -1.9375 C 16.523438 -1.238281 15.660156 -0.671875 14.671875 -0.234375 C 13.691406 0.191406 12.640625 0.40625 11.515625 0.40625 C 9.710938 0.40625 8.085938 -0.0625 6.640625 -1 C 5.203125 -1.945312 4.066406 -3.226562 3.234375 -4.84375 C 2.398438 -6.457031 1.984375 -8.300781 1.984375 -10.375 C 1.984375 -12.425781 2.398438 -14.265625 3.234375 -15.890625 C 4.066406 -17.523438 5.195312 -18.804688 6.625 -19.734375 C 8.050781 -20.660156 9.664062 -21.125 11.46875 -21.125 C 12.570312 -21.125 13.617188 -20.921875 14.609375 -20.515625 C 15.609375 -20.109375 16.492188 -19.554688 17.265625 -18.859375 C 18.035156 -18.160156 18.640625 -17.359375 19.078125 -16.453125 C 19.523438 -15.554688 19.75 -14.625 19.75 -13.65625 L 18.90625 -14.265625 L 18.90625 -28.671875 C 18.90625 -28.992188 19.019531 -29.273438 19.25 -29.515625 C 19.476562 -29.765625 19.765625 -29.890625 20.109375 -29.890625 Z M 11.71875 -1.859375 C 13.164062 -1.859375 14.4375 -2.226562 15.53125 -2.96875 C 16.625 -3.707031 17.484375 -4.71875 18.109375 -6 C 18.742188 -7.28125 19.0625 -8.738281 19.0625 -10.375 C 19.0625 -11.988281 18.742188 -13.4375 18.109375 -14.71875 C 17.484375 -16 16.617188 -17.007812 15.515625 -17.75 C 14.410156 -18.488281 13.144531 -18.859375 11.71875 -18.859375 C 10.3125 -18.859375 9.050781 -18.488281 7.9375 -17.75 C 6.820312 -17.007812 5.945312 -16 5.3125 -14.71875 C 4.675781 -13.4375 4.359375 -11.988281 4.359375 -10.375 C 4.359375 -8.757812 4.675781 -7.304688 5.3125 -6.015625 C 5.945312 -4.722656 6.820312 -3.707031 7.9375 -2.96875 C 9.050781 -2.226562 10.3125 -1.859375 11.71875 -1.859375 Z M 11.71875 -1.859375 "/></g></g></g><g fill="#ffffff" fill-opacity="1"><g transform="translate(11.293068, 273.777282)"><g><path d="M 14.703125 -28.28125 C 16.097656 -28.28125 17.410156 -27.875 18.640625 -27.0625 C 19.867188 -26.25 20.859375 -25.15625 21.609375 -23.78125 C 22.359375 -22.414062 22.734375 -20.882812 22.734375 -19.1875 C 22.734375 -17.519531 22.359375 -16 21.609375 -14.625 C 20.859375 -13.25 19.867188 -12.148438 18.640625 -11.328125 C 17.410156 -10.503906 16.097656 -10.09375 14.703125 -10.09375 L 7.265625 -10.09375 L 7.671875 -10.828125 L 7.671875 -2.46875 C 7.671875 -1.757812 7.453125 -1.171875 7.015625 -0.703125 C 6.585938 -0.234375 6.023438 0 5.328125 0 C 4.660156 0 4.109375 -0.234375 3.671875 -0.703125 C 3.242188 -1.171875 3.03125 -1.757812 3.03125 -2.46875 L 3.03125 -25.8125 C 3.03125 -26.507812 3.265625 -27.09375 3.734375 -27.5625 C 4.203125 -28.039062 4.789062 -28.28125 5.5 -28.28125 Z M 14.703125 -14.703125 C 15.210938 -14.703125 15.707031 -14.914062 16.1875 -15.34375 C 16.675781 -15.78125 17.082031 -16.335938 17.40625 -17.015625 C 17.726562 -17.703125 17.890625 -18.425781 17.890625 -19.1875 C 17.890625 -19.96875 17.726562 -20.691406 17.40625 -21.359375 C 17.082031 -22.035156 16.675781 -22.582031 16.1875 -23 C 15.707031 -23.414062 15.210938 -23.625 14.703125 -23.625 L 7.1875 -23.625 L 7.671875 -24.359375 L 7.671875 -14.0625 L 7.234375 -14.703125 Z M 14.703125 -14.703125 "/></g></g></g><g fill="#ffffff" fill-opacity="1"><g transform="translate(35.647955, 273.777282)"><g><path d="M 23.59375 -10.78125 C 23.59375 -8.570312 23.097656 -6.625 22.109375 -4.9375 C 21.128906 -3.257812 19.8125 -1.945312 18.15625 -1 C 16.5 -0.0625 14.648438 0.40625 12.609375 0.40625 C 10.554688 0.40625 8.703125 -0.0625 7.046875 -1 C 5.390625 -1.945312 4.066406 -3.257812 3.078125 -4.9375 C 2.097656 -6.625 1.609375 -8.570312 1.609375 -10.78125 C 1.609375 -12.988281 2.097656 -14.929688 3.078125 -16.609375 C 4.066406 -18.296875 5.390625 -19.617188 7.046875 -20.578125 C 8.703125 -21.535156 10.554688 -22.015625 12.609375 -22.015625 C 14.648438 -22.015625 16.5 -21.535156 18.15625 -20.578125 C 19.8125 -19.617188 21.128906 -18.296875 22.109375 -16.609375 C 23.097656 -14.929688 23.59375 -12.988281 23.59375 -10.78125 Z M 18.734375 -10.78125 C 18.734375 -12.15625 18.457031 -13.347656 17.90625 -14.359375 C 17.351562 -15.367188 16.613281 -16.15625 15.6875 -16.71875 C 14.757812 -17.28125 13.734375 -17.5625 12.609375 -17.5625 C 11.472656 -17.5625 10.441406 -17.28125 9.515625 -16.71875 C 8.585938 -16.15625 7.847656 -15.367188 7.296875 -14.359375 C 6.742188 -13.347656 6.46875 -12.15625 6.46875 -10.78125 C 6.46875 -9.4375 6.742188 -8.257812 7.296875 -7.25 C 7.847656 -6.238281 8.585938 -5.453125 9.515625 -4.890625 C 10.441406 -4.328125 11.472656 -4.046875 12.609375 -4.046875 C 13.734375 -4.046875 14.757812 -4.328125 15.6875 -4.890625 C 16.613281 -5.453125 17.351562 -6.238281 17.90625 -7.25 C 18.457031 -8.257812 18.734375 -9.4375 18.734375 -10.78125 Z M 18.734375 -10.78125 "/></g></g></g><g fill="#ffffff" fill-opacity="1"><g transform="translate(60.851015, 273.777282)"><g><path d="M 27.5 -21.609375 C 28.125 -21.609375 28.664062 -21.375 29.125 -20.90625 C 29.582031 -20.4375 29.8125 -19.835938 29.8125 -19.109375 C 29.8125 -18.921875 29.796875 -18.75 29.765625 -18.59375 C 29.742188 -18.445312 29.703125 -18.304688 29.640625 -18.171875 L 23.46875 -1.53125 C 23.28125 -1 22.941406 -0.585938 22.453125 -0.296875 C 21.972656 -0.015625 21.460938 0.0820312 20.921875 0 C 20.003906 -0.0507812 19.316406 -0.5625 18.859375 -1.53125 L 14.859375 -13.046875 L 15.90625 -13 L 12.15625 -1.53125 C 11.695312 -0.5625 11.007812 -0.0507812 10.09375 0 C 9.582031 0.0820312 9.078125 -0.015625 8.578125 -0.296875 C 8.078125 -0.585938 7.734375 -1 7.546875 -1.53125 L 1.375 -18.171875 C 1.269531 -18.472656 1.21875 -18.785156 1.21875 -19.109375 C 1.21875 -19.753906 1.429688 -20.332031 1.859375 -20.84375 C 2.285156 -21.351562 2.878906 -21.609375 3.640625 -21.609375 C 4.148438 -21.609375 4.601562 -21.484375 5 -21.234375 C 5.40625 -20.992188 5.691406 -20.609375 5.859375 -20.078125 L 10.75 -6.828125 L 9.734375 -6.90625 L 13.40625 -16.890625 C 13.84375 -17.878906 14.582031 -18.375 15.625 -18.375 C 16.21875 -18.375 16.671875 -18.242188 16.984375 -17.984375 C 17.296875 -17.734375 17.546875 -17.367188 17.734375 -16.890625 L 21.40625 -6.90625 L 20.203125 -6.75 L 25.15625 -20.078125 C 25.476562 -21.097656 26.257812 -21.609375 27.5 -21.609375 Z M 27.5 -21.609375 "/></g></g></g><g fill="#ffffff" fill-opacity="1"><g transform="translate(91.870166, 273.777282)"><g><path d="M 12.796875 0.40625 C 10.515625 0.40625 8.53125 -0.0703125 6.84375 -1.03125 C 5.164062 -1.988281 3.875 -3.285156 2.96875 -4.921875 C 2.0625 -6.566406 1.609375 -8.425781 1.609375 -10.5 C 1.609375 -12.925781 2.097656 -14.992188 3.078125 -16.703125 C 4.066406 -18.410156 5.351562 -19.722656 6.9375 -20.640625 C 8.53125 -21.554688 10.21875 -22.015625 12 -22.015625 C 13.375 -22.015625 14.671875 -21.726562 15.890625 -21.15625 C 17.117188 -20.59375 18.203125 -19.820312 19.140625 -18.84375 C 20.085938 -17.863281 20.835938 -16.722656 21.390625 -15.421875 C 21.941406 -14.128906 22.21875 -12.757812 22.21875 -11.3125 C 22.1875 -10.664062 21.925781 -10.140625 21.4375 -9.734375 C 20.957031 -9.328125 20.394531 -9.125 19.75 -9.125 L 4.328125 -9.125 L 3.109375 -13.171875 L 17.9375 -13.171875 L 17.046875 -12.359375 L 17.046875 -13.453125 C 16.992188 -14.234375 16.71875 -14.929688 16.21875 -15.546875 C 15.71875 -16.171875 15.097656 -16.660156 14.359375 -17.015625 C 13.617188 -17.378906 12.832031 -17.5625 12 -17.5625 C 11.1875 -17.5625 10.429688 -17.453125 9.734375 -17.234375 C 9.035156 -17.023438 8.429688 -16.664062 7.921875 -16.15625 C 7.410156 -15.644531 7.003906 -14.957031 6.703125 -14.09375 C 6.410156 -13.226562 6.265625 -12.140625 6.265625 -10.828125 C 6.265625 -9.367188 6.566406 -8.132812 7.171875 -7.125 C 7.773438 -6.113281 8.554688 -5.347656 9.515625 -4.828125 C 10.472656 -4.304688 11.488281 -4.046875 12.5625 -4.046875 C 13.5625 -4.046875 14.351562 -4.125 14.9375 -4.28125 C 15.53125 -4.445312 16.007812 -4.640625 16.375 -4.859375 C 16.738281 -5.085938 17.070312 -5.285156 17.375 -5.453125 C 17.851562 -5.691406 18.304688 -5.8125 18.734375 -5.8125 C 19.328125 -5.8125 19.816406 -5.609375 20.203125 -5.203125 C 20.597656 -4.804688 20.796875 -4.335938 20.796875 -3.796875 C 20.796875 -3.066406 20.421875 -2.40625 19.671875 -1.8125 C 18.972656 -1.21875 17.988281 -0.695312 16.71875 -0.25 C 15.457031 0.1875 14.148438 0.40625 12.796875 0.40625 Z M 12.796875 0.40625 "/></g></g></g><g fill="#ffffff" fill-opacity="1"><g transform="translate(115.699983, 273.777282)"><g><path d="M 5.046875 0 C 4.347656 0 3.769531 -0.234375 3.3125 -0.703125 C 2.851562 -1.171875 2.625 -1.757812 2.625 -2.46875 L 2.625 -19.140625 C 2.625 -19.847656 2.851562 -20.4375 3.3125 -20.90625 C 3.769531 -21.375 4.347656 -21.609375 5.046875 -21.609375 C 5.742188 -21.609375 6.320312 -21.375 6.78125 -20.90625 C 7.238281 -20.4375 7.46875 -19.847656 7.46875 -19.140625 L 7.46875 -15.34375 L 7.1875 -18.046875 C 7.488281 -18.703125 7.875 -19.273438 8.34375 -19.765625 C 8.8125 -20.265625 9.34375 -20.679688 9.9375 -21.015625 C 10.53125 -21.359375 11.160156 -21.609375 11.828125 -21.765625 C 12.503906 -21.929688 13.179688 -22.015625 13.859375 -22.015625 C 14.660156 -22.015625 15.335938 -21.785156 15.890625 -21.328125 C 16.441406 -20.867188 16.71875 -20.328125 16.71875 -19.703125 C 16.71875 -18.816406 16.488281 -18.175781 16.03125 -17.78125 C 15.570312 -17.394531 15.078125 -17.203125 14.546875 -17.203125 C 14.023438 -17.203125 13.554688 -17.296875 13.140625 -17.484375 C 12.722656 -17.671875 12.25 -17.765625 11.71875 -17.765625 C 11.226562 -17.765625 10.734375 -17.648438 10.234375 -17.421875 C 9.734375 -17.191406 9.273438 -16.832031 8.859375 -16.34375 C 8.441406 -15.863281 8.101562 -15.265625 7.84375 -14.546875 C 7.59375 -13.835938 7.46875 -13 7.46875 -12.03125 L 7.46875 -2.46875 C 7.46875 -1.757812 7.238281 -1.171875 6.78125 -0.703125 C 6.320312 -0.234375 5.742188 0 5.046875 0 Z M 5.046875 0 "/></g></g></g><g fill="#ffffff" fill-opacity="1"><g transform="translate(11.293068, 311.426086)"><g><path d="M 13.25 -25.15625 L 3.4375 -0.765625 C 3.320312 -0.492188 3.171875 -0.289062 2.984375 -0.15625 C 2.796875 -0.0195312 2.582031 0.046875 2.34375 0.046875 C 1.96875 0.046875 1.6875 -0.0507812 1.5 -0.25 C 1.3125 -0.457031 1.203125 -0.710938 1.171875 -1.015625 C 1.140625 -1.148438 1.15625 -1.3125 1.21875 -1.5 L 11.875 -27.59375 C 12.007812 -27.882812 12.175781 -28.085938 12.375 -28.203125 C 12.582031 -28.328125 12.820312 -28.390625 13.09375 -28.390625 C 13.351562 -28.390625 13.582031 -28.316406 13.78125 -28.171875 C 13.988281 -28.023438 14.148438 -27.832031 14.265625 -27.59375 L 24.875 -1.609375 C 24.9375 -1.453125 24.96875 -1.289062 24.96875 -1.125 C 24.96875 -0.75 24.84375 -0.457031 24.59375 -0.25 C 24.351562 -0.0507812 24.070312 0.046875 23.75 0.046875 C 23.476562 0.046875 23.238281 -0.0234375 23.03125 -0.171875 C 22.832031 -0.328125 22.679688 -0.523438 22.578125 -0.765625 L 12.515625 -25.328125 Z M 5.78125 -8.15625 L 6.78125 -10.546875 L 19.3125 -10.546875 L 19.796875 -8.15625 Z M 5.78125 -8.15625 "/></g></g></g><g fill="#ffffff" fill-opacity="1"><g transform="translate(37.425094, 311.426086)"><g><path d="M 2.015625 -3.265625 C 1.804688 -3.585938 1.707031 -3.90625 1.71875 -4.21875 C 1.726562 -4.53125 1.894531 -4.78125 2.21875 -4.96875 C 2.4375 -5.15625 2.6875 -5.234375 2.96875 -5.203125 C 3.25 -5.179688 3.507812 -5.050781 3.75 -4.8125 C 4.476562 -3.863281 5.359375 -3.097656 6.390625 -2.515625 C 7.429688 -1.941406 8.664062 -1.65625 10.09375 -1.65625 C 10.851562 -1.65625 11.601562 -1.78125 12.34375 -2.03125 C 13.082031 -2.289062 13.691406 -2.679688 14.171875 -3.203125 C 14.660156 -3.734375 14.90625 -4.398438 14.90625 -5.203125 C 14.90625 -6.046875 14.660156 -6.722656 14.171875 -7.234375 C 13.691406 -7.742188 13.066406 -8.144531 12.296875 -8.4375 C 11.523438 -8.738281 10.710938 -8.992188 9.859375 -9.203125 C 8.941406 -9.453125 8.050781 -9.726562 7.1875 -10.03125 C 6.320312 -10.34375 5.5625 -10.734375 4.90625 -11.203125 C 4.25 -11.679688 3.71875 -12.253906 3.3125 -12.921875 C 2.90625 -13.597656 2.703125 -14.421875 2.703125 -15.390625 C 2.703125 -16.515625 3.007812 -17.507812 3.625 -18.375 C 4.25 -19.238281 5.09375 -19.910156 6.15625 -20.390625 C 7.21875 -20.878906 8.425781 -21.125 9.78125 -21.125 C 10.445312 -21.125 11.171875 -21.035156 11.953125 -20.859375 C 12.734375 -20.679688 13.5 -20.390625 14.25 -19.984375 C 15.007812 -19.585938 15.6875 -19.039062 16.28125 -18.34375 C 16.519531 -18.09375 16.640625 -17.8125 16.640625 -17.5 C 16.640625 -17.195312 16.503906 -16.925781 16.234375 -16.6875 C 16.015625 -16.519531 15.765625 -16.4375 15.484375 -16.4375 C 15.203125 -16.4375 14.96875 -16.546875 14.78125 -16.765625 C 14.132812 -17.492188 13.363281 -18.046875 12.46875 -18.421875 C 11.582031 -18.796875 10.628906 -18.984375 9.609375 -18.984375 C 8.828125 -18.984375 8.09375 -18.851562 7.40625 -18.59375 C 6.71875 -18.34375 6.144531 -17.960938 5.6875 -17.453125 C 5.238281 -16.941406 5.015625 -16.265625 5.015625 -15.421875 C 5.066406 -14.648438 5.335938 -14.019531 5.828125 -13.53125 C 6.328125 -13.039062 6.988281 -12.632812 7.8125 -12.3125 C 8.632812 -11.988281 9.554688 -11.695312 10.578125 -11.4375 C 11.441406 -11.21875 12.269531 -10.957031 13.0625 -10.65625 C 13.863281 -10.363281 14.566406 -9.992188 15.171875 -9.546875 C 15.773438 -9.109375 16.257812 -8.550781 16.625 -7.875 C 16.988281 -7.195312 17.171875 -6.347656 17.171875 -5.328125 C 17.171875 -4.140625 16.835938 -3.113281 16.171875 -2.25 C 15.515625 -1.394531 14.632812 -0.738281 13.53125 -0.28125 C 12.425781 0.175781 11.203125 0.40625 9.859375 0.40625 C 8.398438 0.40625 6.988281 0.125 5.625 -0.4375 C 4.269531 -1.007812 3.066406 -1.953125 2.015625 -3.265625 Z M 2.015625 -3.265625 "/></g></g></g><g fill="#ffffff" fill-opacity="1"><g transform="translate(56.367785, 311.426086)"><g><path d="M 2.015625 -3.265625 C 1.804688 -3.585938 1.707031 -3.90625 1.71875 -4.21875 C 1.726562 -4.53125 1.894531 -4.78125 2.21875 -4.96875 C 2.4375 -5.15625 2.6875 -5.234375 2.96875 -5.203125 C 3.25 -5.179688 3.507812 -5.050781 3.75 -4.8125 C 4.476562 -3.863281 5.359375 -3.097656 6.390625 -2.515625 C 7.429688 -1.941406 8.664062 -1.65625 10.09375 -1.65625 C 10.851562 -1.65625 11.601562 -1.78125 12.34375 -2.03125 C 13.082031 -2.289062 13.691406 -2.679688 14.171875 -3.203125 C 14.660156 -3.734375 14.90625 -4.398438 14.90625 -5.203125 C 14.90625 -6.046875 14.660156 -6.722656 14.171875 -7.234375 C 13.691406 -7.742188 13.066406 -8.144531 12.296875 -8.4375 C 11.523438 -8.738281 10.710938 -8.992188 9.859375 -9.203125 C 8.941406 -9.453125 8.050781 -9.726562 7.1875 -10.03125 C 6.320312 -10.34375 5.5625 -10.734375 4.90625 -11.203125 C 4.25 -11.679688 3.71875 -12.253906 3.3125 -12.921875 C 2.90625 -13.597656 2.703125 -14.421875 2.703125 -15.390625 C 2.703125 -16.515625 3.007812 -17.507812 3.625 -18.375 C 4.25 -19.238281 5.09375 -19.910156 6.15625 -20.390625 C 7.21875 -20.878906 8.425781 -21.125 9.78125 -21.125 C 10.445312 -21.125 11.171875 -21.035156 11.953125 -20.859375 C 12.734375 -20.679688 13.5 -20.390625 14.25 -19.984375 C 15.007812 -19.585938 15.6875 -19.039062 16.28125 -18.34375 C 16.519531 -18.09375 16.640625 -17.8125 16.640625 -17.5 C 16.640625 -17.195312 16.503906 -16.925781 16.234375 -16.6875 C 16.015625 -16.519531 15.765625 -16.4375 15.484375 -16.4375 C 15.203125 -16.4375 14.96875 -16.546875 14.78125 -16.765625 C 14.132812 -17.492188 13.363281 -18.046875 12.46875 -18.421875 C 11.582031 -18.796875 10.628906 -18.984375 9.609375 -18.984375 C 8.828125 -18.984375 8.09375 -18.851562 7.40625 -18.59375 C 6.71875 -18.34375 6.144531 -17.960938 5.6875 -17.453125 C 5.238281 -16.941406 5.015625 -16.265625 5.015625 -15.421875 C 5.066406 -14.648438 5.335938 -14.019531 5.828125 -13.53125 C 6.328125 -13.039062 6.988281 -12.632812 7.8125 -12.3125 C 8.632812 -11.988281 9.554688 -11.695312 10.578125 -11.4375 C 11.441406 -11.21875 12.269531 -10.957031 13.0625 -10.65625 C 13.863281 -10.363281 14.566406 -9.992188 15.171875 -9.546875 C 15.773438 -9.109375 16.257812 -8.550781 16.625 -7.875 C 16.988281 -7.195312 17.171875 -6.347656 17.171875 -5.328125 C 17.171875 -4.140625 16.835938 -3.113281 16.171875 -2.25 C 15.515625 -1.394531 14.632812 -0.738281 13.53125 -0.28125 C 12.425781 0.175781 11.203125 0.40625 9.859375 0.40625 C 8.398438 0.40625 6.988281 0.125 5.625 -0.4375 C 4.269531 -1.007812 3.066406 -1.953125 2.015625 -3.265625 Z M 2.015625 -3.265625 "/></g></g></g><g fill="#ffffff" fill-opacity="1"><g transform="translate(75.310477, 311.426086)"><g><path d="M 12.515625 0.40625 C 10.441406 0.40625 8.609375 -0.0351562 7.015625 -0.921875 C 5.429688 -1.816406 4.195312 -3.054688 3.3125 -4.640625 C 2.425781 -6.234375 1.984375 -8.09375 1.984375 -10.21875 C 1.984375 -12.507812 2.429688 -14.460938 3.328125 -16.078125 C 4.234375 -17.691406 5.40625 -18.9375 6.84375 -19.8125 C 8.28125 -20.6875 9.8125 -21.125 11.4375 -21.125 C 12.613281 -21.125 13.757812 -20.914062 14.875 -20.5 C 16 -20.082031 17 -19.460938 17.875 -18.640625 C 18.75 -17.816406 19.445312 -16.8125 19.96875 -15.625 C 20.5 -14.445312 20.789062 -13.078125 20.84375 -11.515625 C 20.8125 -11.191406 20.675781 -10.914062 20.4375 -10.6875 C 20.195312 -10.457031 19.914062 -10.34375 19.59375 -10.34375 L 3.390625 -10.34375 L 2.90625 -12.515625 L 18.828125 -12.515625 L 18.296875 -12.03125 L 18.296875 -12.84375 C 18.191406 -14.113281 17.785156 -15.191406 17.078125 -16.078125 C 16.378906 -16.960938 15.53125 -17.632812 14.53125 -18.09375 C 13.539062 -18.550781 12.507812 -18.78125 11.4375 -18.78125 C 10.625 -18.78125 9.789062 -18.617188 8.9375 -18.296875 C 8.09375 -17.972656 7.328125 -17.46875 6.640625 -16.78125 C 5.953125 -16.09375 5.394531 -15.21875 4.96875 -14.15625 C 4.539062 -13.09375 4.328125 -11.832031 4.328125 -10.375 C 4.328125 -8.789062 4.648438 -7.351562 5.296875 -6.0625 C 5.941406 -4.769531 6.875 -3.742188 8.09375 -2.984375 C 9.320312 -2.234375 10.785156 -1.859375 12.484375 -1.859375 C 13.421875 -1.859375 14.265625 -1.992188 15.015625 -2.265625 C 15.773438 -2.535156 16.4375 -2.890625 17 -3.328125 C 17.570312 -3.773438 18.046875 -4.238281 18.421875 -4.71875 C 18.710938 -4.96875 19.007812 -5.09375 19.3125 -5.09375 C 19.570312 -5.09375 19.800781 -4.984375 20 -4.765625 C 20.207031 -4.546875 20.3125 -4.304688 20.3125 -4.046875 C 20.3125 -3.710938 20.175781 -3.425781 19.90625 -3.1875 C 19.101562 -2.21875 18.054688 -1.375 16.765625 -0.65625 C 15.472656 0.0507812 14.054688 0.40625 12.515625 0.40625 Z M 12.515625 0.40625 "/></g></g></g><g fill="#ffffff" fill-opacity="1"><g transform="translate(98.130562, 311.426086)"><g><path d="M 2.015625 -3.265625 C 1.804688 -3.585938 1.707031 -3.90625 1.71875 -4.21875 C 1.726562 -4.53125 1.894531 -4.78125 2.21875 -4.96875 C 2.4375 -5.15625 2.6875 -5.234375 2.96875 -5.203125 C 3.25 -5.179688 3.507812 -5.050781 3.75 -4.8125 C 4.476562 -3.863281 5.359375 -3.097656 6.390625 -2.515625 C 7.429688 -1.941406 8.664062 -1.65625 10.09375 -1.65625 C 10.851562 -1.65625 11.601562 -1.78125 12.34375 -2.03125 C 13.082031 -2.289062 13.691406 -2.679688 14.171875 -3.203125 C 14.660156 -3.734375 14.90625 -4.398438 14.90625 -5.203125 C 14.90625 -6.046875 14.660156 -6.722656 14.171875 -7.234375 C 13.691406 -7.742188 13.066406 -8.144531 12.296875 -8.4375 C 11.523438 -8.738281 10.710938 -8.992188 9.859375 -9.203125 C 8.941406 -9.453125 8.050781 -9.726562 7.1875 -10.03125 C 6.320312 -10.34375 5.5625 -10.734375 4.90625 -11.203125 C 4.25 -11.679688 3.71875 -12.253906 3.3125 -12.921875 C 2.90625 -13.597656 2.703125 -14.421875 2.703125 -15.390625 C 2.703125 -16.515625 3.007812 -17.507812 3.625 -18.375 C 4.25 -19.238281 5.09375 -19.910156 6.15625 -20.390625 C 7.21875 -20.878906 8.425781 -21.125 9.78125 -21.125 C 10.445312 -21.125 11.171875 -21.035156 11.953125 -20.859375 C 12.734375 -20.679688 13.5 -20.390625 14.25 -19.984375 C 15.007812 -19.585938 15.6875 -19.039062 16.28125 -18.34375 C 16.519531 -18.09375 16.640625 -17.8125 16.640625 -17.5 C 16.640625 -17.195312 16.503906 -16.925781 16.234375 -16.6875 C 16.015625 -16.519531 15.765625 -16.4375 15.484375 -16.4375 C 15.203125 -16.4375 14.96875 -16.546875 14.78125 -16.765625 C 14.132812 -17.492188 13.363281 -18.046875 12.46875 -18.421875 C 11.582031 -18.796875 10.628906 -18.984375 9.609375 -18.984375 C 8.828125 -18.984375 8.09375 -18.851562 7.40625 -18.59375 C 6.71875 -18.34375 6.144531 -17.960938 5.6875 -17.453125 C 5.238281 -16.941406 5.015625 -16.265625 5.015625 -15.421875 C 5.066406 -14.648438 5.335938 -14.019531 5.828125 -13.53125 C 6.328125 -13.039062 6.988281 -12.632812 7.8125 -12.3125 C 8.632812 -11.988281 9.554688 -11.695312 10.578125 -11.4375 C 11.441406 -11.21875 12.269531 -10.957031 13.0625 -10.65625 C 13.863281 -10.363281 14.566406 -9.992188 15.171875 -9.546875 C 15.773438 -9.109375 16.257812 -8.550781 16.625 -7.875 C 16.988281 -7.195312 17.171875 -6.347656 17.171875 -5.328125 C 17.171875 -4.140625 16.835938 -3.113281 16.171875 -2.25 C 15.515625 -1.394531 14.632812 -0.738281 13.53125 -0.28125 C 12.425781 0.175781 11.203125 0.40625 9.859375 0.40625 C 8.398438 0.40625 6.988281 0.125 5.625 -0.4375 C 4.269531 -1.007812 3.066406 -1.953125 2.015625 -3.265625 Z M 2.015625 -3.265625 "/></g></g></g><g fill="#ffffff" fill-opacity="1"><g transform="translate(117.073254, 311.426086)"><g><path d="M 2.015625 -3.265625 C 1.804688 -3.585938 1.707031 -3.90625 1.71875 -4.21875 C 1.726562 -4.53125 1.894531 -4.78125 2.21875 -4.96875 C 2.4375 -5.15625 2.6875 -5.234375 2.96875 -5.203125 C 3.25 -5.179688 3.507812 -5.050781 3.75 -4.8125 C 4.476562 -3.863281 5.359375 -3.097656 6.390625 -2.515625 C 7.429688 -1.941406 8.664062 -1.65625 10.09375 -1.65625 C 10.851562 -1.65625 11.601562 -1.78125 12.34375 -2.03125 C 13.082031 -2.289062 13.691406 -2.679688 14.171875 -3.203125 C 14.660156 -3.734375 14.90625 -4.398438 14.90625 -5.203125 C 14.90625 -6.046875 14.660156 -6.722656 14.171875 -7.234375 C 13.691406 -7.742188 13.066406 -8.144531 12.296875 -8.4375 C 11.523438 -8.738281 10.710938 -8.992188 9.859375 -9.203125 C 8.941406 -9.453125 8.050781 -9.726562 7.1875 -10.03125 C 6.320312 -10.34375 5.5625 -10.734375 4.90625 -11.203125 C 4.25 -11.679688 3.71875 -12.253906 3.3125 -12.921875 C 2.90625 -13.597656 2.703125 -14.421875 2.703125 -15.390625 C 2.703125 -16.515625 3.007812 -17.507812 3.625 -18.375 C 4.25 -19.238281 5.09375 -19.910156 6.15625 -20.390625 C 7.21875 -20.878906 8.425781 -21.125 9.78125 -21.125 C 10.445312 -21.125 11.171875 -21.035156 11.953125 -20.859375 C 12.734375 -20.679688 13.5 -20.390625 14.25 -19.984375 C 15.007812 -19.585938 15.6875 -19.039062 16.28125 -18.34375 C 16.519531 -18.09375 16.640625 -17.8125 16.640625 -17.5 C 16.640625 -17.195312 16.503906 -16.925781 16.234375 -16.6875 C 16.015625 -16.519531 15.765625 -16.4375 15.484375 -16.4375 C 15.203125 -16.4375 14.96875 -16.546875 14.78125 -16.765625 C 14.132812 -17.492188 13.363281 -18.046875 12.46875 -18.421875 C 11.582031 -18.796875 10.628906 -18.984375 9.609375 -18.984375 C 8.828125 -18.984375 8.09375 -18.851562 7.40625 -18.59375 C 6.71875 -18.34375 6.144531 -17.960938 5.6875 -17.453125 C 5.238281 -16.941406 5.015625 -16.265625 5.015625 -15.421875 C 5.066406 -14.648438 5.335938 -14.019531 5.828125 -13.53125 C 6.328125 -13.039062 6.988281 -12.632812 7.8125 -12.3125 C 8.632812 -11.988281 9.554688 -11.695312 10.578125 -11.4375 C 11.441406 -11.21875 12.269531 -10.957031 13.0625 -10.65625 C 13.863281 -10.363281 14.566406 -9.992188 15.171875 -9.546875 C 15.773438 -9.109375 16.257812 -8.550781 16.625 -7.875 C 16.988281 -7.195312 17.171875 -6.347656 17.171875 -5.328125 C 17.171875 -4.140625 16.835938 -3.113281 16.171875 -2.25 C 15.515625 -1.394531 14.632812 -0.738281 13.53125 -0.28125 C 12.425781 0.175781 11.203125 0.40625 9.859375 0.40625 C 8.398438 0.40625 6.988281 0.125 5.625 -0.4375 C 4.269531 -1.007812 3.066406 -1.953125 2.015625 -3.265625 Z M 2.015625 -3.265625 "/></g></g></g><g fill="#ffffff" fill-opacity="1"><g transform="translate(136.015946, 311.426086)"><g><path d="M 12.484375 -20.796875 C 14.148438 -20.796875 15.578125 -20.359375 16.765625 -19.484375 C 17.953125 -18.609375 18.757812 -17.3125 19.1875 -15.59375 L 18.625 -15.421875 L 18.859375 -16.15625 C 19.210938 -16.96875 19.796875 -17.726562 20.609375 -18.4375 C 21.429688 -19.15625 22.367188 -19.726562 23.421875 -20.15625 C 24.472656 -20.582031 25.539062 -20.796875 26.625 -20.796875 C 28.3125 -20.796875 29.671875 -20.429688 30.703125 -19.703125 C 31.742188 -18.984375 32.5 -18.007812 32.96875 -16.78125 C 33.445312 -15.550781 33.6875 -14.171875 33.6875 -12.640625 L 33.6875 -1.21875 C 33.6875 -0.894531 33.570312 -0.609375 33.34375 -0.359375 C 33.113281 -0.117188 32.820312 0 32.46875 0 C 32.125 0 31.835938 -0.117188 31.609375 -0.359375 C 31.378906 -0.609375 31.265625 -0.894531 31.265625 -1.21875 L 31.265625 -12.515625 C 31.265625 -13.617188 31.085938 -14.628906 30.734375 -15.546875 C 30.390625 -16.460938 29.835938 -17.191406 29.078125 -17.734375 C 28.328125 -18.273438 27.316406 -18.546875 26.046875 -18.546875 C 24.941406 -18.546875 23.882812 -18.273438 22.875 -17.734375 C 21.863281 -17.191406 21.039062 -16.460938 20.40625 -15.546875 C 19.78125 -14.628906 19.46875 -13.617188 19.46875 -12.515625 L 19.46875 -1.21875 C 19.46875 -0.894531 19.351562 -0.609375 19.125 -0.359375 C 18.894531 -0.117188 18.601562 0 18.25 0 C 17.90625 0 17.617188 -0.117188 17.390625 -0.359375 C 17.160156 -0.609375 17.046875 -0.894531 17.046875 -1.21875 L 17.046875 -12.640625 C 17.046875 -13.742188 16.882812 -14.738281 16.5625 -15.625 C 16.238281 -16.519531 15.710938 -17.226562 14.984375 -17.75 C 14.253906 -18.28125 13.269531 -18.546875 12.03125 -18.546875 C 10.925781 -18.546875 9.882812 -18.28125 8.90625 -17.75 C 7.925781 -17.226562 7.128906 -16.519531 6.515625 -15.625 C 5.910156 -14.738281 5.609375 -13.742188 5.609375 -12.640625 L 5.609375 -1.21875 C 5.609375 -0.894531 5.488281 -0.609375 5.25 -0.359375 C 5.007812 -0.117188 4.726562 0 4.40625 0 C 4.03125 0 3.734375 -0.117188 3.515625 -0.359375 C 3.296875 -0.609375 3.1875 -0.894531 3.1875 -1.21875 L 3.1875 -19.3125 C 3.1875 -19.632812 3.300781 -19.914062 3.53125 -20.15625 C 3.757812 -20.394531 4.050781 -20.515625 4.40625 -20.515625 C 4.75 -20.515625 5.035156 -20.394531 5.265625 -20.15625 C 5.492188 -19.914062 5.609375 -19.632812 5.609375 -19.3125 L 5.609375 -15.546875 L 4.53125 -14.0625 C 4.601562 -14.863281 4.863281 -15.664062 5.3125 -16.46875 C 5.757812 -17.28125 6.34375 -18.007812 7.0625 -18.65625 C 7.789062 -19.300781 8.617188 -19.816406 9.546875 -20.203125 C 10.484375 -20.597656 11.460938 -20.796875 12.484375 -20.796875 Z M 12.484375 -20.796875 "/></g></g></g><g fill="#ffffff" fill-opacity="1"><g transform="translate(172.851187, 311.426086)"><g><path d="M 12.515625 0.40625 C 10.441406 0.40625 8.609375 -0.0351562 7.015625 -0.921875 C 5.429688 -1.816406 4.195312 -3.054688 3.3125 -4.640625 C 2.425781 -6.234375 1.984375 -8.09375 1.984375 -10.21875 C 1.984375 -12.507812 2.429688 -14.460938 3.328125 -16.078125 C 4.234375 -17.691406 5.40625 -18.9375 6.84375 -19.8125 C 8.28125 -20.6875 9.8125 -21.125 11.4375 -21.125 C 12.613281 -21.125 13.757812 -20.914062 14.875 -20.5 C 16 -20.082031 17 -19.460938 17.875 -18.640625 C 18.75 -17.816406 19.445312 -16.8125 19.96875 -15.625 C 20.5 -14.445312 20.789062 -13.078125 20.84375 -11.515625 C 20.8125 -11.191406 20.675781 -10.914062 20.4375 -10.6875 C 20.195312 -10.457031 19.914062 -10.34375 19.59375 -10.34375 L 3.390625 -10.34375 L 2.90625 -12.515625 L 18.828125 -12.515625 L 18.296875 -12.03125 L 18.296875 -12.84375 C 18.191406 -14.113281 17.785156 -15.191406 17.078125 -16.078125 C 16.378906 -16.960938 15.53125 -17.632812 14.53125 -18.09375 C 13.539062 -18.550781 12.507812 -18.78125 11.4375 -18.78125 C 10.625 -18.78125 9.789062 -18.617188 8.9375 -18.296875 C 8.09375 -17.972656 7.328125 -17.46875 6.640625 -16.78125 C 5.953125 -16.09375 5.394531 -15.21875 4.96875 -14.15625 C 4.539062 -13.09375 4.328125 -11.832031 4.328125 -10.375 C 4.328125 -8.789062 4.648438 -7.351562 5.296875 -6.0625 C 5.941406 -4.769531 6.875 -3.742188 8.09375 -2.984375 C 9.320312 -2.234375 10.785156 -1.859375 12.484375 -1.859375 C 13.421875 -1.859375 14.265625 -1.992188 15.015625 -2.265625 C 15.773438 -2.535156 16.4375 -2.890625 17 -3.328125 C 17.570312 -3.773438 18.046875 -4.238281 18.421875 -4.71875 C 18.710938 -4.96875 19.007812 -5.09375 19.3125 -5.09375 C 19.570312 -5.09375 19.800781 -4.984375 20 -4.765625 C 20.207031 -4.546875 20.3125 -4.304688 20.3125 -4.046875 C 20.3125 -3.710938 20.175781 -3.425781 19.90625 -3.1875 C 19.101562 -2.21875 18.054688 -1.375 16.765625 -0.65625 C 15.472656 0.0507812 14.054688 0.40625 12.515625 0.40625 Z M 12.515625 0.40625 "/></g></g></g><g fill="#ffffff" fill-opacity="1"><g transform="translate(195.671273, 311.426086)"><g><path d="M 12.921875 -21.125 C 14.703125 -21.125 16.125 -20.765625 17.1875 -20.046875 C 18.25 -19.335938 19.015625 -18.367188 19.484375 -17.140625 C 19.960938 -15.921875 20.203125 -14.570312 20.203125 -13.09375 L 20.203125 -1.21875 C 20.203125 -0.894531 20.078125 -0.609375 19.828125 -0.359375 C 19.585938 -0.117188 19.304688 0 18.984375 0 C 18.609375 0 18.3125 -0.117188 18.09375 -0.359375 C 17.875 -0.609375 17.765625 -0.894531 17.765625 -1.21875 L 17.765625 -12.96875 C 17.765625 -14.039062 17.585938 -15.019531 17.234375 -15.90625 C 16.890625 -16.800781 16.320312 -17.515625 15.53125 -18.046875 C 14.738281 -18.585938 13.695312 -18.859375 12.40625 -18.859375 C 11.238281 -18.859375 10.132812 -18.585938 9.09375 -18.046875 C 8.0625 -17.515625 7.222656 -16.800781 6.578125 -15.90625 C 5.929688 -15.019531 5.609375 -14.039062 5.609375 -12.96875 L 5.609375 -1.21875 C 5.609375 -0.894531 5.488281 -0.609375 5.25 -0.359375 C 5.007812 -0.117188 4.726562 0 4.40625 0 C 4.03125 0 3.734375 -0.117188 3.515625 -0.359375 C 3.296875 -0.609375 3.1875 -0.894531 3.1875 -1.21875 L 3.1875 -19.3125 C 3.1875 -19.632812 3.300781 -19.914062 3.53125 -20.15625 C 3.757812 -20.394531 4.050781 -20.515625 4.40625 -20.515625 C 4.75 -20.515625 5.035156 -20.394531 5.265625 -20.15625 C 5.492188 -19.914062 5.609375 -19.632812 5.609375 -19.3125 L 5.609375 -15.90625 L 4.6875 -14.453125 C 4.738281 -15.316406 5.015625 -16.144531 5.515625 -16.9375 C 6.015625 -17.738281 6.65625 -18.453125 7.4375 -19.078125 C 8.21875 -19.710938 9.082031 -20.210938 10.03125 -20.578125 C 10.988281 -20.941406 11.953125 -21.125 12.921875 -21.125 Z M 12.921875 -21.125 "/></g></g></g><g fill="#ffffff" fill-opacity="1"><g transform="translate(219.016415, 311.426086)"><g><path d="M 1.859375 -20.5625 L 11.265625 -20.5625 C 11.585938 -20.5625 11.859375 -20.445312 12.078125 -20.21875 C 12.296875 -19.988281 12.40625 -19.710938 12.40625 -19.390625 C 12.40625 -19.085938 12.296875 -18.828125 12.078125 -18.609375 C 11.859375 -18.398438 11.585938 -18.296875 11.265625 -18.296875 L 1.859375 -18.296875 C 1.535156 -18.296875 1.257812 -18.410156 1.03125 -18.640625 C 0.800781 -18.867188 0.6875 -19.128906 0.6875 -19.421875 C 0.6875 -19.742188 0.800781 -20.015625 1.03125 -20.234375 C 1.257812 -20.453125 1.535156 -20.5625 1.859375 -20.5625 Z M 6.015625 -26.25 C 6.367188 -26.25 6.660156 -26.128906 6.890625 -25.890625 C 7.117188 -25.648438 7.234375 -25.367188 7.234375 -25.046875 L 7.234375 -4.765625 C 7.234375 -4.015625 7.332031 -3.445312 7.53125 -3.0625 C 7.726562 -2.6875 7.988281 -2.4375 8.3125 -2.3125 C 8.644531 -2.195312 8.972656 -2.140625 9.296875 -2.140625 C 9.503906 -2.140625 9.695312 -2.171875 9.875 -2.234375 C 10.050781 -2.304688 10.25 -2.34375 10.46875 -2.34375 C 10.707031 -2.34375 10.910156 -2.25 11.078125 -2.0625 C 11.253906 -1.875 11.34375 -1.628906 11.34375 -1.328125 C 11.34375 -0.953125 11.128906 -0.632812 10.703125 -0.375 C 10.273438 -0.125 9.765625 0 9.171875 0 C 8.929688 0 8.566406 -0.0195312 8.078125 -0.0625 C 7.585938 -0.101562 7.085938 -0.25 6.578125 -0.5 C 6.066406 -0.757812 5.644531 -1.210938 5.3125 -1.859375 C 4.976562 -2.503906 4.8125 -3.429688 4.8125 -4.640625 L 4.8125 -25.046875 C 4.8125 -25.367188 4.925781 -25.648438 5.15625 -25.890625 C 5.382812 -26.128906 5.671875 -26.25 6.015625 -26.25 Z M 6.015625 -26.25 "/></g></g></g><g fill="#ffffff" fill-opacity="1"><g transform="translate(232.72044, 311.426086)"><g/></g></g><g fill="#ffffff" fill-opacity="1"><g transform="translate(243.746786, 311.426086)"><g/></g></g><g fill="#ffffff" fill-opacity="1"><g transform="translate(392.57069, 359.799493)"><g><path d="M 94.578125 -179.625 L 24.515625 -5.484375 C 23.742188 -3.554688 22.679688 -2.113281 21.328125 -1.15625 C 19.984375 -0.195312 18.445312 0.28125 16.71875 0.28125 C 14.03125 0.28125 12.015625 -0.4375 10.671875 -1.875 C 9.328125 -3.3125 8.554688 -5.085938 8.359375 -7.203125 C 8.171875 -8.171875 8.269531 -9.328125 8.65625 -10.671875 L 84.765625 -196.921875 C 85.722656 -199.035156 86.921875 -200.523438 88.359375 -201.390625 C 89.804688 -202.253906 91.492188 -202.6875 93.421875 -202.6875 C 95.335938 -202.6875 97.015625 -202.15625 98.453125 -201.09375 C 99.898438 -200.039062 101.007812 -198.648438 101.78125 -196.921875 L 177.609375 -11.53125 C 177.992188 -10.375 178.1875 -9.222656 178.1875 -8.078125 C 178.1875 -5.378906 177.320312 -3.3125 175.59375 -1.875 C 173.863281 -0.4375 171.84375 0.28125 169.53125 0.28125 C 167.613281 0.28125 165.929688 -0.242188 164.484375 -1.296875 C 163.046875 -2.359375 161.941406 -3.753906 161.171875 -5.484375 L 89.375 -180.78125 Z M 41.234375 -58.25 L 48.4375 -75.25 L 137.828125 -75.25 L 141.28125 -58.25 Z M 41.234375 -58.25 "/></g></g></g></svg>